<?xml version="1.0" encoding="utf-8"?>
<!-- Generator: Adobe Illustrator 27.0.1, SVG Export Plug-In . SVG Version: 6.00 Build 0)  -->
<svg version="1.1" id="Layer_1" xmlns="http://www.w3.org/2000/svg" xmlns:xlink="http://www.w3.org/1999/xlink" x="0px" y="0px"
	 viewBox="0 0 1356 976" style="enable-background:new 0 0 1356 976;" xml:space="preserve">
<style type="text/css">
	.st0{fill:none;stroke:#121212;stroke-width:10;stroke-miterlimit:10;}
	.st1{fill:none;stroke:#0A0A0A;stroke-width:10;stroke-miterlimit:10;}
	.st2{fill:none;stroke:#000000;stroke-width:10;stroke-miterlimit:10;}
	.st3{fill:none;stroke:#000000;stroke-width:6;stroke-miterlimit:10;}
</style>
<image style="overflow:visible;enable-background:new    ;" width="1356" height="976" xlink:href="E0D577A1.png" >
</image>
<path class="st0" d="M641.2,837c-17.8,11.3-38.2,18.7-57.7,26.4c-40.9,16.1-82.9,29.2-126.2,36.7c-43.8,7.6-88.6,10.4-132.8,4.5
	c-40.5-5.4-80.3-17.6-115.2-39.3c-34.1-21.2-61.5-51-77.3-88.1c-16.6-38.8-22.7-81.9-19.2-123.8c3.5-42.5,15.9-83.8,32-123.1
	c16.2-39.6,36.8-77.2,60.2-113.1c23.5-36,49.5-70.2,78.4-102.1c28.7-31.7,59.3-61.5,91.8-89.3c32.7-27.9,67-53.9,102.8-77.7
	c36-23.9,73.4-45.8,112.2-64.8C629,64.1,669.4,47.4,711,34.8c42.2-12.8,85.8-22,130-23.4c28.9-0.9,58.2,1,86.4,8
	c36.7,9.1,72.2,27.4,96.3,57.1c24.5,30.1,31.5,69.4,38.9,106.4c8.8,44.1,17.3,88.1,27,132c2.5,11.2,4.9,22.4,7.4,33.6
	c4.8,22,9.7,44.7,11.3,67.1c2.8,40.3-15.5,78.7-37.5,111.3c-23.9,35.4-52.7,65.9-85.1,93.7c-8.1,6.9-16.3,13.7-24.3,20.6"/>
<path class="st1" d="M125.2,778.8c-24-34.3-53.5-64.8-74.9-100.8C29.5,643,18.7,603,15,562.6c-5.2-57.1,5.9-114.8,28-167.5
	c21.2-50.7,52-97.6,87.5-139.4c6-7.1,12.2-14.1,18.6-20.9c28.7-30.9,60.6-58.7,94.6-83.6c34.7-25.4,72.3-46.7,111.5-64.4
	c39.7-17.9,80.6-33.3,123.5-41.6c44-8.6,88.6-12.3,133.3-15.7c44.2-3.4,88.9-6.9,133.3-10.7"/>
<path class="st2" d="M468.1,675.1c-22.8,11-64.9,19.6-78.5-9.1c-14.9-31.4,7.7-62.5,26.9-86c26.4-32.3,58.2-59.7,91.2-85
	c33.9-26,70-49.1,107.4-70c37.7-21,76.8-39.5,117-54.9c40.9-15.6,82.9-28.6,126-36.9c43.2-8.4,87.8-13.6,131.8-9.2
	c36.4,3.7,74.6,15.2,99.8,43.2c2.9,3.2,5.6,6.7,8.1,10.2"/>
<path class="st2" d="M873.2,585.1c5.8-21.2,7.9-43.3,6.3-65.2c-1.6-21.1-6.6-42-15-61.4c-0.1-0.2-0.2-0.4-0.2-0.6
	c-8.1-18.7-19-36.3-32.3-51.8s-30-27.2-47.2-37.9c-4.2-2.6-8.5-5.3-12.9-7.5"/>
<path class="st2" d="M749.4,443.8c7.7-10.6,14.6-21.9,20.7-33.5c6.2-11.7,11.5-24,18-35.5"/>
<path class="st2" d="M390.2,626.2c16.2,2.3,32.5,3.2,48.8,2.9"/>
<path class="st2" d="M418.6,581.9c18.9,49.5,48.4,94,83.3,133.6c24.5,27.8,50.3,50.1,61.1,59.4c8.1,6.9,30.9,26.3,63.9,48.8
	c70.3,48.1,133.2,74.1,147.2,80c52.8,22.2,108.5,37.7,165.1,46.5c58,9,117.6,10.9,175.5-0.2c52.1-9.9,103.8-30.3,144.1-65.5
	c38.9-34,65-80.5,74.2-131.2c10.4-57.2,1.8-116.3-17-170.9c-18.4-53.2-46.1-103-78.4-148.9c-32.7-46.4-71.7-88.4-114.4-125.8
	c-13.3-11.7-27-22.9-40.6-34.2"/>
<path class="st2" d="M567.5,454.6c16.5,19.2,36.8,34.4,56.6,50c45.5,35.8,93.4,67.4,144.5,94.8c74.6,40,156.1,71.7,239.7,86.1
	c51.9,8.9,111.7,14.8,161.2-7.8c33.6-15.4,61-47.8,61.5-86c0.7-52.5-36.4-94.6-73.1-127.8c-15.3-13.9-31.3-27-47.8-39.5"/>
<path class="st2" d="M713.9,380.5c16.2,38.7,40.2,73.7,66.1,106.5c26.4,33.4,55,65.7,86.6,94.3c29.7,27,63.5,48.2,100.5,63.7
	c13.6,5.7,27.4,11.2,41.6,15.3c3.1,0.9,6.2,1.7,9.4,1.6c19.1-0.7,12.5-29.2,8.2-40c-3.5-8.7-8.2-16.7-13.1-24.7"/>
<path class="st2" d="M769.3,407c-15.6-7-31.9-12.6-48.4-17.1"/>
<path class="st3" d="M485.2,699c-24.1,11.6-54.2,17.7-80.7,11.7c-29.4-6.6-43.4-31.2-42.2-60c1.4-34.5,20.4-65.6,40.6-92.7
	c27.4-36.7,63.2-67.5,99.5-95c13.4-10.2,27.1-19.9,40.9-29.5c34.1-23.6,69.9-44.6,106.7-63.6c73.9-38,152.8-69,235.2-81.8
	c70.8-11,152.8-9.5,206.1,45.3"/>
<path class="st3" d="M492.9,710.2c-45.1,15-133.7,29.3-146.1-36.2c-4.4-23.2,5-45.8,14.4-66.7c32.9-73.2,95.6-128.9,159.4-175.2
	c3.6-2.6,7.2-5.2,10.8-7.7c1.1-0.8,2.2-1.5,3.2-2.3C604.3,373,680,332.8,760.3,304c78.7-28.2,164.9-50.1,248.3-30.3
	c29.4,7,59.6,21.1,79.1,45"/>
<path class="st3" d="M480.7,692.3c-16.3,7-33.3,11.9-51.1,12.6c-16.6,0.7-35.2-2.9-47-15.5c-11.5-12.3-14.7-29.8-11.8-46
	c2.7-15.3,9.2-30.2,16.8-43.7c17.4-30.7,41-58.6,66.4-82.9c29.3-28.1,62.2-52.5,96.1-74.7c5.6-3.6,11.2-7.2,16.9-10.7
	c67.1-41.6,136.8-77.7,212.2-102.1c70.5-22.8,146.5-41.6,220.9-30.3c34.2,5.2,68.8,19.2,92.7,44.9"/>
<path class="st3" d="M475.3,687c-24.9,14.1-70.9,18.3-90.4-7c-13.7-17.7-7.7-40.4,0.5-59c10.8-24.6,27.9-46.6,45.5-66.6
	c36.1-41.1,78.8-74.4,124.1-104.7c40.3-27,82.9-50.5,126.6-71.5c51.7-24.7,105.9-44.1,161.6-57.6c55.4-13.5,114.5-20.8,170.9-9.3
	c29.5,6,61.5,16.5,80.4,41.6"/>
<path class="st3" d="M504,720.7c-42.8,17.4-96.6,28.8-139.8,6.7c-43.9-22.4-39.3-77.9-23.5-116.7c5.9-14.7,13.8-28.3,22.5-41.4
	c31-46.9,70-88.2,113.2-124.1c25.1-20.8,51.1-40.4,78-58.7c47-32,96.5-60.5,148.7-83.3c52.9-23.1,108.2-41.6,165.3-50.5
	c53.1-8.3,110.9-12.7,161.5,9.2c20.6,8.9,39.3,22.2,54.4,38.9"/>
<path class="st3" d="M516.1,734.1c-50,21.3-121.5,36.6-170.4,4.8c-56.1-36.4-40.2-108.9-13.5-158.8
	c38.3-71.8,98.9-129.2,162.6-178.6c65.6-50.9,137.5-93.3,213.6-126.6c74.7-32.7,160.5-59.6,242.9-53.2c30.5,2.4,60.7,9.9,87.6,24.5
	c15.7,8.5,30,19.7,41.3,33.6"/>
<path class="st3" d="M530.4,747.8c-25.5,11.5-52.6,19.4-80.3,23.5c-44.2,6.4-98.3,6-133.6-25.6c-36.6-32.7-36.6-89.1-20.4-131.8
	c19.5-51.6,51.2-97.7,86.8-139.4c36.1-42.4,78.6-78.6,122.9-112.1c44.8-33.9,92.9-63.3,143.1-88.4c51.2-25.6,105.4-46.5,160.8-61
	c44.8-11.7,92.7-19.5,139.5-15.2c43.2,4,103.6,19.4,126.6,59.9"/>
<path class="st3" d="M545.1,763.3c-51.7,20.9-108.6,35.1-164.8,31.1c-46-3.2-92.8-31.1-109.3-75.6c-8.6-23.3-10.4-49-6.4-73.4
	c8.7-53,37.3-100.8,67.4-144.3C363.9,455.3,403,415,445,378.4c36.7-31.9,75.9-60.9,117-86.8c48.4-30.5,99.3-56.3,152.2-77.9
	c53.4-21.8,110-37.6,167.6-43c53.2-5,111.1-2.8,156.3,29.1c12.5,8.8,23.6,19.5,32.7,31.8"/>
<path class="st3" d="M561.1,777.3c-70.6,30.2-151.9,53.1-227.7,28.7c-29.9-9.6-57.2-27.5-74.7-54c-40.1-60.7-18.4-140.5,12.7-200
	c4-7.7,8.3-15.4,12.8-22.9c29.1-48.7,64.8-93.2,104.7-133.5c58-58.6,124.6-108.2,195.4-150.3c50.3-30,103.3-55.7,158.6-75.2
	c76.3-26.9,166.8-43.6,246-19c29.7,9.3,58.2,25.8,74.7,53.1"/>
<path class="st3" d="M576.3,789.8c-69,36.1-152.1,56.7-229.6,40.5c-62.2-13-120.9-60.6-130.7-126.1c-8-53.8,6-107.9,29.5-156.1
	c24.1-49.7,57.3-94.6,93.6-136c35.5-40.5,74.9-77.5,117.3-110.7c66.8-52.3,139.8-98.8,217.3-133.3c77.6-34.5,164.4-57.8,249.8-52.1
	c49.8,3.3,101,17.8,132.2,59.7c1.5,2,3,4.1,4.3,6.2"/>
<path class="st3" d="M591.8,802.2c-72.1,37.9-154,56.2-235.3,46.8c-74.1-8.6-142.4-54.9-160.7-129.8c-20-82,16-164.5,59.1-232.6
	c42.6-67.4,97-126.9,156.8-179.4c62.2-54.7,131.1-101.4,204.5-139.7c75.3-39.3,157.7-71.1,243-77.2c0.4,0,0.9-0.1,1.3-0.1
	c64-4.4,140.9,2.7,184.9,55.7c3.4,4.1,6.4,8.8,9.1,13.5"/>
<path class="st3" d="M605.1,812.2c-47.3,27.3-100.1,45-154.2,52c-54.4,7.1-112.6,4.6-164.3-15c-24.6-9.3-47.7-23-66.4-41.6
	c-13.7-13.6-24.8-29.6-32.8-47.2c-22.9-50.3-17.5-112.7-2.4-164.4c15.7-53.9,42.2-104.2,74.3-150.1c32.2-46,69.9-88.2,109.9-127.4
	c40.7-39.9,84.7-75.9,131.6-108.2c47.5-32.6,97.2-62.3,149.7-86.2c52.9-24.1,108.6-42.5,166.2-51.2c56.5-8.5,117-7.7,170.2,15.3
	c23.4,10.2,44.9,24.8,61.4,44.4"/>
<path class="st3" d="M617.2,820.7c-76.4,37.3-161,63.1-246.8,59.1c-67-3.1-137.4-28.6-178.6-84c-45.8-61.6-42.3-144.6-19.9-214.5
	c24.4-76.2,68.4-145.5,119.5-206.6c53.5-64.1,115.9-120.7,184.1-168.8c70.4-49.6,146.6-91.3,227.9-120.2
	c76.2-27.1,159.5-44.4,240-28.1c14.9,3,29.6,7.1,43.4,13.5c21.5,10,40.5,24.8,55,43.7"/>
<path class="st3" d="M624.9,826.4c-72.6,39.4-154.9,63.5-237.8,63.6c-69.8,0.1-144.5-18.2-193.5-71
	c-49.3-53.1-57.3-130.3-44.1-198.9c15.5-80.9,57.5-154.7,106.3-220c50-67,110-126.6,175.8-178c64.9-50.7,135.8-94.3,211.2-127.5
	c78-34.3,159.3-57.9,245.3-55.8C938.9,40,994.6,53.9,1030,93.3"/>
</svg>
