<?xml version="1.0" encoding="UTF-8"?>
<svg id="Layer_2" data-name="Layer 2" xmlns="http://www.w3.org/2000/svg" viewBox="0 0 1333.75 956.61">
  <defs>
    <style>
      .cls-1 {
        stroke: #0a0a0a;
      }

      .cls-1, .cls-2, .cls-3 {
        fill: none;
        stroke-miterlimit: 10;
        stroke-width: 10px;
      }

      .cls-2 {
        stroke: #000;
      }

      .cls-3 {
        stroke: #121212;
      }
    </style>
  </defs>
  <g id="Layer_1-2" data-name="Layer 1">
    <path class="cls-3" d="M632.41,830.82c-17.81,11.27-38.17,18.68-57.7,26.37-40.88,16.1-82.88,29.22-126.22,36.7-43.75,7.56-88.64,10.38-132.77,4.5-40.49-5.39-80.34-17.64-115.19-39.27-34.13-21.19-61.46-50.99-77.31-88.1-16.57-38.8-22.73-81.86-19.23-123.82,3.54-42.49,15.85-83.78,31.97-123.09,16.24-39.59,36.8-77.25,60.15-113.07,23.47-36.02,49.53-70.24,78.38-102.12,28.68-31.68,59.3-61.52,91.81-89.26,32.73-27.94,66.97-53.95,102.84-77.72,36.03-23.87,73.4-45.75,112.2-64.81,38.93-19.13,79.36-35.88,120.89-48.51,42.15-12.82,85.82-22,129.96-23.41,28.91-.93,58.24,1.04,86.36,8.03,36.65,9.12,72.17,27.43,96.33,57.1,24.52,30.11,31.45,69.41,38.86,106.43,8.83,44.06,17.34,88.14,27.01,132.02,2.47,11.2,4.94,22.41,7.41,33.61,4.84,21.96,9.73,44.66,11.3,67.15,2.82,40.3-15.47,78.7-37.49,111.28-23.91,35.38-52.74,65.91-85.09,93.7-8.07,6.94-16.28,13.68-24.34,20.61"/>
    <path class="cls-1" d="M116.42,772.6c-23.95-34.23-53.47-64.76-74.83-100.77-20.77-35.02-31.6-75.03-35.31-115.38-5.25-57.1,5.92-114.81,27.93-167.5,21.17-50.67,51.97-97.63,87.46-139.38,6.03-7.09,12.23-14.05,18.57-20.87,28.72-30.85,60.58-58.74,94.59-83.63,34.73-25.41,72.31-46.74,111.51-64.43,39.7-17.92,80.62-33.26,123.46-41.59,44-8.56,88.63-12.28,133.26-15.7,44.23-3.39,88.9-6.91,133.27-10.7"/>
    <path class="cls-2" d="M459.4,668.92c-22.79,10.98-64.87,19.56-78.48-9.08-14.94-31.43,7.66-62.45,26.87-85.97,26.36-32.29,58.25-59.74,91.23-85.04,33.94-26.04,70.05-49.15,107.41-69.96,37.68-20.99,76.75-39.52,117.03-54.94,40.89-15.65,82.94-28.57,125.95-36.92,43.19-8.38,87.82-13.65,131.79-9.2,36.4,3.68,74.6,15.25,99.8,43.24,2.91,3.24,5.63,6.66,8.11,10.24"/>
    <path class="cls-2" d="M864.42,578.99c5.85-21.16,7.87-43.34,6.26-65.22-1.56-21.12-6.6-41.99-14.98-61.44-.08-.2-.17-.39-.25-.59-8.14-18.74-19.01-36.31-32.31-51.83-13.29-15.51-29.98-27.21-47.21-37.92-4.23-2.63-8.49-5.29-12.93-7.55"/>
    <path class="cls-2" d="M740.65,437.66c7.72-10.62,14.57-21.86,20.72-33.46,6.22-11.73,11.45-23.97,18.04-35.51"/>
    <path class="cls-2" d="M381.43,620.1c16.16,2.27,32.51,3.24,48.83,2.9"/>
    <path class="cls-2" d="M409.89,575.73c18.87,49.47,48.44,93.98,83.28,133.61,36.45,41.48,79.88,76.6,124.97,108.24,45.85,32.17,95.62,58.35,147.21,80.05,52.84,22.23,108.48,37.73,165.11,46.53,57.96,9,117.63,10.86,175.46-.15,52.11-9.92,103.81-30.29,144.11-65.52,38.86-33.97,64.99-80.51,74.23-131.23,10.42-57.23,1.84-116.35-17.04-170.9-18.4-53.17-46.09-102.99-78.41-148.91-32.66-46.4-71.74-88.45-114.37-125.83-13.29-11.66-26.98-22.88-40.58-34.17"/>
    <path class="cls-2" d="M558.76,448.42c16.45,19.21,36.79,34.41,56.56,49.99,45.51,35.85,93.4,67.37,144.47,94.75,74.61,40,156.08,71.71,239.74,86.06,51.93,8.9,111.71,14.8,161.15-7.81,33.63-15.38,61.04-47.81,61.53-86.02,.68-52.52-36.45-94.65-73.07-127.78-15.34-13.87-31.3-27.05-47.83-39.49"/>
    <path class="cls-2" d="M705.15,374.3c16.19,38.72,40.22,73.66,66.14,106.46,26.39,33.4,55.05,65.67,86.6,94.31,29.69,26.95,63.51,48.18,100.45,63.69,13.61,5.72,27.37,11.16,41.56,15.3,3.07,.9,6.23,1.74,9.43,1.61,19.15-.74,12.48-29.18,8.18-39.99-3.45-8.66-8.25-16.72-13.13-24.66"/>
    <path class="cls-2" d="M760.6,400.88c-15.61-7.02-31.87-12.61-48.37-17.1"/>
  </g>
</svg>