<?xml version="1.0" encoding="utf-8"?>
<!-- Generator: Adobe Illustrator 27.0.1, SVG Export Plug-In . SVG Version: 6.00 Build 0)  -->
<svg version="1.1" id="Layer_2_00000123417165998182870590000007208782453950866588_"
	 xmlns="http://www.w3.org/2000/svg" xmlns:xlink="http://www.w3.org/1999/xlink" x="0px" y="0px" viewBox="0 0 928.5 693"
	 style="enable-background:new 0 0 928.5 693;" xml:space="preserve">
<style type="text/css">
	.st0{fill:none;}
</style>
<path id="Layer_1-2" class="st0" d="M4.7,312.1c18.9,49.5,48.4,94,83.3,133.6c36.4,41.5,79.9,76.6,125,108.2
	c45.8,32.2,95.6,58.3,147.2,80c52.8,22.2,108.5,37.7,165.1,46.5c58,9,117.6,10.9,175.5-0.2c52.1-9.9,103.8-30.3,144.1-65.5
	c38.9-34,65-80.5,74.2-131.2c10.4-57.2,1.8-116.4-17-170.9c-18.4-53.2-46.1-103-78.4-148.9C790.9,117.4,751.8,75.4,709.2,38
	c-13.3-11.7-27-22.9-40.6-34.2"/>
</svg>
