<?xml version="1.0" encoding="UTF-8"?>
<svg id="Layer_2" data-name="Layer 2" xmlns="http://www.w3.org/2000/svg" viewBox="0 0 736.76 767.79">
  <defs>
    <style>
      .cls-1 {
        fill: none;
        stroke: #0a0a0a;
        stroke-miterlimit: 10;
        stroke-width: 10px;
      }
    </style>
  </defs>
  <g id="Layer_1-2" data-name="Layer 1">
    <path class="cls-1" d="M116.42,764.93c-23.95-34.23-53.47-64.76-74.83-100.77-20.77-35.02-31.6-75.03-35.31-115.38-5.25-57.1,5.92-114.81,27.93-167.5,21.17-50.67,51.97-97.63,87.46-139.38,6.03-7.09,12.23-14.05,18.57-20.87,28.72-30.85,60.58-58.74,94.59-83.63,34.73-25.41,72.31-46.74,111.51-64.43,39.7-17.92,80.62-33.26,123.46-41.59,44-8.56,88.63-12.28,133.26-15.7,44.23-3.39,88.9-6.91,133.27-10.7"/>
  </g>
</svg>