<?xml version="1.0" encoding="UTF-8"?>
<svg id="Layer_2" data-name="Layer 2" xmlns="http://www.w3.org/2000/svg" viewBox="0 0 1008.7 908.55">
  <defs>
    <style>
      .cls-1 {
        fill: none;
        stroke: #121212;
        stroke-miterlimit: 10;
        stroke-width: 12px;
      }
    </style>
  </defs>
  <g id="Layer_1-2" data-name="Layer 1">
    <path class="cls-1" d="M535.38,831.82c-17.81,11.27-38.17,18.68-57.7,26.37-40.88,16.1-82.88,29.22-126.22,36.7-43.75,7.56-88.64,10.38-132.77,4.5-40.49-5.39-80.34-17.64-115.19-39.27-34.13-21.19-61.46-50.99-77.31-88.1-16.57-38.8-22.73-81.86-19.23-123.82,3.54-42.49,15.85-83.78,31.97-123.09,16.24-39.59,36.8-77.25,60.15-113.07,23.47-36.02,49.53-70.24,78.38-102.12,28.68-31.68,59.3-61.52,91.81-89.26,32.73-27.94,66.97-53.95,102.84-77.72,36.03-23.87,73.4-45.75,112.2-64.81,38.93-19.13,79.36-35.88,120.89-48.51,42.15-12.82,85.82-22,129.96-23.41,28.91-.93,58.24,1.04,86.36,8.03,36.65,9.12,72.17,27.43,96.33,57.1,24.52,30.11,31.45,69.41,38.86,106.43,8.83,44.06,17.34,88.14,27.01,132.02,2.47,11.2,4.94,22.41,7.41,33.61,4.84,21.96,9.73,44.66,11.3,67.15,2.82,40.3-15.47,78.7-37.49,111.28-23.91,35.38-52.74,65.91-85.09,93.7-8.07,6.94-16.28,13.68-24.34,20.61"/>
  </g>
</svg>