<?xml version="1.0" encoding="UTF-8"?>
<svg id="Layer_2" data-name="Layer 2" xmlns="http://www.w3.org/2000/svg" viewBox="0 0 611.06 245.64">
  <defs>
    <style>
      .cls-1 {
        fill: none;
        stroke: #000;
        stroke-miterlimit: 10;
      }
    </style>
  </defs>
  <g id="Layer_1-2" data-name="Layer 1">
    <path class="cls-1" d="M512.7,15.34c37.87,30.09,75.24,67.88,92.48,114.11,7,18.76,7.28,40.44,.18,59.37-7.06,18.81-21.83,32.9-39.63,41.68-17.94,8.85-38.1,12.8-57.95,14.13-26.79,1.8-54.09-1.49-80.43-6.39-28.97-5.4-57.69-13.18-85.61-22.62-6.88-2.33-13.73-4.77-20.53-7.34-27.71-10.44-54.84-22.62-81.37-35.76-1.21-.6-2.41-1.2-3.61-1.8-18.54-9.27-36.79-19.14-54.68-29.62-23.8-13.95-46.96-28.99-69.33-45.13-16.67-12.02-32.9-24.64-48.65-37.85C45.74,43.18,28.43,27.61,11.64,11.5c-2.15-2.06-4.29-4.14-6.42-6.22C3.75,3.84,1.81,1.81,.35,.35"/>
  </g>
</svg>