<?xml version="1.0" encoding="UTF-8"?>
<svg id="Layer_2" data-name="Layer 2" xmlns="http://www.w3.org/2000/svg" viewBox="0 0 697.77 308.38">
  <defs>
    <style>
      .cls-1 {
        fill: none;
        stroke: #000;
        stroke-miterlimit: 10;
      }
    </style>
  </defs>
  <g id="Layer_1-2" data-name="Layer 1">
    <path class="cls-1" d="M.36,57.63c58.7,60.1,129.91,110.37,203.21,150.97,.4,.2,.8,.4,1.2,.6,47.2,26,96.4,48.4,147.5,65.6,55.6,18.7,113.7,31.1,172.5,32.9,39.3,1.2,80.1-3.3,115.8-20.7,33.8-16.5,53-48,56.2-85.2,.3-3.6,.5-7.2,.5-10.8,.1-51.6-31.6-95.6-65.2-131.8-10.9-11.8-22-23.5-34-34.2-10.9-9.8-25.8-22.5-41-24.5"/>
  </g>
</svg>