<?xml version="1.0" encoding="UTF-8"?>
<svg id="Layer_2" data-name="Layer 2" xmlns="http://www.w3.org/2000/svg" viewBox="0 0 1001.74 901.58">
  <defs>
    <style>
      .cls-1 {
        fill: none;
        stroke: #121212;
        stroke-miterlimit: 10;
        stroke-width: 5px;
      }
    </style>
  </defs>
  <g id="Layer_1-2" data-name="Layer 1">
    <path class="cls-1" d="M533.58,827.37c-17.8,11.3-39.93,19.64-59.43,27.34-40.9,16.1-82.9,29.2-126.2,36.7-43.8,7.6-88.6,10.4-132.8,4.5-40.5-5.4-80.3-17.6-115.2-39.3-34.1-21.2-61.5-51-77.3-88.1C6.05,729.71-.05,686.61,3.45,644.71c3.5-42.5,15.9-83.8,32-123.1,16.2-39.6,36.8-77.2,60.2-113.1,23.5-36,49.5-70.2,78.4-102.1,28.7-31.7,59.3-61.5,91.8-89.3,32.7-27.9,67-53.9,102.8-77.7,36-23.9,73.4-45.8,112.2-64.8,38.8-19.2,79.2-35.9,120.8-48.5,42.2-12.8,85.8-22,130-23.4,28.9-.9,58.2,1,86.4,8,36.7,9.1,72.2,27.4,96.3,57.1,24.5,30.1,31.5,69.4,38.9,106.4,8.8,44.1,17.3,88.1,27,132,2.5,11.2,4.9,22.4,7.4,33.6,4.8,22,9.7,44.7,11.3,67.1,2.8,40.3-15.5,78.7-37.5,111.3-23.9,35.4-52.7,65.9-85.1,93.7-8.1,6.9-16.3,13.7-24.3,20.6"/>
  </g>
</svg>