<?xml version="1.0" encoding="UTF-8"?>
<svg id="Layer_2" data-name="Layer 2" xmlns="http://www.w3.org/2000/svg" viewBox="0 0 900.33 367.7">
  <defs>
    <style>
      .cls-1 {
        fill: none;
        stroke: #000;
        stroke-miterlimit: 10;
      }
    </style>
  </defs>
  <g id="Layer_1-2" data-name="Layer 1">
    <path class="cls-1" d="M899.87,210.29c-18.7,46-53.86,84.84-96.56,110.34-47.3,28.2-102,41.3-156.6,45.3-43.2,3.1-86.7,.4-129.4-6.8-56.1-9.4-110.7-26.4-163.2-48-52.8-21.7-103.7-48.6-150.8-80.9-.7-.5-1.5-1-2.2-1.5-44.4-30.7-85.5-66.4-120.9-107.2-.2-.2-.4-.4-.6-.7-14.9-17.3-28.6-35.5-41.1-54.6C25.31,46.13,13.03,20.66,.43,.26"/>
  </g>
</svg>