<?xml version="1.0" encoding="UTF-8"?>
<svg id="Layer_2" data-name="Layer 2" xmlns="http://www.w3.org/2000/svg" viewBox="0 0 724.73 343.59">
  <defs>
    <style>
      .cls-1 {
        fill: none;
        stroke: #000;
        stroke-miterlimit: 10;
      }
    </style>
  </defs>
  <g id="Layer_1-2" data-name="Layer 1">
    <path class="cls-1" d="M.38,79.71c50.6,60.8,115.8,108.7,183.7,148.5,71,41.5,147.5,76.6,227.7,95.8,41.7,10,84.2,18.1,127.2,19,28.9,.6,58.2-2.2,86.1-10.3,24.3-7,48.5-17.5,66.5-35.8,.2-.2,.4-.4,.5-.5,8.7-9,15.9-19.5,21.2-30.9,11.6-24.6,14-53.9,7.1-80.1-6.1-23-14.8-46.3-27.1-66.7-7.8-13-17-25.2-26.3-37.1-12.4-15.8-26-30.6-40.5-44.5-9.7-9.2-20-17.9-31.2-25.3-.4-.2-.7-.5-1.1-.7-5.6-3.7-12.51-7.66-18.51-10.66"/>
  </g>
</svg>