<?xml version="1.0" encoding="UTF-8"?>
<svg id="Layer_2" data-name="Layer 2" xmlns="http://www.w3.org/2000/svg" viewBox="0 0 788.52 440.18">
  <defs>
    <style>
      .cls-1 {
        fill: none;
        stroke: #000;
        stroke-miterlimit: 10;
      }
    </style>
  </defs>
  <g id="Layer_1-2" data-name="Layer 1">
    <path class="cls-1" d="M.4,145.1c63.6,85.3,148.1,152.8,242.1,201.8,68.6,35.8,141,65.5,217.3,80.1,60.5,11.6,124.5,18.1,185.6,6.8,21.4-4,42.1-11.6,61-22.4,18.9-10.8,36-24.9,49.6-42,16.6-20.8,27.4-46.6,30.8-73.1,3.6-28.4-1.1-57.7-9.9-84.7-6.9-21.2-17-41.2-28.4-60.2-6.6-11.1-14.2-21.5-21.3-32.2-16-23.9-36.1-44.9-56.4-65.2-19.1-19.2-39.2-37.3-60.9-53.6"/>
  </g>
</svg>