<?xml version="1.0" encoding="UTF-8"?>
<svg id="Layer_2" data-name="Layer 2" xmlns="http://www.w3.org/2000/svg" viewBox="0 0 764.38 765.22">
  <defs>
    <style>
      .cls-1 {
        fill: none;
        stroke: #0a0a0a;
        stroke-miterlimit: 10;
        stroke-width: 5px;
      }
    </style>
  </defs>
  <g id="Layer_1-2" data-name="Layer 1">
    <path class="cls-1" d="M122.07,763.79c-24-34.3-61.6-66.1-83-102.1-20.8-35-31.6-75-35.3-115.4-5.2-57.1,5.9-114.8,28-167.5,21.2-50.7,52-97.6,87.5-139.4,6-7.1,12.2-14.1,18.6-20.9,28.7-30.9,60.6-58.7,94.6-83.6,34.7-25.4,72.3-46.7,111.5-64.4,39.7-17.9,80.6-33.3,123.5-41.6,44-8.6,88.6-12.3,133.3-15.7,44.2-3.4,119-6.9,163.4-10.7"/>
  </g>
</svg>