<?xml version="1.0" encoding="UTF-8"?>
<svg id="Layer_2" data-name="Layer 2" xmlns="http://www.w3.org/2000/svg" viewBox="0 0 708.72 325.14">
  <defs>
    <style>
      .cls-1 {
        fill: none;
        stroke: #000;
        stroke-miterlimit: 10;
      }
    </style>
  </defs>
  <g id="Layer_1-2" data-name="Layer 1">
    <path class="cls-1" d="M.38,68.46c27.3,31.1,59.2,57.9,92.5,82.5,35.1,25.9,71.8,49.5,109.6,71.4,91.5,53,196.9,89.7,302.3,100.1,53,5.2,113.8,3.2,158.5-29.6,1.7-1.3,3.4-2.6,5.1-3.9,10.3-8.4,19.6-18.4,26.7-29.7,6.4-10.3,10.1-21.8,11.8-33.8,5.6-40.9-6.7-82.1-29.2-116.2-14.2-21.6-31-41.4-49.1-59.8-17.9-18.2-39.19-36.52-61.59-49.02"/>
  </g>
</svg>