<?xml version="1.0" encoding="UTF-8"?>
<svg id="Layer_2" data-name="Layer 2" xmlns="http://www.w3.org/2000/svg" viewBox="0 0 866.8 763.28">
  <defs>
    <style>
      .cls-1 {
        fill: none;
        stroke: #000;
        stroke-miterlimit: 10;
      }
    </style>
  </defs>
  <g id="Layer_1-2" data-name="Layer 1">
    <path class="cls-1" d="M403.34,713.04c-72.1,37.9-155.17,56.75-236.47,47.35-39.8-4.6-79-20.3-109.4-46.7-24.9-21.6-43.4-50.9-51.3-83.1-20-82,16-164.5,59.1-232.6,42.6-67.4,97-126.9,156.8-179.4,62.2-54.7,131.1-101.4,204.5-139.7C501.87,39.59,584.27,7.79,669.57,1.69c.4,0,.9-.1,1.3-.1,64-4.4,140.9,2.7,184.9,55.7,3.4,4.1,7.89,8.25,10.59,12.95"/>
  </g>
</svg>