<?xml version="1.0" encoding="UTF-8"?>
<svg id="Layer_2" data-name="Layer 2" xmlns="http://www.w3.org/2000/svg" viewBox="0 0 890.3 614.91">
  <defs>
    <style>
      .cls-1 {
        fill: none;
        stroke: #000;
        stroke-miterlimit: 10;
      }
    </style>
  </defs>
  <g id="Layer_1-2" data-name="Layer 1">
    <path class="cls-1" d="M.43,263.29c14.7,24.9,29.93,51.39,47.53,74.49,17.5,23,37.4,44.2,58.2,64.3,20.5,19.9,42.2,38.6,65.2,55.6,23.2,17.2,47.3,33.2,72.3,47.9,25.2,14.8,51.1,28.5,77.6,40.9,26.3,12.3,53.3,23.2,80.9,32.6,27.8,9.5,56.2,17,85,22.7,29.4,5.9,59.1,9.7,89,11.5,29.6,1.8,59.3,1.6,88.8-1.8,28.8-3.4,57.3-10.2,84.3-20.7,24.5-9.5,48.2-22.4,68.3-39.6,20.5-17.4,37.4-39.1,49.7-63,13-25.4,19.8-53.5,21.9-81.9,2.1-29.4-1.1-59-7.8-87.6-6.5-27.9-16.3-55.1-28.9-80.8-12.6-25.6-26.2-50.8-42.4-74.3-16.3-23.7-34.4-46.1-53.5-67.6s-39.8-41.5-61.4-60.5c-13.1-11.5-29.62-24.49-43.52-35.09"/>
  </g>
</svg>