<?xml version="1.0" encoding="UTF-8"?>
<svg id="Layer_2" data-name="Layer 2" xmlns="http://www.w3.org/2000/svg" viewBox="0 0 924.46 688.75">
  <defs>
    <style>
      .cls-1 {
        fill: none;
        stroke: #000;
        stroke-miterlimit: 10;
        stroke-width: 5px;
      }
    </style>
  </defs>
  <g id="Layer_1-2" data-name="Layer 1">
    <path class="cls-1" d="M2.34,307.93c18.9,49.5,49.16,96.57,84.06,136.17,24.5,27.8,50.3,50.1,61.1,59.4,8.1,6.9,30.9,26.3,63.9,48.8,70.3,48.1,133.2,74.1,147.2,80,52.8,22.2,108.5,37.7,165.1,46.5,58,9,117.6,10.9,175.5-.2,52.1-9.9,103.8-30.3,144.1-65.5,38.9-34,65-80.5,74.2-131.2,10.4-57.2,1.8-116.3-17-170.9-18.4-53.2-46.1-103-78.4-148.9-32.7-46.4-71.7-88.4-114.4-125.8-13.3-11.7-28.52-23.08-42.12-34.38"/>
  </g>
</svg>