<?xml version="1.0" encoding="UTF-8"?>
<svg id="Layer_2" data-name="Layer 2" xmlns="http://www.w3.org/2000/svg" viewBox="0 0 924.23 1029.17">
  <defs>
    <style>
      .cls-1 {
        fill: none;
        stroke: #000;
        stroke-miterlimit: 10;
        stroke-width: 10px;
      }
    </style>
  </defs>
  <g id="Layer_2-2" data-name="Layer 2">
    <path class="cls-1" d="M33.92,1027.17c-.04-.1-3.71-8.46-4.03-9.19-1.81-4.1-2.11-4.78-2.12-4.77-.02,0,1.36,3.25,1.36,3.25,0,0-.59-1.38-1.36-3.25-1.74-4.21-2.99-7.48-3.68-9.32-.38-1.01-.66-1.78-.76-2.05-.33-.89-1.24-3.39-2.41-6.86-.76-2.26-1.63-4.93-2.52-7.84-.17-.57-1.78-6.03-2.43-8.44-1.57-5.76-2.96-11.58-4.18-17.47-.77-3.72-1.48-7.47-2.12-11.24-1.06-6.24-1.93-12.54-2.63-18.9,0,0-.68-6.24-1.14-12.69-.21-2.91-.37-5.86-.37-5.86-.01-.24-.07-1.38-.14-2.72-.14-3.11-.25-6.24-.31-9.38-.11-5.4-.1-10.83,.03-16.3,.09-4.01,.25-8.04,.47-12.08,.18-3.33,.4-6.67,.66-10.02,.51-6.49,1.18-13.03,2-19.61,.53-4.26,1.13-8.54,1.79-12.84,1.95-12.67,4.46-25.48,7.51-38.41,1.6-6.78,3.35-13.59,5.24-20.43s3.93-13.71,6.12-20.6c2.09-6.59,4.31-13.2,6.65-19.84,2.81-7.92,5.79-15.88,8.96-23.85,3.62-9.11,7.48-18.25,11.57-27.41,3.02-6.78,6.18-13.57,9.45-20.37,3.33-6.91,6.78-13.83,10.37-20.76,3.26-6.31,6.63-12.63,10.1-18.95,3.65-6.65,7.42-13.31,11.3-19.97,2.64-4.52,5.32-9.04,8.06-13.56,3.39-5.6,6.86-11.19,10.4-16.78,3.86-6.09,7.81-12.17,11.85-18.25,2.37-3.56,4.77-7.12,7.2-10.68,4.41-6.45,8.91-12.9,13.52-19.33,3.04-4.25,6.12-8.49,9.25-12.72,3.72-5.04,7.5-10.07,11.34-15.1,2.48-3.24,4.98-6.48,7.5-9.71,5.04-6.45,10.17-12.88,15.4-19.28,3.68-4.51,7.4-9,11.17-13.49s7.77-9.18,11.73-13.75c5.81-6.71,11.72-13.39,17.74-20.05,4.86-5.37,9.78-10.72,14.76-16.05,4.48-4.79,9-9.55,13.58-14.3,3.38-3.5,6.78-6.99,10.21-10.47,3.42-3.47,6.86-6.92,10.33-10.37,11.83-11.74,23.97-23.35,36.41-34.8,8.36-7.7,16.86-15.34,25.49-22.9,11.39-9.98,23.01-19.83,34.84-29.54,7.93-6.5,15.95-12.94,24.07-19.31,7.93-6.22,15.95-12.38,24.06-18.46s16.74-12.42,25.24-18.52c7.13-5.11,14.33-10.17,21.58-15.17,9.96-6.86,20.02-13.61,30.2-20.25,9.38-6.12,18.86-12.14,28.42-18.05,6.41-3.97,12.86-7.88,19.35-11.76,8.31-4.96,16.68-9.83,25.11-14.63,9.46-5.38,18.99-10.65,28.6-15.82,7.41-3.99,14.87-7.91,22.36-11.77,9.03-4.64,18.11-9.19,27.26-13.64,13.99-6.81,28.12-13.38,42.38-19.71,13.03-5.78,26.17-11.37,39.42-16.73,11.38-4.61,22.83-9.06,34.36-13.35,11.46-4.27,23-8.37,34.6-12.31,8.47-2.87,16.98-5.66,25.53-8.35,4.07-1.28,8.15-2.54,12.23-3.78,1.65-.5,3.29-1,4.94-1.49,3.06-.92,6.13-1.82,9.2-2.71,11.47-3.33,22.99-6.49,34.57-9.48,10.48-2.7,21-5.26,31.55-7.68"/>
  </g>
</svg>