<?xml version="1.0" encoding="UTF-8"?>
<svg id="Layer_2" data-name="Layer 2" xmlns="http://www.w3.org/2000/svg" viewBox="0 0 678.27 279.5">
  <defs>
    <style>
      .cls-1 {
        fill: none;
        stroke: #000;
        stroke-miterlimit: 10;
        stroke-width: 15px;
      }
    </style>
  </defs>
  <g id="Layer_1-2" data-name="Layer 1">
    <path class="cls-1" d="M549.88,6.26c9.85,6.52,19.29,13.6,28.41,21.1,36.88,30.34,72.66,67.12,87.45,113.66,1.97,6.21,3.96,12.49,4.41,19.02,.52,7.38,.73,14.96,.55,22.36-.27,11.14-2,24.19-7.72,33.92-3.72,6.32-9.43,12.45-14.36,17.95-11.29,12.6-27.45,19.31-42.76,25.65-28.6,11.85-59.84,12.16-90.31,12.08-19.91-.05-39.84-1.24-59.48-4.63-13.03-2.25-22.52-4.38-32.54-6.62-12.76-2.85-25.45-6-38.08-9.38-8.27-2.21-20.47-5.49-36.41-10.48-41.68-13.06-82.1-29.82-121.01-49.64-12.34-6.29-24.54-12.85-36.61-19.63-12.37-6.95-24.59-14.16-36.68-21.59-13.65-8.39-27.1-17.09-40.38-26.06-1.47-.99-2.94-1.99-4.41-2.99-11.66-7.9-23.31-15.82-34.57-24.28-16.63-12.48-33.16-25.7-49.06-39.09-7.29-6.14-14.79-13.65-20.09-21.6"/>
  </g>
</svg>