<?xml version="1.0" encoding="UTF-8"?>
<svg id="Layer_2" data-name="Layer 2" xmlns="http://www.w3.org/2000/svg" viewBox="0 0 1255.83 494.85">
  <g id="svg9">
    <g id="g15">
      <path d="M939.51,21.52c-3.68-1.11-6.34-1.33-8.17-.95-12.87,2.65,14.19,34.9,8.17,.95Z"/>
      <path d="M829.44,53.9c.06,.09,.12,.17,.17,.27,.03,.06-.14,.04-.21,.07-.02,.01-.05,.01-.07,.02,0,.01,0,.01,0,.02-1.22,.57-2.44,1.14-3.66,1.71,.64-.25,1.29-.45,1.92-.72,.93-.37,1.82-.85,2.71-1.32,1.06-.53,2.23-.69,3.4-.8,.21-.02,.42-.03,.63-.05,.16-.01,.32-.01,.46,0,.84,.05,1.35,.44,1.52,.9,5.42-1.66,5.28-1.32-.11,.92-.26,.41-.81,.74-1.67,.8-.16,.01-.32,.02-.48,.03-4.2,1.7-7.43,3.06-19.73,7.71-22.19,8.54-47.21,18.5-69.94,27.9-.46,.37-.9,.75-1.44,1-.53,.23-1.08,.39-1.63,.56-.66,.21-1.34,.4-2.03,.47-24.49,10.2-45.51,19.58-55.7,25.57,16.31-7.19-3.71,2-15.7,7.55-1.03,.92-2.09,1.39-3.08,1.48-28.48,13.36-69.97,33.72-83.02,46.84,16.76-21.7-87.26,51.95-113.19,74.51-44.17,39.03-86.7,77.57-117.48,128.28-17.07,20.77-27.19,47.13-28.17,70.56,6.46,15-6.07,13.21,11.49,27.44-2.14-5.25,1.36,3.78,9.65,10.78-.5-.53-.95-1.28-.97-2.64,5.34,1.99,3.11,4.05,1.36,3,5.38,4.41,12.7,7.88,21.86,6.18,17.76-.9,34.27,4.23,60.39-3.52,1.66,1.93,9.5,5.64,15.01,5.4-1.03-1.2-2.1-2.37-3.37-3.32-1.63-1.22-2.12-2.6-1.87-3.64-1.59-2.05-3.1-4.17-4.79-6.15-.13,.05-.19,.14-.34,.17-3.71,.96-7.47,1.66-11.26,2.25-1.64,.26-4.62,.74-6.29,.98-.7,.1-1.39,.19-2.09,.28-.8,.11-1.46,.23-2.25,.26-.19,.01-.39-.02-.58-.03-1.18-.06-1.91-.41-2.26-.88-1.88,.56-3.56,1.3-5.75,1.6-1.84,.64-3.98,1.28-5.82,1.27-.52,0-1.04-.1-1.56-.15-.1-.12-.21-.23-.32-.34-15.55,.78-30.71-1.36-28.22-2.19-.25-.07-.5-.14-.75-.22-1.66-.58-3.32-1.16-4.96-1.8,0,0,0,0,0,0-1.21-.47-2.4-.97-3.57-1.54-1.78-.99-3.61-1.91-5.34-3-1.13-.72-1.77-1.2-2.86-1.98-2.27-1.72-4.57-3.42-6.68-5.33-1.47-1.33-2.49-2.96-3.29-4.75-.89-1.97-.57-3.49,.26-4.26-4.73-9.23-5.53-18.73-2.34-29.2,3.72-3.48,2.81-10.98,6.26-13.62,.03-.12,.05-.24,.08-.37,.33-1.78,.65-3.57,1.23-5.3,.15-.39,.31-.78,.47-1.16-.34-.11-.6-.15-.96-.27,8.05-19.2,19.66-37.41,32.83-53.53,.2,.28,.32,.53,.52,.81,.1-.17,.2-.34,.31-.51,.55-.97,1.29-1.8,2.06-2.6-.02-.04-.01-.04-.03-.08,.01,.02,.03,.06,.04,.07,0,0,0,0,0-.01,.92-1,2.07-1.71,3.22-2.42,.33-.22,.67-.41,1.02-.59,.43-5.75,3.3-9.55,10-10.11,6.52-13.99,45.07-44.07,31.96-35.95,52.4-55.52-35.26,22.99,17.98-30.51,18.53-.29-2.24-9.6,24.68-19.29-8.17,6.15-20.51,25.94,3.07-1.07,1.15-.36,1.83-.73,3.13-1.09-54.62,56.51,25.28-14.51,27.2-15.49,16.13-8.43,31.28-24.07,49.46-32.93,2.11-4.35,3.89-8.2,5.51-11.4h0c-12.87,7.93-12.59,6.32,1.65-2.66-.55,.95-1.07,1.51-1.65,2.66,2.68-1.65,7.48-5.01,11.18-7.45-.2-.13-.44-.4-.64-.51,4.43-2.66,7.26-4.53,13.41-8-5.48,3.86-8.55,5.72-12.77,8.51,.77,.49,1.6,1.25,2.41,1.92,2.26-1.04,4.54-2.01,6.81-3,3.16-1.41,1.63-.71,4.59-2.09,.88-.41,1.68-.57,2.36-.56,.2,0,.38,.04,.56,.06,1.78-1.41,3.53-2.87,5.26-4.34,1.12-.94,2.19-1.3,3.06-1.26,.41,.02,.78,.13,1.08,.31,1.03-.78,.15-.43,3.53-2.5,15.57-18.56,31.13-4.66,33.61-22.39,20.93-8.34,81.03-40.58,61.74-31.77,19.48-11.89,39.85-18.24,58.14-27.94,.86,.5,1.94,.57,2.95,.76,.08-.06,.51-.34,.46-.31,0,0,.25-.16,.28-.18-.22-.65-.1-1.41,.44-2.11-.52-.61-.48-1.43,.99-1.87,.95-.28,1.94-.41,2.9-.64,.09-.03,.17-.06,.25-.08,.12-.07,.24-.15,.36-.23,1.05-.57,2.13-1.09,3.22-1.58,1.25-.57,2.57-.99,3.87-1.43,.49-.18,1.04-.34,1.53-.59,.36-1.05,1.11-1.81,2.32-1.87,.01,0,.01,.02,.02,.02,.33-.13,.65-.19,.96-.19,.85,.01,1.58,.48,2,1.2,.17,.1,.3,.04,.48,.16,14.98-10.75,59.09-24.8,36.27-16.25,6.86-2.14,13.98-3.17,21.08-4.27-1.33-2.21,.18-4.93,3.87-4.93,.57,0,1.2,.07,1.87,.21,.92,.19,1.83,.37,2.74,.6,.84-.52,1.72-.97,2.62-1.39,2.09-.91,4.16-1.86,6.3-2.62,1.85-.6,3.65-1.33,5.5-1.92,.85-.25,1.68-.58,2.51-.88,.76-.28,1.45-.4,2.04-.39,.59,.01,1.1,.14,1.5,.36,16.46-4.09,40-11.7,45.21-15.34-2.15-3.39-6.02-4.89-11.1-5.03h0c-15.23-.43-41.26,11.27-63.8,20.21ZM396.37,326.37c-1.61,2.04-1.43,1.46-2.72,3.02-4.25,3.8-6.44,6.48-6.06,6.75-9.84,9.5,10.62-23.5,31.45-35.18-29.44,43.77,14.43-19.81-22.67,25.41Zm98.89-87.11c-38.64,34.4-7.19-10.26,9.58-13.12-62.18,53.06,19.31-12.48-9.58,13.12Zm66.94-52.66c1.14-.49,2.48,.23,3.8,.92-2.93,1.76-6.68,3.91-8.88,5.3,1.44-2.5,2.87-4.71,4.31-5.66-34.31,25.44-81.86,58.25-14.34,6.6,11.25-4.12,18.96-18.35,31.53-19.08-4.29,3.39-10.61,7.6-16.43,11.92Z"/>
      <path d="M419.58,436.03c33.21,49.36-14.97-30.64-25.47-45.17-5.87-12.43-10.65-24.39-11.53-33.27h0c-.61,.38-1.2,.79-1.69,1.33-.28,.29-.56,.58-.82,.89,2.9,6.14,4.4,13.83-.4,.51-.13,.19-.26,.39-.37,.59-.42,.67-.81,1.35-1.22,2.02,2.17,3.24,4.41,6.51,6.17,9.59-.31-.61-.62-1.47-.74-2.94,2.94,2.51,2.02,4.51,1.03,3.39,5.07,8.92,7.76,16.73,8.64,23.44,.81,1.2,1.59,2.41,2.37,3.62,1.91,2.97,.95,1.51,2.88,4.37,.92,1.36,.63,2.25,.02,2.81,.85,1.41,1.65,2.85,2.45,4.28,1.64,2.99,.86,1.53,2.35,4.36,.68,1.29,.57,2.34,.08,2.94,.03,.01,.05,.03,.08,.04,.18-.74,.7-1.19,1.31-1.25,.82-.08,1.81,.52,2.38,2.02,0,.02,.02,.04,.02,.06,1.47,.55,2.1,1.64,1.48,2.48,1.36,.66,1.31,1.67,.62,2.41,.56,1.19,1.11,2.38,1.67,3.56,.43,.77,.76,1.59,1.08,2.42,1.06,1.04,2.15,1.94,3.14,3.31,20.18,32.28-25.81-44.64,4.45,2.19Z"/>
      <path d="M345.61,418.52c1.84,.17,4.06,.74,7.24,2.33,7.16,1.75,14.42,1.35,21.61,.77-2.52-.2-5.03-.57-7.48-1.23-.13-.04-.27-.08-.4-.12-.8-.12-1.59-.24-2.39-.37-.01,.6-1.97,1.82-2.34,.15,.9-.29,1.14-.23,1.57-.27-3.3-.51-6.58-1.08-9.85-1.75-.82,.44-1.9,.72-2.46-.29,.29-.09,.27-.03,.52-.09-.04-.02-.03-.05-.07-.07-2.12-.66-2.43-2.4-1.32-3.21-1.02-.26-2.14-.63-3.17-.9-.21,.49-.42,.98-.61,1.47-.37,1.16-.62,2.36-.85,3.56Z"/>
      <path d="M953.59,18.5c-6.28,1.52-5.2,2.67,.09,.97,.9,.99,4.94,1.31,13.97-.11-44.91,15.09,53.62-.07,36.69,2.67,45.55-1.93,89.28-6.7,133.4-3.23,29.02-.12,39.53,8.67,64.34,12.09,51.89,35.39,13.81-7.46,40.01,22.17,4.73,3.34,9.3,7.44,13.74,11.89-.11-.89-.21-1.79-.2-2.56,0-.09,.16-.14,.15-.22-.02-.17-.07-.34-.1-.52-2.5-2.39-3.04-2.48-7.99-7.81,1.54-.85,4.33,1.36,7.21,4.12-.25-1.08-.49-2.17-.59-3.28-.58-3.58-1.04-7.19-1.93-10.71-1.49,1.22-15.99-3.99-19.28-11.29,14.2,6.37,18.88,9.62,19.18,10.85-.06-.24-.11-.48-.18-.72-.31-1.04-.63-2.09-1.02-3.11C1202.92,9.17,1147.32-.83,1091.24,.05h0c-34.46,.54-69.1,5.09-102.19,11.27-19.38,.09-33.39,4.56-35.47,7.18Zm200.87-7.55c2.19-.49,3.39-.6,3.94-.52,1.63,.23-2.66,2.18-3.94,.52Zm8,1.33c2.2-.49,3.4-.6,3.95-.52,1.64,.24-2.67,2.18-3.95,.52Zm-13.03-6.52c59.58,13.03,61.59,16.77,38.68,11.35,.79,1.18-2.92,2.51-4.67-1.05,.2,0,.18,.05,.36,.06-2.49-.63-6.5-2.02-9.39-2.83,.45,.48-2.8,1.82-3.94,.33,1.95-.44,2.89-.49,3.51-.46-7.59-2.14-14.83-4.07-24.54-7.39h0Zm.96,3.31c1.35,.24-2.29,2.33-3.29,.58,1.84-.54,2.84-.66,3.29-.58Zm-5.99,8.11c.96,.33-2.11,2.37-2.55,.45,1.46-.48,2.23-.56,2.55-.45Zm-7.31-9.47c3.6,.18-5.79,1.96-8.65,.53,4.81-.46,7.45-.59,8.65-.53Zm-18.67-1.34c2.48,.2-4.03,2.08-5.98,.56,3.33-.5,5.15-.62,5.98-.56Zm-57.34,1.38c1.64,.24-2.67,2.18-3.95,.52,2.2-.49,3.4-.6,3.95-.52Zm-14.66,1.28c2.48,.2-4.03,2.09-5.98,.56,3.33-.5,5.15-.62,5.98-.56Zm-24.68,2.81c.96,.33-2.12,2.37-2.55,.45,1.46-.48,2.23-.56,2.55-.45Zm-10.02,1.22c1.34,.24-2.28,2.33-3.28,.58,1.83-.54,2.83-.66,3.28-.58Zm-8,1.33c1.34,.24-2.28,2.34-3.28,.59,1.83-.54,2.83-.67,3.28-.59Zm-9.33,1.34c1.35,.24-2.29,2.33-3.29,.58,1.84-.54,2.84-.66,3.29-.58Z"/>
      <path d="M759.84,81.43s-.08,.04-.13,.06c.05-.02,.09-.03,.14-.05,0-.01-.01-.01-.01-.02h0Z"/>
      <path d="M736.15,93.08c-.18,.13,.16,.01,.16,.06-.05-.02-.11-.04-.16-.06Z"/>
      <path id="path5013" d="M761.87,86.19c-.19,.01-.42,.14-.72,.44l.93,1.42c.28-.12,.56-.23,.84-.33-.01-.01-.01-.03-.02-.04-.34-.77-.54-1.53-1.03-1.49h0Z"/>
      <path id="path5017" d="M761.85,85.24c0,.68,.45,1.56,1.08,2.48,.15-.06,.31-.12,.46-.17l-1.54-2.31Z"/>
      <path id="path5019" d="M763.08,86.46l.65,.97s.04-.02,.07-.02c-.24-.31-.47-.63-.72-.95h0Z"/>
      <path id="path5021" d="M763.93,84.18s.02,.26,.02,.36l.62,1.91c-.01-.8,0-1.64-.62-2.26-.01-.01-.02-.02-.02-.01h0Zm.64,2.27c0,.24,.01,.47,.03,.69,.06-.02,.12-.04,.18-.06l-.2-.63Z"/>
      <path id="path5023" d="M764.11,85.23c-.07-.02,.15,.24,.19,.36,.24,.63,.4,1.08,.54,1.46,.21-.07,.42-.14,.63-.22-.38-.71-.81-1.33-1.35-1.6-.01,0-.01-.01-.02-.01h0Z"/>
      <path id="path5027" d="M764.12,86.11l-.87,.88c.11,.22,.18,.35,.26,.52,.48-.17,.96-.34,1.45-.5-.24-.29-.52-.59-.83-.9h0Z"/>
      <path id="path5029" d="M763.65,84.86s-.05,.07-.05,.21l-1.05,.18c.77,.58,1.51,1.19,2.2,1.84,.05-.02,.09-.03,.13-.05-.14-.25-.27-.5-.41-.75-.31-.55-.69-1.48-.83-1.43h0Z"/>
      <path id="path5035" d="M762.9,86.46c.18,.36,.38,.71,.59,1.05,.12-.04,.24-.08,.37-.13-.34-.3-.67-.6-.96-.92h0Z"/>
      <path id="path5116" d="M898.45,39.77c.41,0,.86,.18,1.22,0,.52-.26,.8-.84,1.22-1.22,2.4-2.17,3.32-3.09,6.82-4.02,3.55-.95,9.79-1.13,13.29-1.05,2.57,.06,5.12,.55,7.7,.52,8.24-.09,11.07-1.28,19.41-4.37,1.76-.65,2.84-1.71,4.37-2.62,.67-.4,1.46-.6,2.1-1.05,.56-.39,1.1-.87,.35-.87"/>
      <path id="path5118" d="M894.07,38.37c.78,0,2.13,.04,2.8-.17,4.59-1.45,7.08-3.18,11.72-5.07,3.11-1.27,6.25-2.45,9.44-3.5,8.82-2.89,17.93-4.82,26.76-7.7,2.4-.78,4.8-1.59,7.17-2.45,1.05-.38,.6-.35,.35-.35"/>
      <path id="path5120" d="M899.5,35.22c.82-.11,1.49-.66,2.27-.87,2.58-.7,5.27-.94,7.87-1.57,5.21-1.27,10.4-2.6,15.57-4.02,18.03-4.95,5.84-2.42,28.68-8.22,2.55-1.11,5.4-.74,8.05-1.4,.23-.06-.47-.03-.7,0-1.9,.27-1.53,.24-3.15,1.05"/>
      <path id="path5122" d="M915.24,34.34c-.82,.35-1.57,.52-2.45,.52-.06,0-.23,0-.17,0,4.97,0-7.97,.11,10.14-3.85,11.2-2.45,22.65-3.54,33.93-5.6,.32-.06,11.61-1.9,13.47-4.37,.35-.47-1.17-.23-1.75-.17-.71,.07-1.4,.23-2.1,.35"/>
      <path id="path5124" d="M892.33,36.27c4.49-1.44,8.86-2.93,13.47-4.02,2.96-.7,5.96-1.24,8.92-1.92,8.28-1.92,15.63-3.82,23.79-6.47,2.84-.92,5.6-2.1,8.4-3.15,5.47-2.05,2.45-1.17,5.95-1.92,.88-.19,.91-.17,.52-.17"/>
      <path id="path5126" d="M890.4,34.87c3.81-.29,7.32-1.55,11.02-2.45,3.83-.93,7.69-1.76,11.54-2.62,7.46-1.67,19.04-4.35,26.76-5.6,3.71-.6,7.46-.97,11.19-1.4,4.83-.56,9.69-.93,14.52-1.57,1.3-.17,2.57-.57,3.85-.87,.41-.1,.86-.14,1.22-.35,.1-.06,.12-.34,0-.35-.47-.06-.94,.08-1.4,.17-1.52,.31-3.03,.7-4.55,1.05"/>
      <path id="path5128" d="M904.57,37.14c-.23,.06-.47,.12-.7,.17,2.68-1.28,5.21-2.95,8.05-3.85,6.36-2.03,12.88-3.54,19.41-4.9,2.14-.45,22.42-3.27,26.23-4.02,3.13-.61,11.4-2.24,14.87-4.55,.1-.06-.23-.02-.35,0-.53,.09-1.28,.37-1.75,.52"/>
      <path id="path5130" d="M885.85,35.04c2.46,0,1.59,.08,5.95-1.4,1.78-.6,3.46-1.5,5.25-2.1,12.94-4.31,21.4-6.38,35.5-9.44,7.65-1.67,15.56-2.29,23.09-4.55"/>
      <path id="path5132" d="M897.4,33.82c1.05-.35,2.13-.62,3.15-1.05,10.11-4.27,1.63-2.97,20.46-7,8.11-1.73,18.43-1.89,26.76-2.45,4.36-.29,9.91-.61,14.34-1.57,4.91-1.07,1.99-.87,.7-.87"/>
      <path id="path5134" d="M888.65,39.59c4.95-3.1,1.94-1.61,10.49-3.67,3.73-.9,7.47-1.7,11.19-2.62,11.65-2.89,8.52-2.41,19.06-4.9,2.04-.48,12.54-2.73,14.52-3.15,6.93-1.46,13.74-2.79,20.29-5.6,.05-.02-.12-.02-.17,0-.47,.16-.93,.35-1.4,.52"/>
      <path id="path5136" d="M909.12,38.02c-1.43,.74-3.33,1.38-4.37-.17-.12-.17-.35-.31-.35-.52,0-1.94,2.61-2.49,3.85-2.97,1.34-.53,2.63-1.19,4.02-1.57,2.24-.61,4.54-1,6.82-1.4,12.97-2.28,21.67-3.35,33.76-5.95,3.09-.66,8.24-1.76,11.37-3.32,.05-.03-.12-.01-.17,0-.81,.16-.58,.1-1.22,.52"/>
      <path id="path5138" d="M881.48,33.99c4.46,.27,8.7-1.51,12.94-2.62,14.53-3.82,2.07-.09,27.11-5.77,5.93-1.35,11.81-2.89,17.66-4.55,3.83-1.08,7.58-2.44,11.37-3.67,.7-.23,1.42-.42,2.1-.7,.12-.05-.22-.17-.35-.17"/>
      <path id="path5140" d="M896.17,32.59c.76-.17,1.53-.28,2.27-.52,10.17-3.31,1.74-2.38,20.46-5.07,4.05-.58,8.16-.51,12.24-.7,9.65-.45,19.25-.22,28.86-1.4,1.36-.17,9.33-1.58,11.19-1.92,.88-.16,1.75-.37,2.62-.52,.35-.06,.75,.13-.17-.17"/>
      <path id="path5142" d="M880.96,36.62s-.1,.94,.17,1.05c1.74,.69,3.21,.23,5.07-.17,4.97-1.09,9.87-2.5,14.87-3.5,6.38-1.28,12.83-2.2,19.24-3.32,3.91-.68,7.85-1.21,11.72-2.1,4.48-1.03,8.86-2.47,13.29-3.67,1.16-.31,2.35-.52,3.5-.87,.2-.06,.52-.14,.52-.35,0-.35-.7,0-1.05,0"/>
      <path id="path5144" d="M886.55,39.24c.35-.06,.71-.08,1.05-.17,3.91-1.02,7.79-2.2,11.72-3.15,6.17-1.49,12.67-2.54,18.89-3.85,1.76-.37,7.04-1.36,5.25-1.22-13.08,1.01-26.11,2.6-39.18,3.85-.88,.08,1.75-.25,2.62-.35,1.69-.19,3.39-.31,5.07-.52,15.3-1.96,8.73-1.45,29.03-4.9,8.94-1.52,8.13-.66,16.62-2.97,2.54-.69,5.02-1.6,7.52-2.45,1.29-.44,2.53-1.06,3.85-1.4,1.2-.31,2.44-.41,3.67-.52,.73-.07,2.82,.13,2.97-.17,.11-.21-.47-.12-.7-.17"/>
      <path id="path5146" d="M884.98,37.84c.76-.29,1.5-.63,2.27-.87,2.38-.75,4.79-1.36,7.17-2.1,3.22-1.01,6.36-2.26,9.62-3.15,5.55-1.51,16.26-3.6,22.21-4.9,16.52-3.61,8.42-1.91,25.01-5.95,6.93-1.69,6.61-1.57,12.77-2.8,3.68-.74,1.02-.17,.17-.17"/>
      <path id="path5148" d="M917.16,30.67c.87-.35,1.72-.77,2.62-1.05,5.33-1.64,9.32-2.35,14.87-3.67,4.55-1.08,9.09-2.24,13.64-3.32,.61-.14,7.03-1.59,8.22-1.75,1.1-.15,2.22,0,3.32,0"/>
      <path id="path5150" d="M919.43,27.52c.41-.06,.82-.09,1.22-.17,6.07-1.31,12.11-2.77,18.19-4.02,11.8-2.42,5.57-.59,14.69-2.8,1.76-.43,3.48-1,5.25-1.4,7.87-1.78,3.31-.64,6.82-1.22,.06-.01-.12-.01-.17,0-.9,.15-.65,.06-1.22,.35"/>
      <path id="path5152" d="M926.78,26.3c.29,.06,.58,.23,.87,.17,2.36-.47,4.66-1.17,7-1.75,5.51-1.38,11.04-2.91,16.62-4.02,2.54-.51,5.26-.08,7.7-1.05"/>
      <path id="path5154" d="M916.81,26.82c4.67-.21,9.39-.8,13.99-1.57,6.32-1.07,12.12-2.76,18.54-3.67,2.66-.38,5.36-.39,8.05-.52,3.2-.16,6.42-.12,9.62-.35,2.74-.55,3.52-.52,2.27-.52"/>
      <path id="path5156" d="M926.78,26.82c.41,.06,.82,.25,1.22,.17,2.3-.4,4.55-1.05,6.82-1.57,6.35-1.46,12.71-2.93,19.06-4.37,1.34-.3,2.67-.67,4.02-.87,1.74-.26,3.5-.35,5.25-.52,5.22-.53,3.37-.52,5.25-.52"/>
      <path id="path5158" d="M936.92,25.42c1.69,.06,3.38,.24,5.07,.17,2.57-.11,5.13-.42,7.7-.7,3.39-.37,9.75-1.03,13.47-2.1,4.33-1.25,2.98-1.75,6.82-2.1,2.06-.19,3.95-.17,5.95-.17,.06,0-.12-.01-.17,0-.18,.05-.35,.12-.52,.17"/>
      <path id="path5160" d="M873.79,36.97c.23,0,.47,.05,.7,0,1.1-.24,2.05-.96,3.15-1.22,1.9-.45,3.85-.7,5.77-1.05,5.74-1.04,7.64-1.15,13.12-2.97,1.42-.47,3.25-1.82,4.9-1.92,4.78-.29,7.38,0,11.72,0"/>
      <path id="path5162" d="M890.75,35.57c4.29,1.93-3.5,.14-3.5,1.4,0,.13,.23-.13,.35-.17,.69-.25,1.4-.47,2.1-.7,3.61-1.17,7.2-2.43,10.84-3.5,6.12-1.79,12.55-3.23,18.89-4.02,.06-.01-.12-.02-.17,0-.3,.1-.58,.23-.87,.35"/>
      <path id="path5164" d="M892.67,34.17c.58,0,1.18,.14,1.75,0,12.54-3.14-6.64-.17,13.29-3.32,4.06-.64,8.17-1.02,12.24-1.57,2.39-.32,4.78-.72,7.17-1.05,2.74-.37,5.5-.58,8.22-1.05,3.99-.69,8-1.36,11.89-2.45,5.72-1.61,1.28-1.57,2.62-1.57,.35-.52,.52-1.24,1.05-1.57,.45-.29,3.8-.76,4.37-.87,3.48-.7,1.05-.33,4.37-1.05,.64-.14,1.3-.17,1.92-.35,.38-.11,.68-.4,1.05-.52,.9-.3,2.11-.14,2.97-.17,2.09-.09,1.67-.02,2.97-.35"/>
      <path id="path5166" d="M925.73,28.57c5.91-1.75,11.86-3.38,17.84-4.9,1.45-.37,2.88-.87,4.37-1.05,3.31-.4,6.64-.54,9.97-.7,2.33-.11,4.67,.12,7,0,.53-.03,.92-.35,1.4-.35"/>
      <path id="path5278" d="M377.71,354.45c.11,.45,.32,1.25,.37,1.61,.02,.13,.03,.27,.05,.41,.03-.04,.07-.07,.1-.11,.07-.07,.14-.14,.21-.21l-.73-1.69Zm2.35,5.4c-.28,.33-.53,.69-.75,1.08-.1,.16-.19,.32-.29,.48,.05,.11,.11,.23,.17,.34,1.14,2.08,2.52,4.01,3.71,6.06,1.12,1.92,2.16,3.87,3.16,5.83l-6-13.79Z"/>
      <path id="path5280" d="M378.82,352.96c.26,.77,.42,1.55,.57,2.34,.06-.05,.12-.09,.19-.14l-.75-2.21Zm2.04,6c-.17,.17-.33,.35-.49,.53,.22,.63,.46,1.25,.67,1.88,.84,2.53,1.57,6.25,3.46,8.29l-3.64-10.69Z"/>
      <path id="path5282" d="M379.69,349.38l.18,.72c.04-.3,.13-.11-.18-.72Zm.18,.72c-.03,.23-.03,.73,.2,2.12,.12,.76,.33,1.51,.51,2.26,.1-.07,.21-.13,.31-.2l-1.02-4.19Zm1.95,8.01c-.13,.09-.25,.19-.37,.3,.38,1.33,.82,2.63,1.21,3.95,.27,.92,.66,2.49,.87,3.46,.09,.45,.1,.92,.25,1.36,.47,1.42,.53,1.31,.52,1.06l-2.47-10.13Z"/>
      <path id="path5284" d="M376.84,345.05l2.43,10.34c.08-.06,.17-.13,.25-.19-.9-3.38-1.84-6.76-2.68-10.15Zm3.78,14.18c-.12,.13-.24,.25-.35,.38l1.03,4.36c0-.37,.03-.74,0-1.11-.11-1.22-.37-2.43-.68-3.63Z"/>
      <path id="path5286" d="M378.2,345.91c0,1.25,.05-.92-.25,.99-.06,.4-.09,2.45,0,2.84,.24,1.07,1.28,4.07,1.61,5.07,.03,.1,.06,.19,.09,.29,.41-.3,.84-.58,1.28-.85l-2.73-8.35Zm3.92,11.98c-.41,.28-.8,.59-1.14,.95,.98,2.23,2.18,4.33,3.53,6.36l-2.39-7.31Z"/>
      <path id="path5288" d="M334.4,415.09c1.96,2.69,3.48,.7,5.6,1.4,.95,.32,1.57,.56,2.08,.76,.11-.58,.23-1.16,.37-1.73l-8.04-.44Z"/>
      <path id="path5292" d="M349.1,485.65c-.83,0-1.5,.67-1.5,1.5s.67,1.5,1.5,1.5,1.5-.67,1.5-1.5-.67-1.5-1.5-1.5Z"/>
      <path id="path5294" d="M0,494.85l250.1-45.82"/>
    </g>
  </g>
</svg>