<?xml version="1.0" encoding="UTF-8"?>
<svg id="Layer_2" data-name="Layer 2" xmlns="http://www.w3.org/2000/svg" viewBox="0 0 153.75 285.94">
  <g id="svg9">
    <g id="g15">
      <path id="path3886" d="M11.67,.46c-.87,.33-1.75,.66-2.64,.93-1.8,.57-3.54,1.28-5.34,1.86-1.25,.44-2.47,.96-3.69,1.49,.12-.01,.24-.02,.36-.01,6.51,.73,12.33,4.02,16.06,7.97,1.03,.58,2.06,1.16,3.09,1.75,4.8,2.73,3.91,7.05,.45,7.48-.79,2.61-3.08,5.13-7.45,7.22,8.78,19.9,9.32-19.73,17.81-6.79,11.08,1.35,19.22,19.81,33.08,24.14,9.33,14.39,16.39,20.45,26.16,31.94,24.09,20.49,27.64,58.55,38.75,80.42,10.33,28.08,10.5,58.85,11.75,87.7-.32,9.38-1.01,21.52-2.66,31.56,.15,.11,.3,.21,.46,.33,.41,.31,.81,.62,1.21,.93,1.68,1.36,3.36,2.73,5.06,4.06,.69-3.38,1.62-7.41,3.69-13.86-.42,6.53-1.28,11.51-2.16,15.07,.53,.42,1.06,.84,1.59,1.27,4.28-21.61,9.05-35.97,4.97-57.45-4.5-36.55-11.24-73.6-28.01-107.11-.45-22.16-21.13-25.89-22.24-39.53-1.39-1-2.77-2.84-4.17-4.12-.95-1.54-2.66-3.65-6.05-6.16,.26,.39,.34,.41,.58,.77-13.82-15.39-26.19-37.69-26.18-30.43-5.14-4.45-3.9-3.52-3.2-3.02-.17,0-.36-.05-.57-.17-.3-.17-.59-.34-.88-.52-.01-.01-.01,0-.02,0-.18-.1-.09-.05-.28-.15-.15-.07-.3-.15-.46-.18-.72-.13-.91-.62-.67-.94-.09-.08-.19-.16-.28-.23-.14-.1-.27-.22-.4-.34-.09-.08-.17-.17-.25-.25-.28-.28-.37-.56-.34-.78-.08-.06-.16-.13-.23-.21-.01-.01-.01-.01-.02-.03-.04-.04-.07-.06-.06-.05-.07-.04-.16-.11-.23-.17-.09-.07-.18-.15-.26-.23-.05-.05-.09-.1-.13-.15-.94-.3-5.12-2.86-19.69-13.2C13.55,8.8,21.98,9.56,11.67,.46h0Z"/>
      <path id="path4511" d="M12.7,0c-.26,.14-.55,.28-.86,.4l14.25,12.41c-2.18-2.48-4.08-5.26-6.52-7.49-1.47-1.35-3.1-2.52-4.72-3.67-1.12-.8-1.73-1.31-2.15-1.64h0Zm13.39,12.81c1.42,1.61,2.96,3.1,4.85,4.22l-4.85-4.22Z"/>
    </g>
  </g>
</svg>