<?xml version="1.0" encoding="UTF-8"?>
<svg id="Layer_2" data-name="Layer 2" xmlns="http://www.w3.org/2000/svg" viewBox="0 0 81.75 73.93">
  <g id="svg9">
    <g id="g15">
      <path id="path3886" d="M65.32,0c-.08,.06-.15,.11-.23,.17-.28,.2-.57,.4-.85,.61-.99,.34-1.46,1.58-2,2.5,11.38,14.99,14.27,27.33,12.77,37.42,.38,.3,.73,.79,.96,1.49,.37,1.11,.58,2.25,.68,3.42,.13,.94,.22,1.9,.57,2.79,1.52-.68,2.63-.63,1.94,2.61-.98,4.63-.06,2.87-2.01,5.62-.06,.06-.12,.11-.18,.17-.14,.49-.28,.97-.43,1.46-.25,.8-.43,1.62-.68,2.42-.05,.13-.1,.27-.15,.4-.19,.51-.43,.9-.7,1.19-.07,.25-.02,.52-.12,.76-.59,1.4-1.48,1.86-2.17,1.64-.98,1.45-2.45,2.55-4.58,3.03-1.99,.44-3.96,1.02-6.01,1.04-1.84,.02-3.68,.05-5.53,.14-1.43,.09-2.86,.2-4.28,.4-3.96,.55-6.88-.28-8.67-1.76-7.97,.7-16.57-.04-25.19-3.03,19.14,6.04,38.43,11.1,58.04,8.93,8.43-16.39,4.2-8.4,4-25.51-3.2-15.29-5.31-27.54-10.72-39.84,1.95,4.99,1.82,9.31-3.58-5.44,1.18,.7,2.21,2.34,3.04,4.05-1.01-2.18-2.69-4.46-3.93-6.67h0ZM2.86,56.92h0s-.07,.04-.1,.07c-.93,.6-1.85,1.23-2.75,1.87,5.69,1.8,11.37,3.53,17.09,5.35-4.84-1.8-9.64-4.22-14.23-7.29h0Z"/>
      <path id="path4393" d="M33.09,68.49c-1.68,.37-2.9-.6-4.45-.99-.24-.06-.5,.06-.74,0-.43-.11-.81-.39-1.24-.49-.24-.06-.5,.06-.74,0-.23-.06-.27-.42-.49-.49-1.7-.57,1.15,.95-1.24-.25-.27-.13-.47-.38-.74-.49-.15-.06-.38,.12-.49,0-.12-.12,.15-.42,0-.49-.3-.15-.66,.05-.99,0-.65-.11-1.31-.61-1.98-.74-.98-.2-1.75-.42-2.72-.74-.59-.2-1.2-.07-1.73-.25-.35-.12-.63-.39-.99-.49-.24-.07-.49,0-.74,0-.33-.08-.67-.13-.99-.25-1.03-.39-1.94-1.1-2.97-1.48-.32-.12-.7-.07-.99-.25-.16-.09-.09-.39-.25-.49-.14-.09-.35,.07-.49,0-.07-.04,0-.16,0-.25h-.49c-.08,0,.17-.02,.25,0,.33,.08,.67,.14,.99,.25,1.05,.35,1.9,1.13,2.97,1.48,2.02,.67,3.88,1.47,5.94,1.98,.25,.06,.49-.12,.74,0,.21,.1,.29,.39,.49,.49,.54,.27,1.53,.04,1.98,.49,.13,.13,.09,.39,.25,.49,.18,.12,1.35-.05,1.48,0,.28,.09,.47,.38,.74,.49,.31,.12,.96-.18,1.24,0,.58,.39,.78,.57,1.48,.74,.38,.09,.85-.06,1.24,0,2.96,.49,.11-.07,1.24,.49,.68,.34,2.04-.18,2.72,.49-2.21-.25-4.32-.75-6.43-1.48-1.01-.35-1.94-.94-2.97-1.24-.96-.28-1.98-.3-2.97-.49-.51-.1-.97-.42-1.48-.49-.33-.05-.67,.06-.99,0-.63-.13-4.02-1.32-4.7-1.73-.2-.12-.29-.38-.49-.49-.98-.56-1.92-.44-2.72-1.24"/>
      <path id="path4395" d="M13.55,62.3c.95,.77,1.92,.54,2.97,.99,.34,.15,.63,.41,.99,.49,.32,.08,.67-.08,.99,0,.36,.09,.63,.39,.99,.49,.24,.07,.5-.04,.74,0,1.08,.15,2.14,.59,3.22,.74,.24,.04,.5-.07,.74,0,1.34,.38,2.75,1.24,4.2,1.24-1.69,.57-3.07-.12-4.7-.49-.98-.23-1.99-.25-2.97-.49-2.5-.63-4.91-1.76-7.17-2.97-1.5-.8-2.56-1.82-4.2-2.23"/>
      <path id="path4397" d="M12.32,61.07c1.79,.95,3.66,1.76,5.44,2.72,.68,.37,1.26,.95,1.98,1.24,1.12,1.05,2.66,.75,3.96,1.24,1.21,.45,.71,.58,1.98,.74,.57,.07,1.16-.08,1.73,0,.66,.09,1.32,.14,1.98,.25,1.71,.28-.2,.25,.74,.25"/>
    </g>
  </g>
</svg>