<?xml version="1.0" encoding="UTF-8"?>
<svg id="Layer_2" data-name="Layer 2" xmlns="http://www.w3.org/2000/svg" viewBox="0 0 52.88 22.35">
  <g id="svg9">
    <g id="g15">
      <path d="M46.97,17.35c1.49,.44,2.99,.86,4.48,1.33,.07,.02,.15,.06,.22,.08,.01-.04,.02-.07,.03-.11l.3-.95c.26-.71,.56-1.4,.88-2.08-2.8-.47-4.56-.51-5.46-.12h0c-.72,.31-.6,1.06-.45,1.85Z"/>
      <path d="M0,0C.06,.12,.12,.23,.19,.35c.5,.93,.79,1.81,.91,2.6,.85,.32,1.7,.63,2.53,1,.37,.15,.74,.29,1.12,.43,4.11-2.59,12.64-.96,29.62,10.5C25.55,3.98,11.81,2.81,0,0Z"/>
      <path d="M49.3,22.18s.02,.03,.03,.06c.04,.04,.1,.08,.14,.12,0,0,0-.01,.01-.01-.06-.06-.12-.11-.18-.17h0Z"/>
      <path id="path4435" d="M8.97,4.36c-.14,0-.28,.01-.42,.03l3.04,.84c-.87-.28-1.68-.84-2.61-.87h0Zm2.61,.87s.07,.03,.11,.04c.04,.01,.07,.02,.11,.02l-.22-.06Zm.22,.06l18.23,5.03c-.61-.18-.98-.29-2.25-.68-3.56-1.08-7.34-3.19-11.02-3.85-.63-.11-1.29,.06-1.93,0-.65-.06-1.28-.24-1.92-.35-.37-.06-.75-.07-1.11-.15Zm18.23,5.03c1.14,.34,1.78,.53,1.63,.45l-1.63-.45Zm1.63,.45l14.95,4.12c-1.07-.5-2.09-1.07-2.91-1.58-.54-.33-1.01-.77-1.57-1.05-.38-.19-.82-.22-1.22-.35-.3-.1-.57-.3-.88-.35-1.13-.21-2.37,.19-3.5,0-1-.17-1.98-.47-2.97-.7-.29-.12-.57-.27-.88-.35-.17-.04-.35,.03-.52,0-.13-.03-.22-.16-.35-.17-1.76-.25-.42,.28-.14,.43h0Zm14.95,4.12c1.48,.68,3.07,1.22,4.43,1.22l-4.43-1.22Z"/>
      <path id="path4437" d="M18.17,6.49l34.44,9.74s.03-.07,.05-.11c-1.76-.76-3.49-1.59-5.28-2.29-3.45-1.34-4.51-1.37-7.87-2.28-1-.27-1.96-.68-2.97-.87-5.68-1.08-2.66,.06-6.47-1.05-3.57-1.04-8.2-3.15-11.89-3.15h0Z"/>
      <path id="path4439" d="M22.71,9.46c3.24,.8,6.3,1.99,9.62,2.45,.07,.01,.14,.01,.21,.02l-9.83-2.47Zm9.83,2.47l14.42,3.63c-.91-.32-1.75-.69-3.26-1.2-3.47-1.18-4.34-1.5-7.7-2.1-1.09-.19-2.37-.2-3.47-.33h0Zm14.42,3.63c.69,.25,1.42,.47,2.51,.72,.32,.07,.65,.11,.97,.15l-3.48-.88Zm3.48,.88l1.87,.47s.01-.02,.01-.03c-.19-.07-.42-.14-.76-.24-.37-.1-.75-.15-1.12-.2h0Z"/>
      <path id="path4441" d="M45.63,14.71c-3.07-1.1-6.23-2.05-9.44-2.62-.81-.15-1.65-.15-2.45-.35-.84-.21-1.63-.59-2.45-.87-14.15-4.72,2.23,.81-6.47-2.27-2.72-.97-5.46-1.49-8.22-2.27-.15-.04-1.74-.6-2.1-.87-.26-.2-.43-.52-.7-.7-1-.67-1.53-.74-2.62-1.05"/>
      <path id="path4443" d="M7.15,2.82c1.08,.44,2.23,.67,3.32,1.05,4.25,1.47,1.46,.77,6.3,2.1,3.01,.83,6.08,1.32,9.09,2.1,.95,.24,1.86,.61,2.8,.88,3.09,.88,6.18,1.76,9.27,2.62,.83,.23,3.25,.83,4.37,1.05,.04,.01,.07,.01,.11,.02L7.15,2.82ZM42.41,12.63l1.82,.51c-.12-.06-.26-.08-.35-.17-.04-.04,.05-.15,0-.18-.07-.04-.4,.02-.52,0-.32-.05-.63-.1-.95-.16h0Z"/>
      <path id="path4445" d="M9.37,4.22c-.53-.02-1.04,.07-2.4,.17,.47,.47,3.29,.71,4.02,.88,2.32,.5,4.55,1.27,6.82,1.92,.27,.08,.55,.13,.83,.18-2.22-.99-4.42-2.05-6.77-2.63-1.43-.36-1.97-.5-2.5-.52h0Zm9.27,3.15c1.11,.5,2.23,.99,3.37,1.39,4.12,1.45,8.32,2.61,12.59,3.5,.48,.1,.96,.22,1.44,.33l-7.73-2.61c-1.56-.91-3.31-1.7-5.07-2.1-1.52-.34-3.07-.24-4.6-.52h0Zm17.4,5.22l6.42,2.16c-.72-.36-1.99-1.44-2.95-1.62-.58-.11-1.17-.08-1.75-.17-.58-.09-1.14-.23-1.71-.37h0Zm6.42,2.16c.14,.07,.28,.12,.37,.12l-.37-.12Z"/>
      <path id="path4447" d="M41.6,12.61c-.75-.37-2.03-1.03-2.62-1.22-2.48-.83-5.01-1.53-7.52-2.27-4.16-1.23-8.43-2.5-12.77-2.97-1.33-.14-2.71,.09-4.02-.17-.59-.12-1.12-.35-1.75-.35"/>
      <path id="path4449" d="M23.76,9.29c5.81,2.12,12.27,2.42,18.01,4.72"/>
    </g>
  </g>
</svg>