<?xml version="1.0" encoding="UTF-8"?>
<svg id="Layer_2" data-name="Layer 2" xmlns="http://www.w3.org/2000/svg" viewBox="0 0 1466.32 1209.8">
  <g id="svg9">
    <g id="g15">
      <path id="path3886" d="M1107.07,10.62h-.01c-16.05,1.05-32.08,2.37-48.12,3.64,.09,0,.18,.01,.26,.02,8.03,.66,13.48,3.53,16.5,7.18,1.86-.57,5.02-1.27,23.01-3.03-47.85-1.14,12.1-.28,11.92-3.08,34.63,2.71-21,6.8-34.48,6.65,.84,1.13,1.46,2.32,1.86,3.54,14.44-1.51,28.61-3.07,44.02-4.46,22.37,3.9,59.4,1.4,86.41,6.29,69.11,13.36-20.29-8.89,50.06,9.29,15.33,9.33,23.36,6.4,52.37,27.42,6.16,4.99,52.81,49.1,16.99,16.63,32.35,31.04,32.73,38.24,42.17,63.34,8.73,6.09,12.88,42.56,27.36,91.06-6.03-10.4,12.53,44.48-.87,13.27,6.84,28.07,11.64,47.81,16.51,78.95,2.05,1.04,4.06,2.14,6.04,3.33,.92,.55,1.84,1.09,2.76,1.64-29.87-99.64-21.41-225.55-124.79-281.36-56.67-34.51-125.01-41.26-189.96-40.33h0Zm45.13,4.34c4.15,.18-6.68,1.91-9.99,.52,5.55-.46,8.6-.58,9.99-.52Zm-179.69,21.29c-3.57,.47-7.14,.98-10.74,1.21-5.8,.46-11.62,.79-17.44,.91-1.65,.21-3.29,.46-4.95,.54-3.35,.18-6.69,.48-10.04,.75-4.17,.24-8.32,.63-12.44,1.32-1.76,.27-3.52,.59-5.28,.89-13.23,5.68-32.77,9.38-42.49,14.41-7.31,3.64-51,21.35-55.2,23.71,9.91-5.9,31.05-16.92,33.74-18.26-51.2,18.16-105.19,46.05-149.24,70.18-.03,.03-.12,.05-.15,.08-7.15,3.92-14.61,7.96-21.19,11.62v.02c5.35-2.89,13.75-7.04,20.88-10.68-1.84,2.98,.37,6.67,4.11,8.79-11.97,7.56-23.53,14.19-33.19,17.25,.66-.56,1.24-.83,2.18-2.55-.7-.42-1.19-.41-1.71-.47-.65,.3-1.41,.53-2.14,.77-.56,.95-.53,2.31,.02,2.9-.63,.17-1.43,.66-2.04,.79-11.72,7.89-20.46,18.97-36.06,24.21,58.51-46.74-5.33-10.47-21.63,7.05-13.01,8.85-26.38,17.86-38.94,26.02-1.59,1.53-3.15,3.09-4.74,4.62-2.73,2.58-5.52,5.1-8.3,7.64,11.75-8.45,23.57-16.81,35.41-25.04,4.83,9.51-8.92,5.11-12.59,22.2-2.67,4.52-4.02,5.99-4.97,6.34,2.66-1.94,5.53-3.68,8.27-5.59-.35-1.74,1.7-6.34,8.02-9.98-1.67,3.92-3.01,5.74-4.28,7.45,24.73-16.91,55.36-33.26,73.35-48.58-37.14,26.07-74.98,45.65-29.2,14.83,16.24-7.55,17.97-13.62,38.02-22.68-16.6,23.45-119.91,87.92-123.3,89.06,3.62-3.73,7.76-7.46,12.13-11.17-2.3,.08-1.97-3.34,7.95-10.23-.37,2.26-1.18,4.01-2.1,5.53,3.52-2.81,7.02-5.62,10.79-8.38-2.7,.27-1.25-11.78-17.24,4.23-5.8,7.62-10.41,7.47-12.88,6.42,2.1-1.43,4.49-2.53,7.53-2.5,34.98-30.95,17.79-18.18-8.04,2.35-.6-.34-.76-.47-.86-.56-.01,0-.01,.01-.02,.01,.11,.06,.28,.17,.79,.61-2.08,1.66-3.76,2.96-5.36,4.2-1.4,1.53-2.81,3.06-4.22,4.59,.69,3.73-1.58,4.22-2.71,2.95-1.55,1.64-3.14,3.25-4.7,4.88,3.13,.46-2.32,12.97-13.45,24.36,18.63-15.43,30.8-26.27-5.7,7.45-37.04,22.59-112.1,102.09-84.77,59.75,5.1-5.56-.52-.65-5.82,3.96,.7-.86,1.34-1.47,2.08-2.62-4.16,3.43-5.5,5.08-5.88,5.89-3.26,2.76-2.86,1.97,1.93-3.1-1.49,1.12-3.02,2.2-4.49,3.36-3.6,2.73-7.07,5.62-10.62,8.41-2.71,2.15-5.43,4.29-8.06,6.54-1.13,1.09-2.17,2.26-3.25,3.39-4.56,5.5-8.66,10.85-12.97,15.46-2.21,3.02-4.56,5.93-7.04,8.73-2.36,2.9-4.78,5.75-7.36,8.45-1.5,1.61-3.13,3.09-4.71,4.62-.42,.85-.93,1.72-1.53,2.61,15.41-17.56,33.84-37.03,47.93-51.01-5.18,6.91-6.62,8.5-10.98,13.96-14.11,13.77-13.76,15.6-5.93,7.53-13.24,16.34-18.41,22.82,15.83-8.87,.02,.18-.4,.7-.45,.94-10.4,8.67-5.49,8.25-.1,.21-2.67,9.74-56.27,60.33-58.25,55.02,12.28-2.73,7.69,2.24-.68,9.04-.72-.41-1.95-.69-4.38-.63-4.85,4.76-3.73,5.55-1.59,5.32-2.32,1.75-3.61,2.98-6.18,4.87-1.81,1.18-3.21,2.41-4.65,3.66-1.3,.96-2.2,1.79-3.49,2.75,1.15-1.14,2.06-2.17,3.09-3.13,1.19-3.88,6.98-11.79,14.3-20.96-1.83,1.97-3.69,3.91-5.57,5.84-2.71,2.93-5.53,5.87-7.41,9.43-2.06,3.77-4.35,7.41-6.66,11.03-3.52,5.35-7.25,10.56-10.89,15.82-3.17,4.48-6.42,8.9-9.72,13.28-2.08,2.96-4.19,5.9-6.35,8.8,2.4,6.98,15.22-4.98-14.85,20.1-16.57,25.43-19.4,26.32-14.89,17.2-.33-.24-1.04-1.08-1.63-1.75-.31,.49-.64,.98-.93,1.48-2.68,4.93-5.11,9.98-7.67,14.97-1.38,2.44-2.79,4.86-4.23,7.27,.44-.07,.52,.57-.17,2.67,2.01-13.53,15.93-7.45,26.61-29.88,4.45-4.35,5.64-9.42,10.11-13.52-17.35,19.39-111.95,196.23-88.21,145.98,15.81-36.11,43.04-73.78,57.8-106.01-4.12-.43-8.76,6.15-13.17,13.98,.05-.15,.1-.15,.16-.31-4.32,2.42-3.76,5.69-2.08,4.03-8.62,16.62-15.01,36.22-8.94,16.98-14.87,21.45-9.03,9.06-.21-6.42-2.86,4.03-5.77,8.04-8.63,12.07-1.02,1.5-2.08,3.01-2.89,4.64-.46,.92-.76,1.92-1.11,2.88-.86,2.44-1.58,4.93-2.46,7.37,.97-1.25,1.28-1.52,2.56-3.23-.61,1.39-1.38,2.78-2.02,4.19-1.76,2.58-2.67,4.59-2.46,5.1-7.11,15.21-14.64,29.66-20.96,40.54-1.23,1.49-1.85,2.63-1.87,3.37-.45,.76-1.11,2.06-1.54,2.76-1.05,1.49-1.92,3.45-2.96,5.08,.08-.47,.33-1.16,.38-1.59-.67,1.35-1.07,2.54-1.71,3.88,.46-.74,.86-1.54,1.32-2.26-2.43,14.82-14.95,44-13.05,35.96-12.09,33.46-4.93,1.1,11.72-33.7-8.44,13.67-15.52,29.13-18.82,36.7-.4,1.19-.77,2.39-1.2,3.57-1.67,4.65-3.49,9.26-5.38,13.84-5.85,25.75-12.48,43.14-13.67,43.09-.38,1.46-.79,2.92-1.18,4.38-.78,2.82-1.42,5.67-2.12,8.52-.42,1.96-.82,3.92-1.23,5.88-1.88,15.76-4.46,28.2-6.23,33.21-.21,1.52-.41,3.04-.57,4.56-.38,2.61-.25,5.21,.12,7.8,.26,1.4,.27,2.8,.26,4.21,0,1.03-.07,1.86-.19,2.57,.05-.06,.01-.18,.08-.23,1.46,6.5-.43,4.3-.63,2.04-.33,.61-.76,.93-1.28,1.01,.69,11.85-1.12,26.37-2.57,32.08,.07,.82,.16,1.64,.21,2.46,.16,2.88,.21,5.76,.25,8.64,.05,2.9,.08,5.79-.13,8.68-.25,2.4-.45,4.79-.59,7.2-.12,2.22-.19,4.43-.04,6.64,.35,3.99,.79,7.97,1.12,11.96,.41,3.81,.78,7.63,1.16,11.45,.41,3.57,.91,7.14,1.52,10.68,.35,2.28,1.06,4.46,1.81,6.62,.13,.4,.25,.8,.39,1.2,.02,.05,.04,.1,.06,.15,.05,.1,.12,.18,.17,.31,0,.02-.04-.02-.05-.04-.04-.08-.08-.18-.11-.26-.22-.44-.48-.74-.88-1.29-1.51-2.08-2.64-3.03-3.51-3.25,.27,1.24,.54,2.47,.81,3.71,.4,1.92,1.06,3.75,1.83,5.55,1.22,2.91,2.22,5.91,3.26,8.89,1.03,2.8,1.66,5.72,2.08,8.67,.26,1.57,.67,3.11,1.02,4.66,.11,.19,.2,.4,.22,.61,0,.08-.03-.25-.12-.19-.03-.14-.07-.27-.1-.41-.1-.18-.22-.34-.33-.49-.23-.21-.55-.49-.58-.52-.06-.05-.11-.07-.17-.12,4.78,11.58,8.73,21.77,6.29,26.51,.77,1.46,1.55,2.92,2.29,4.41,1.33,2.82,2.64,5.65,3.87,8.51,.5,1.18,.94,2.37,1.57,3.48,.74,1.31,.87,2.46,.63,3.31,.43,.41,.83,.85,1.27,1.25,1.4,1.3,2.74,2.67,4.1,4.01,1.04,1.09,2.16,2.1,3.18,3.21,1.02,1.13,1.98,2.3,2.84,3.55,.65,.95,1.29,1.91,1.86,2.9,.45,.7,.93,1.37,1.41,2.04-.15-.36-.15-.3-.31-.68,.3,.31,.63,1.1,.95,1.55,.64,.81,1.32,1.58,1.91,2.42,.35,.43,.72,.84,1.11,1.23-2.74-6.07-5.44-12.62-8.09-20.16-27.34-76.93-4.04-15.9,10.91,19.63-34.57-78.14-40.6-174.26-14.9-255.77,16.44-60.95,37.68-116.45,71.84-169.59,11.15-19.16,23.43-43.58,37.36-67.97-4.71,7.87,2.27,1.89,10.28-14.23-4.95,6.23-8.01,10.59-9.85,13.52,11.15-19.47,23.27-38.92,37.24-55.43,35.24-34.36,56.61-62.01,89.79-99.62-25.42,24.35-63.9,59.71-7.89,1.5,26.52-31.61,120.31-113.55,45.32-40.95-2.48,6.71,76.21-72.22,103.1-87.03,50.59-44.19,109.12-77.68,164.13-114.1-88.23,47.5,97.96-60.43,4.76-7.84-65.83,36.72-3.4-1.79,21.69-16.24,19.04,1.49-20.19,22.89,26.49-3.26,39.9-22.37,96.19-41.98,130.99-58.42,35.42-13.97,87.64-26.28,118.05-34.01-.01,0-.02,0-.02-.01-3.1-.04-6.2-.1-9.3-.19-28.24,8.92-73.63,14.49-12.97,.1l2.23-.54c-1.47-.07-2.94-.14-4.41-.21-27.41,6.91-37.92,7.73-4.8-.16-.22,0-.44-.01-.67-.02h0Zm-216.54,2.59c-1.7,.14-3.39,.29-5.09,.43,.07,.19,.09,.39,.15,.58,1.64-.35,3.29-.68,4.94-1.02Zm-44.86,3.81c-13.05,1.08-26.1,2.28-39.15,3.32-70.67,8.05-171.42,38.24-216.92,68.09,1.96-.77,2.11-.75,3.85-1.42-.25-.5,1.72-2.13,7.65-4.07-1.55,1.35-2.75,2.02-3.93,2.7,37.43-14.26,16.58-2.9-22.67,14.52,15.11-18.55-42.23,9.79-16.4,5.75,.27,.42,1.05,.34,2.17-.47,2.8-.52,5.23-.89,9.73-2.09,33.07-8.11,89.11-45.64,133.72-54.57,36.49-12.34,30.45-8.15,28.17-7.31,91.75-29.15,34.35-8.32,45.27-10.9,9.45-1.55,16.95-2.05,24.3-2.42,.39-.21,.77-.43,1.18-.63,2-.99,3.41-1.71,5.15-2.42-1.86,.06-1.17-.33,3.54-1.26,10.67-3.37,21.93-4.68,33-6.11,.45-.23,.89-.48,1.34-.71Zm-113.61,20.44c.96,.33-2.12,2.37-2.55,.45,1.46-.48,2.23-.56,2.55-.45Zm-50.3,15.79c-33.72,17.09-80.52,29.41-16.78,5.56l10.45-4.07,6.33-1.48Zm-142.09,57.57c-26.06,7.26-68.14,48.9-26.48,17.36,0-4.12,33.19-13.09,26.48-17.36Zm-50.28,30.64c-.32-.11-1.09-.03-2.55,.45,.43,1.93,3.5-.11,2.55-.45Zm-21.3,13.78c-58.49,33.91-122.55,93.46-171.68,148.91C33.25,471.73-50.25,686.9,34.02,871.3c47.56,88.21,114.59,164.5,176.74,242.53,142.99,130.81,359.93,108.19,529.21,46.08,5.28-4,10.52-7.54,15.72-10.76-18.26,7.48-17.14,4.7,6.39-3.59,1.53-.86,3.07-1.8,4.6-2.59-13.13,5.07-27.34,9.67-47.44,17.2-54.98,16.5,10.03,2.4-47.03,15.84-6.2,1.96-69.58,15.52-53.98,12.45-36.78,7.3-162.79,30.17-153.26,15.66,44.58,3.24-38.95-5.82-15.86-6.74-4.65,.43-9.34,.28-14.02,.14,19.03,2.76-4.99,6.56-18.2-1.65,.74,.03,.67,.1,1.38,.12-37.42-5.53-74.63-23.17-106.01-27.36,42.36,10.73,37.61,23.14-.14-.02-1.7-.23-3.49-.66-5.16-.79-56.46-27.32,36.32,10.38-29.25-19.47-1.38,4.24-6.31,2.69-12.75-1.49,17.99,11.81,9.96,11.98-17.04-10.23,6.7,3.61,10.3,6.04,14.49,8.7-22.8-16.46-63.02-63.31-68.84-62.36-4.85-5.46-9.32-11.82-13.62-19.06-.16-.16-.32-.31-.49-.46-.83-.87-1.77-1.63-2.67-2.42-.86-.65-1.58-1.43-2.17-2.33-.45-.72-.92-1.43-1.37-2.15-.33-.36-.54-.86-.92-1.18-.51-.62-1.07-1.2-1.66-1.75-.65-.56-1.32-1.09-1.97-1.64-.98-.77-1.81-1.68-2.6-2.64-.63-.87-1.32-1.69-1.99-2.52-.8-1.07-1.58-2.16-2.3-3.28-.55-.96-1.16-1.88-1.78-2.79-.73-1.06-1.54-2.05-2.4-3-1-1.06-2.07-2.06-3.08-3.11-1.29-1.26-2.55-2.56-3.88-3.79-1.45-1.34-2.87-2.72-4.23-4.16-1.47-1.71-2.94-3.41-4.42-5.12-1.44-1.7-2.98-3.31-4.49-4.94-1.57-1.74-3.25-3.38-4.91-5.04-1.18-1.13-2.34-2.27-3.51-3.41-.77-.77-1.55-1.53-2.34-2.29-2.07-1.99-1.88-4.04-.66-4.86-19.81-24.3-43.72-59.83-42.46-56.69-30.74-41.98-23.97-31.93-42.23-69.94-11.47-31.46-14.57-41.29-25.21-91.47-.96,8.13-10.58-52.69-10.81-63.65-3.41,2.2,1.9-67.21-2.22-11.32,1.07-28.04,2.41-42.28,8.65-78.19,2.78,.74,40.37-121.76,26.46-92.23,4.31-10.4,9.09-20.48,13.78-30.61-.29,1.56,4.37-3.61,4.12-6.74-2.22,3.1-3.19,4.75-3.71,5.82,9.21-19.83,19.08-39.33,31.27-57.94-1.86,1.99-3.29,3.08-3.77,2.61,.6-.65,1.29-1.91,1.93-4.07-.78,.39-1.02,.85-1.51,1.29,.82-2.49,2.59-6.22,6.51-11.98,5.87-5.94,9.74-16.45,18.39-26.56-5.79,13.93-11.11,23.67-15.47,30.45,5.91-8.52,11.76-17.06,18.65-25.32,4.08-7.39,40.96-60.37,62.1-82.38,20.69-17.64,35.3-41.66,61.82-62.41,40.44-41.23,26.92-22.18-2.08-5.39,6.96-8.77,19.1-17.72,46.12-38.44-3.15,11.02,17.22-8.31,35.83-25.8-31.69,24.71-46.5,28.96,8.12-7.56,5.02-4.64,9.8-8.98,13.2-11.64h0Zm-21.3,987.76s0,0,0,0c-.13-.03-.15-.06-.29-.1,.06,.04,.08,.04,.14,.07,.05,.01,.09,.01,.14,.02h0Zm15.8-981.12l-7.32,4.73c-.19,.13-.19,.14-.38,.27-2.61,2.41-5.32,4.93-8.12,7.56,5.22-4.07,9.85-7.38,15.81-12.55Zm-10.8,15.74c-.44,.35-.89,.71-1.34,1.07,.54-.32,.85-.63,1.34-1.07Zm-90.66,64.31c-23.28,38.99-60.32,51.23-21.97,22.81,5.57-8.75,14.41-15.24,21.97-22.81Zm-43.79,43.11c-15.1,33.44-47.73,55.3-29,33.06-3.88,5.47-.88,5.86,10.84-10.62-3.7,2.75-6.25,5.32-8.38,7.64,3.92-4.37,9.06-9.75,16.29-16.77-18.42,13.46,10.41-11.01,10.25-13.32Zm1235.25,43.8c2.2,10.26,2.4,8.12,1.85,1.06-.61-.36-1.23-.7-1.85-1.06Zm-1276.29,2.75c.53,13.72-34.57,51.03-30.4,42.35,2.39-1.52,6.69-5.39,6.46-7.79-2.76,2.47-3.35,3.26-4.62,4.58,1.81-2.64,4.39-6.17,8.42-11.29-10.28,11.58,16.1-19.67,20.15-27.85Zm1284.33,13.54c3.01,17.78-12.45-15.33-2.19,27.01,10.16,20.67,14.37,53.46,16.88,74.93,.24,.98,.49,1.96,.62,2.96,.17,1.28,.21,2.59,.3,3.87,.1,.91,.37,2.64,.47,3.47,.53,3.08,.82,6.2,1.28,9.29,.27,2.22,1.25,4.26,2.14,6.29,1.17,2.38,2.28,4.78,3.68,7.04,2.41,3.73,3.75,7.94,4.63,12.25,.6,4.16,1.01,8.35,1.46,12.53,.11,.58,.16,1.17,.2,1.77,2.57,8.1,3.99,17.46,2.08,11.83,.23,2.88-.29,5.31-1.33,7.21,2.15,13.24,2.13,26.87-1.44,40.31-4.78,44.61-36.1,95.04-56.18,124.51-8.36,4.9-15,12.77-20.28,19.36,.03,.5-.05,1.05-.23,1.64,2.79-3.61,4.06-5.57,8.57-11.04-10.43,19.82-25.28,33.83-14.72,18.95-1.6,1.5-3.24,2.96-4.89,4.41-1.19,1.08-2.36,2.19-3.34,3.47-.4,.52-.76,1.06-1.12,1.61,.16,.33,.28,.71,.32,1.13,1.21-.91,2.28-1.8,4.09-2.8-6.38,10.43-11.64,16.18-16.11,20.13-.96,2.71-2.78,3.86-4.27,3.62-5.35,3.26-7.54,1.17-3.92-4.3-17.12,17.66-36.16,33.85-50.95,47.81,39.21-32.35-9.91,12.56-8.85,8.59-12.02,7.71-15.33,10.8-15.58,12.12,.73,.28,1.46,.55,2.18,.82,.47-.08,.86-.1,1.44-.26-.23,.08-.64,.24-1.06,.4,1.14,.43,2.27,.88,3.37,1.42,1.31,.63,2.59,1.3,3.88,1.98,18.5-14.35,34.93-32.83,53.6-45.48,1.53-2.53,3.51-4.64,5.9-6.42,.25-.18,.49-.35,.73-.53,.91-.66,1.8-1.18,2.67-1.6-1.54-3.36-1.06-6.93,7.44-8.03,28.03-30.3,59.74-69.12,81.22-104,17.93-31.81,29.17-66.62,36.11-102.5,.37-.41,.93-.45,1.38-.71-.42-1.31-.94-2.59-1.42-3.91-1.18-3.5-2.33-7.01-3.35-10.55-.78-2.8-1.17-5.64-1.39-8.53-.44-5.67,1.18-9.84,3.69-12.51,.2-6.48,.45-13.22-1.98-19.17-7.78-34.81-16.29-70.75-24.13-105.66-2.36-.85-4.52-2.83-5.95-5.92-2.48-2.49-5.79-9.88-5.89-21.86,1.78,3.06,2.93,5.47,4.1,7.89v-8.37c.43-3.89-.85-7.3-1.95-10.94-.66-1.84-1.3-3.68-1.93-5.52h-.02Zm-85.64,410.06c-42.87,51.7,22.81-26.4-26.1,25.05l9.97-12.46,16.12-12.6Zm3.5,5.86l-.32,.36,.32-.36ZM199.03,1086.55c32.18,31.13,11.59,23.49-.67,2l.67-2Zm621.26,30.25c-1.98,.73-3.48,1.21-11.21,4.84-4.5,2.84-8.3,4.76-12.33,7-11.93,4.95-18.45,8.27-18.89,9.08-3.71,1.58-7.44,3.28-11.19,5.24,4.39-1.7,8.85-3.76,13.12-5.68-1,.29-1.99,.68-1.88,.43,3.05-1.3,6.09-2.56,9.12-3.61-2.43,1.21-4.83,2.11-7.22,3.18,1.6-.46,3.97-1.47,8.18-3.48,16.23-5.52,32.15-7.31,47.94-6.59-.46-.32-.93-.63-1.38-.96-1.8-1.25-7.14-4.94-9.04-6.23-1.02-.68-2.04-1.36-3.09-2-2.48,1.07-2.96,1.05-.73-.45-.46-.27-.92-.53-1.38-.78Zm-48.36,25.23c-4.49,1.43-6.39,2.29-9.86,3.51-2.13,1.2-4.25,2.27-6.39,3.59,4.67-1.91,9.22-3.72,16.25-7.11Zm-425.79,38.78c76.22,16.89-32.17-3.21,27.01,11.86-27.18-.34-28.23-8.85-27.01-11.86Zm70.07,18.99c46,5.08,36.49,8.27-3.67,.42l3.67-.42Z"/>
      <path id="path6938" d="M761.11,27.85l-16.73,3.4c2.78-.11,5.55-.24,8.32-.43,7.29-.5,5.69,.66,8.41-2.97Zm-16.73,3.4c-6.96,.28-13.93,.43-20.87,1.05-12.41,1.11-24.95,1.71-37.1,4.45-11.4,2.57-22.02,7.82-33.14,11.38-4.88,1.56-9.89,2.64-14.84,3.96-1.65,.33-3.33,.54-4.95,.99-1.36,.38-2.64,.99-3.96,1.48l96.44-19.58c4.52-2.27,8.63-3.27,12.17-3.31,1.07-.01,2.09,.07,3.05,.22l3.2-.65Z"/>
      <path id="path6940" d="M796.72,18.95c-6.51,0-5.27,.18-9.49,1.67l9.49-1.67Zm-9.49,1.67l-35.89,6.32c.62-.03,1.23-.04,1.85-.08,7.35-.43,20.54-2.36,28.2-4.45,2.75-.75,4.54-1.33,5.84-1.79Zm-35.89,6.32c-13.73,.63-27.58-.46-41.19,1.41-13.63,1.87-26.73,6.53-40.07,9.89-10.27,2.59-20.52,5.37-30.67,8.41l111.93-19.71Z"/>
      <path id="path6942" d="M837.29,12.02c-5.94,0-8.98,.92-11.97,2.25l11.97-2.25Zm-11.97,2.25l-83.47,15.69c12.26-.22,25.11-.68,33.61-2.11,12.86-2.16,25.53-5.42,38.09-8.9,5.81-1.61,8.77-3.35,11.77-4.68Zm-83.47,15.69c-9.42,.17-18.54,.21-24.76,.36-25.17,.62-49.22-.2-69.26,17.31l94.02-17.68Z"/>
      <path id="path6944" d="M864,6.58c-3.48,0-8.5-.06-11.38,.49-4.71,.91-9.34,2.14-13.96,3.42l25.34-3.91Zm-25.34,3.91l-61.88,9.56c.38-.04,.76-.08,1.14-.12,27.76-2.68,13.33,1.36,39.57-3.96,7.14-1.45,14.14-3.54,21.16-5.48Zm-61.88,9.56c-11.53,1.13-23.02,2.6-34.47,4.33-6.65,1.01-13.17,2.77-19.79,3.96-2.59,.46-8.88,1.45-15.37,2.46l69.63-10.76Z"/>
      <path id="path6946" d="M868.07,5.93c-.53,.02-1.07,.06-1.59,.16-3.55,.63-6.9,2.06-10.39,2.97-4.1,1.07-8.2,2.18-12.37,2.97-23.69,4.51-29.7,3.36-58.37,7.42-5.51,.78-10.87,2.35-16.32,3.46-12.02,2.45-6.92,.59-12.86,2.97l133.07-17.31c0-2.89-14.7-2.47-16.32-2.47s-3.23-.21-4.84-.16Z"/>
      <path id="path6948" d="M908.22,9.93c-1.34-.09-2.99,.26-8.6,.61-27.56,1.7-15.87,.49-39.57,3.96-9.07,1.32-18.11,2.86-27.21,3.96-37.37,4.5-75.24,6.99-112.29,13.85l194.41-20.28c-4.37-1.46-5.4-2-6.74-2.09Z"/>
      <path id="path6950" d="M901.71,4.41c-1.86,0-3.72,.05-5.56,.2-4.81,.37-9.57,1.31-14.35,1.98-9.88,1.39-19.77,2.78-29.65,4.18l76.15-4.18c-5.6,0,.27,.11-9.89-.99-5.47-.59-11.12-1.17-16.71-1.18Zm-49.55,6.36l-68.78,3.78c13.19,.13,26.38,.97,39.56,.45,6.83-.27,13.52-2,20.28-2.97,2.98-.43,5.96-.84,8.94-1.26Zm-68.78,3.78c-.99,0-1.99-.04-2.98-.04-14.03,0-12.63,.07-23.25,1.48l26.23-1.44Z"/>
      <path id="path6952" d="M859.05,12.52c-12.37,.43-24.75,.66-37.1,1.48-12.59,.84-49.26,4.3-63.81,7.42-37.18,7.97-52.92,11.46-58.16,12.79,26.62-4.77,37.85-7.1,65.09-8.83,7.9-.5,15.83-.49,23.74-.49s16.18,1.01,24.24,.49c6.58-.42,6.43-.33,6.43-2.97l45.02-9.89c1.81,0-3.63-.06-5.44,0Zm-159.07,21.69c-1.16,.21-1.96,.35-3.18,.57-18.98,3.38-38.09,6.13-56.89,10.39-6.67,1.51-12.58,6.68-19.29,8.41,1.32-.33,2.62-.76,3.96-.99,1.46-.24,2.97,.15,4.45,0,2.87-.29,5.6-1.36,8.41-1.98,9.22-2.03,18.46-3.98,27.7-5.94,11.04-2.33,22.18-4.26,33.14-6.93,50.38-12.23-12.22,0,1.7-3.54Z"/>
      <path id="path6954" d="M910.5,9.55c-5.15,.2-10.2,1.55-15.33,1.98-7.25,.6-14.49,1.35-21.77,1.48-18.63,.36-37.33-1.47-55.9,0-17,1.34-33.73,5.08-50.46,8.41-13.14,2.61-26.06,6.23-39.08,9.4-5.95,1.45-11.95,2.68-17.81,4.45-1.27,.38-2.31,1.32-3.46,1.98l19.93-2.58c4.26-2.04,8.15-2.96,11.51-3,2.01-.02,3.83,.27,5.45,.8l173.35-22.43c-2.15,0-4.28-.58-6.43-.5Z"/>
      <path id="path6956" d="M899.37,4.24c-4.01-.05-8.05,.05-12.12,.36-28.13,2.14-13.35,3.96-33.14,7.91-5.7,1.14-11.66,.46-17.31,1.98l125.15-5.94c-3.63,0-7.26,.22-10.88,0-17.45-1.07-34.32-4.11-51.69-4.32Z"/>
      <path id="path6958" d="M1010.33,.01c-.94,.02-2.2,.13-3.37,.13-12.63,0-9.8-.25-23.75,.99-11.65,1.04-23.23,2.74-34.85,4.1l62.06-3.61c2.15-1.43,1.47-1.65-.1-1.62h0Zm-61.96,5.23l-65.57,3.81c4.45-.16,8.91-.28,13.36-.49,13.03-.61,26.08-.92,39.08-1.98,4.39-.36,8.76-.83,13.13-1.34h0Z"/>
      <path id="path6960" d="M919.9,5.88c-1.82,0-3.63,.08-5.44,.2-.93,.06-3.77,.89-5.82,1.28l45.23,2.87c.49-.03,.97-.07,1.46-.1-3.9-.52-7.8-1.06-11.69-1.57-6.1-.81-12.17-1.95-18.3-2.47-1.81-.15-3.62-.21-5.44-.2h0Zm-11.26,1.48l-4.57-.29c.99,.16,1.96,.49,2.97,.49,.4,0,.97-.08,1.61-.21Z"/>
      <path id="path6962" d="M937.45,1.36c-1.6,.01-3.16,.09-4.69,.27-2.88,.34-4.17,2.25-6.93,1.98l62.42,4.06c2.35-.02,4.69-.03,7.03-.24,3.28-.46,6.55-.73,9.86-.83-4.02-1.51-9.43-2.97-9.56-2.99-10.26-1.6-27.99-.86-37.1-.99-6.66-.1-14.12-1.32-21.04-1.26h0Z"/>
      <path id="path6964" d="M1040.28,5.57c-1.14,0-2.24,.02-3.14,.02-28.54,0-57.05,.15-85.58,.49-5.17,.06-19.77-.69-26.71,.99-1.94,.47-3.63,1.65-5.44,2.47l49.54-.77c.98-.13,1.96-.27,2.94-.39,4.3-.51,8.64-.58,12.96-.68,3.48-.1,6.97,.03,10.44-.28,3.54-.5,7.08-.8,10.66-.87,1.92-.05,3.84-.05,5.76-.02,1.92,.04,3.84,.12,5.75,.24,2.51,.16,4.69,.6,6.72,1.15l23.34-.36c0-1.73-3.82-1.98-7.24-1.99h0Z"/>
      <path id="path6966" d="M932.37,4.36c-2.46,.02-6.74,.37-15.94,1.23-4.93,.46-9.97,1.62-14.35,3.96l55.84,.41c.55-.04,1.11-.07,1.66-.11,3.83-.26,7.62-.85,11.42-1.33-5.17-.25-10.33-.54-15.49-.94-21.07-1.63-17.73-3.24-23.14-3.21h0Z"/>
      <path id="path6968" d="M923.61,8.97c-1.4,0-2.8,.03-4.21,.08-22.19,.79-13.06,.95-11.22,.98l51.16-.17c.08,0,.16,0,.24-.02,2.4-.16,4.78-.46,7.16-.77-1.23-.03-.37-.02-30.52-.02-4.2,0-8.41-.11-12.62-.08h0Z"/>
      <path id="path6970" d="M947.11,8.56c2.14,.33,4.27,.83,6.43,.99,1.87,.13,3.75,.24,5.62,.33,.14-.01,.28-.02,.42-.03,.91-.06,1.82-.19,2.72-.28l-15.2-1Zm135.08,.81c-9.27,.07-18.55,.53-27.74,.67-4.59,.07-9.18,.1-13.77,.11,4.23,.47,7.59,1.78,10.07,3.59,2.82,.09,5.63,.3,8.45,.53,3.84,.32,7.07,1.15,9.75,2.32l50.79,3.35c1.81-1.81,.99-.33,.49-1.48-.41-.96-.35-2.14-.99-2.97-.59-.76-1.61-1.07-2.47-1.48-2.27-1.08-4.44-2.58-6.92-2.97-9.14-1.42-18.4-1.73-27.67-1.66Z"/>
      <path id="path6972" d="M1066.82,4.11c-2.82-.19-23.91,2.95-24.24,2.97-3.5,.19-13.18,.13-22.84,0,.38,.05,.77,.09,1.13,.14l63.75,1.78c-4.48-.25-8.52-1.34-12.86-2.91-1.67-.61-3.18-1.86-4.95-1.98h0Zm17.8,4.89c.65,.04,1.31,.05,1.98,.05l-1.98-.05Zm-100.91-3.41c-1.17-.03-2.31,.33-3.46,.49l16.09,.45c-4.21-.22-8.41-.82-12.62-.94h0Z"/>
      <path id="path6974" d="M1010.55,2.95c-5.81-.06-11.63,.17-17.44,.17-3.26,0-14.55-.14-17.31,.49-4.93,1.13-9.52,3.42-14.35,4.95-7.16,2.27-5.17,1.12-6.1,1.57,1.41-.1,2.82-.17,4.23-.29,4.12-.28,8.2-.95,12.3-1.45,4.3-.51,8.64-.58,12.96-.68,3.48-.1,6.97,.03,10.44-.28,3.54-.5,7.08-.8,10.66-.87,1.92-.05,3.84-.05,5.76-.02,1.92,.04,3.84,.12,5.75,.24,5.35,.34,9.53,1.7,12.66,3.61,.06,0,.13-.01,.2-.02,1.32-.1,2.64-.2,3.96-.31,.85-.07,1.69-.1,2.49-.11,4.14-.05,7.6,.63,10.41,1.8l41.86,.55c-11.41-1.45-22.71-3.69-34.1-5.23-2.06-.28-33.2-3.68-38.59-3.96-1.94-.1-3.87-.15-5.81-.17h0Zm78.5,9.36c.51,.06,1.01,.15,1.51,.21,3.56,.43,7.17,.05,10.76-.05l-12.28-.16Zm14.07,.15c-.59,0-1.19,0-1.78,.02l3.57,.05c-.6-.04-1.19-.06-1.79-.06Z"/>
      <path id="path6976" d="M918.64,5.6c-3.01-.04-6.04,.08-9.13,.48-1.84,.24-5.5,1.18-7.42,1.98-2.92,1.22-2.48,1.45-3.04,1.48h63.39c.28-.03,.55-.05,.83-.09-3.91-2.18-8.39-1.72-12.7-1.89-5.61-.22-11.22-.56-16.82-.99-5.13-.39-10.1-.91-15.11-.98h0Zm-19.58,3.95h-1.42c.83,0,1.19,.01,1.42,0Z"/>
      <path id="path6978" d="M913.47,1.63l10.57,.74c-3.86-.8-.13-.74-10.57-.74Zm10.57,.74c2.68,.55,8.92,1.5,26.53,3.22,48.63,4.73,2.49-.93,43.02,1.92,.57-.03,1.13-.02,1.7-.07,.13-.02,.27-.03,.4-.04l-71.65-5.02Z"/>
      <path id="path6980" d="M953.54,8.48c-.99-.02-1.98,.07-2.97,.07l6,.3c-.7-.1-1.3-.2-2.05-.3-.33-.04-.66-.07-.98-.07Zm3.03,.37c1.82,.26,3.58,.51,5.17,.76,1.11-.11,2.22-.21,3.32-.34l-8.49-.42Zm106.29,2.67c-4.42-.14-8.77,1.27-13.18,1.47,.25,.16,.49,.33,.72,.49l40.55,2c-3.43-.5-6.85-1.02-10.28-1.49-5.94-.82-11.82-2.28-17.81-2.47Zm28.09,3.96c3.82,.55,7.64,1.08,11.48,1.48,5.68,.59,5.13,.6,8.41-.5l-19.89-.98Z"/>
      <path id="path6982" d="M940.06,6.49c-6.06-.03-12.12,.09-18.18,.09-4.82,0-22.26-.65-22.26,7.91l4.17-.05c1.63-.25,3.26-.55,4.9-.78,5.42-.67,10.83-1.45,16.26-2.04,5.56-.58,11.15-.76,16.74-.88,5.98-.05,11.95-.42,17.91-.9,4.12-.28,8.2-.95,12.3-1.45,.88-.1,1.77-.13,2.66-.2-4.53-.18-9.06-.39-13.58-.62-4.95-.25-9.89-.86-14.84-.99-2.02-.05-4.04-.08-6.06-.09h0Zm138.24,5.71c4.74,.09,9.47,.13,14.25-.18l-14.25,.18Z"/>
      <path id="path6984" d="M985.85,.01c-6.84,.09-13.83,.77-20.44,1.13-6.59,.36-23.67,.86-28.69,1.48-5.01,.62-9.88,2.07-14.84,2.97-8.42,1.53-18.23,3.78-27.78,4.61l48.32,.52c5.73-.08,11.45-.42,17.17-.88,4.12-.28,8.2-.95,12.3-1.45,4.3-.51,8.64-.58,12.96-.68,3.48-.1,6.97,.03,10.44-.28,3.54-.5,7.08-.8,10.66-.87,1.92-.05,3.84-.05,5.76-.02,1.92,.04,3.84,.12,5.75,.24,5.36,.34,9.54,1.69,12.68,3.61,.06,0,.12,0,.18-.01,1.32-.1,2.64-.2,3.96-.31,.85-.07,1.69-.1,2.49-.11,4.24-.05,7.78,.67,10.63,1.89l15.95,.17c-11.05-1.84,14.52,2.5-14.84-3.46-6.56-1.33-13.18-2.39-19.79-3.46-6.51-1.06-27.2-4.41-36.11-4.95-2.23-.13-4.49-.17-6.77-.14h0Zm-91.74,10.19l-14.27-.15c4.53,.65,9.37,.58,14.27,.15Z"/>
      <path id="path9906" d="M325.67,187.98c3.03-1.4,5.7-3.53,8.74-4.9,1.24-.56,2.62-.81,3.85-1.4,3.29-1.57,6.54-3.71,8.74-6.65"/>
      <path id="path9908" d="M330.22,183.78c2.95-7.12,10.06-11.83,17.14-14.34,1.71-.61,3.54-.79,5.25-1.4,1.71-.62,3.63-1.83,5.25-2.8"/>
      <path id="path9910" d="M319.73,188.33c.93-2.65,2.68-4.31,4.55-6.3,9.02-9.62,13.61-11.8,25.53-18.54,7.75-4.38,15.88-9.29,24.14-12.59"/>
      <path id="path9912" d="M338.96,180.63c3.75-7.87,10.74-10.75,18.19-15.04,5.02-2.89,10.33-5.23,15.39-8.05,1.64-.91,3.38-1.69,4.9-2.8,1.07-.78,1.87-1.87,2.8-2.8"/>
      <path id="path9914" d="M354.01,161.04c1.42-1.83,3.67-4.98,5.6-6.3,1.72-1.17,3.74-1.85,5.6-2.8,20.25-10.35,.57-.67,18.89-9.09,2.94-1.35,5.84-2.78,8.74-4.2,1.87-.91,3.73-1.87,5.6-2.8,2.2-1.1,1.32-1.05,2.45-1.05"/>
      <path id="path9916" d="M388.29,144.95c6.59-7.16,14.98-12.85,23.09-18.19,8.68-5.71,4.31-3.65,12.59-6.3,3.51-1.12,2.01-1.05,3.85-1.05"/>
      <path id="path9918" d="M399.13,138.31c9.74-12.01,25.11-17.92,39.53-22.04"/>
      <path id="path9920" d="M405.08,136.21c6.27-6.42,13.75-9.89,22.04-12.94,11.54-4.24,14.32-5.41,25.19-7.7,1.61-.34,3.28-.38,4.9-.7"/>
      <path id="path9922" d="M413.82,136.21c4.4-5.28,1.8-2.42,11.89-10.49,3.03-2.43,6.65-5.14,10.14-7,13.39-7.12,28.69-9.39,42.67-15.04,3.24-1.31,6.23-3.17,9.44-4.55"/>
      <path id="path10695" d="M1421.26,328.37c-.63,3.8-.18,.44,0,8.16,.03,1.4-.09,2.81,0,4.2,.3,4.69,1.84,9.33,2.97,13.85,1.32,5.27-.55,5.19,1.48,5.19"/>
      <path id="path10697" d="M1415.57,330.35c.84,.35,3.01,.81,3.71,1.98,.06,.11-.03,.56,0,.74,.32,1.73,.83,3.44,.99,5.19,.34,3.78,.26,7.59,.49,11.38,.27,4.38,1.37,8.58,2.23,12.86"/>
      <path id="path10699" d="M1420.02,330.1c-1.25,5.27,.61,9.71,1.48,14.84,.51,2.99,.9,9.43,1.73,12.37,1.2,4.25,2.93,8.85,5.44,12.61"/>
      <path id="path10701" d="M1413.1,327.63c2.51,5.51,3.13,11.15,4.45,17.07,.65,2.91,1.55,5.75,2.23,8.66,.01,.04,2.75,13.26,2.97,14.59,3.13,18.75-1.6-6.62,1.73,10.88"/>
      <path id="path10703" d="M1419.78,340.24c.96,9.58,1.5,19.17,2.97,28.69,.75,4.86,1.42,9.69,2.97,14.35"/>
      <path id="path10705" d="M1413.1,343.21c1.4,2.39,3.07,4.64,4.2,7.17,1.02,2.28,1.56,4.76,2.23,7.17,2.69,9.75,4.26,19.88,7.67,29.43,.66,1.84,1.77,3.49,2.72,5.19,.79,1.41,.74,.51,.74,1.24"/>
      <path id="path10707" d="M1426.46,374.38c.25,.66,.44,1.34,.74,1.98,.44,.93,1.08,1.77,1.48,2.72,1.73,4.03,2.76,6.82,3.22,11.13,1.08,10.23-1.19-1.64,.49,8.16,.35,2.02,1.24,4.11,1.24,6.18"/>
      <path id="path10709" d="M1423.24,378.58c1.73,1.04,1.93,.9,2.97,3.46,3.81,9.35,3.72,11.29,6.43,20.78,.85,2.98,1.78,5.95,2.72,8.9,.22,.69,1.64,3.04,0,2.23"/>
      <path id="path10717" d="M1429.42,391.2c5.5,5.66,4.95,15.21,4.95,22.51,0,1.81,.29,4.2-.49,4.2"/>
      <path id="path10719" d="M1434.12,413.21c0-1.02-2.94-8.48-3.22-9.4-.64-2.12-1.26-4.26-1.73-6.43-.75-3.49,.26-6.99-1.73-10.39,2.36,2.36,3.11,2.76,4.7,5.94,1.96,3.92,2.69,8.41,3.71,12.61,.38,1.57,.88,3.12,1.24,4.7,.94,4.11,1.64,8.18,3.22,12.12"/>
      <path id="path10721" d="M1427.2,386.5c2.19,5.79,6.68,13.36,6.68,19.79"/>
      <path id="path10723" d="M1415.82,354.1c2.72,4.2,4.48,9.01,5.69,13.85,.12,.49,.11,1,.25,1.48,.27,.93,.68,1.81,.99,2.72,.7,2.11,1.19,4.28,1.73,6.43"/>
      <path id="path10725" d="M1418.05,347.91c3.28,5.02,5.91,11.34,6.68,17.31,.35,2.7,0,5.44,0,8.16v3.22c0,1.12,0,3.1,0,1.98"/>
      <path id="path10727" d="M1420.77,338.76c2.8,6.25,2.77,12.47,3.71,19.29,.5,3.64,1.2,7.25,1.73,10.88,.27,1.86,.1,5.84,1.48,7.92"/>
      <path id="path10729" d="M1414.58,323.42c0,15.19-.31,2.81,.49,12.86,.21,2.64,.25,5.28,.49,7.91,.28,2.98,.99,5.92,1.24,8.9,.07,.82-.04,1.65,0,2.47,.07,1.42,.25,2.56,.25,3.96"/>
      <path id="path10731" d="M1412.85,319.71c4.83,6.27,5.58,14.38,6.43,22.01,.34,3.05,.41,6.14,.99,9.15,.33,1.72,1.24,3.27,1.73,4.95,.26,.89,.26,1.83,.49,2.72,.35,1.35,1.04,2.63,1.48,3.96"/>
      <path id="path10733" d="M1418.54,330.1c3.48,6.86,5.73,14.32,6.43,22.01,1.58,17.42-.29,1.12,.74,14.59,.58,7.56,.49,.77,.49,5.69"/>
      <path id="path10735" d="M1418.79,335.54c4.29,3.99,5.07,10.14,6.18,15.58,1.55,7.6,1.08,4.7,1.98,12.37,.25,2.14,.4,4.3,.74,6.43,1.93,11.85,.43-.81,1.24,6.43"/>
      <path id="path10737" d="M1416.81,335.54c1.24,3.79,2.47,7.59,3.71,11.38,.91,2.47,1.9,4.92,2.72,7.42,1.24,3.79,1.83,7.76,2.72,11.63,.19,.84,.53,1.64,.74,2.47"/>
      <path id="path10739" d="M1419.53,336.53l.49,1.98c1.62,6.46,2.71,9.33,3.22,15.34,.24,2.9-.27,7.34,.74,10.39"/>
      <path id="path10741" d="M1415.82,338.76c1.17,3.84,2,7.79,3.22,11.63,.4,1.27,1.09,2.44,1.48,3.71,.27,.88,.29,1.82,.49,2.72,.13,.59,.38,1.14,.49,1.73,.13,.65,.05,1.34,.25,1.98,1.55,5.08,1.48,2.23,1.48,4.2"/>
      <path id="path10743" d="M1416.31,333.57c4.68,8.91,4.9,17.46,5.44,27.21,.07,1.24,.05,2.49,.25,3.71,.57,3.6,.49-.48,.49,1.48"/>
      <path id="path10745" d="M1413.84,330.6c1.16,13.57-.38,4.01,2.47,13.6,.41,1.38,.56,2.83,.99,4.2,.85,2.69,2.28,5.18,2.97,7.92,.16,.64,0,1.32,0,1.98"/>
      <path id="path10747" d="M1411.37,332.82c.58,1.07,1.15,2.14,1.73,3.22,1.15,2.14,2.51,4.19,3.46,6.43,1.35,3.19,2.46,8.41,3.22,11.87,1.27,5.82,.09-.05,.49,3.96,.27,2.67,.25,.26,.25,1.24"/>
      <path id="path10749" d="M1415.82,332.58c.16,.82,.25,1.67,.49,2.47,5.12,16.55,.65-.8,4.45,16.08,.71,3.14,1.46,6.27,2.23,9.4,.18,.74,1.02,2.75-.25,1.48"/>
      <path id="path10751" d="M1414.09,331.83c3.8,7.6,6.24,15.29,7.67,23.74,.52,3.1,.53,6.26,.74,9.4,.03,.49,.35,1.13,0,1.48-.3,.3-.1-.84-.25-1.24-.43-1.18-.99-2.31-1.48-3.46"/>
      <path id="path10753" d="M1414.09,326.64c.58,1.15,1.31,2.24,1.73,3.46,2.59,7.43,2.13,7.35,2.97,14.59,.15,1.32,.38,2.63,.49,3.96,.05,.57,0,1.15,0,1.73,0,.25,.22,.63,0,.74-.55,.28-.49-.55-.49-.74"/>
      <path id="path10755" d="M1414.09,320.21c.91,7.73,1.88,15.5,2.72,23.25,.76,7.01,.74,4.06,.74,6.68"/>
      <path id="path10757" d="M1412.11,325.65c1.34,5.23,4.66,9.66,6.18,14.84,.16,.56,.11,1.17,.25,1.73,.53,2.1,.49,.65,.49,1.48"/>
      <path id="path10759" d="M1411.12,323.92c1.71,5.85,3.69,11.74,4.45,17.81,.13,1.07,.07,2.16,.25,3.22,.07,.44,.35,.82,.49,1.24,.03,.08-.08,.25,0,.25,.17,0-.46-1.62-.49-1.73"/>
      <path id="path10761" d="M1410.87,329.11c.08,.41,.12,.84,.25,1.24,3.42,10.68,.13-1.19,3.22,10.88,.4,1.57,.96,3.1,1.24,4.7,.14,.81-.05,1.65,0,2.47,.03,.5,.19,.99,.25,1.48,.02,.16,0,.33,0,.49,0,.08,0-.16,0-.25"/>
      <path id="path10763" d="M1412.36,329.61c2.76,6,3.8,12.5,4.2,19.05,.45,7.25-.54,2.15,.25,9.4,.16,1.5,.49,2.97,.74,4.45,.23,1.33,.74,4.11,.74,2.97"/>
      <path id="path10765" d="M1414.58,335.3c.91,4.54-1.1-5.09,2.72,7.42,2.85,9.34,1.5,7.31,2.72,16.82,.55,4.3,1.22,8.59,1.98,12.86,.4,2.25,.93,4.47,1.48,6.68,.35,1.42,.77,2.82,1.24,4.2,.12,.35,.29,1.3,.49,.99,.76-1.13-.19-1.99-.74-2.72"/>
      <path id="path10767" d="M1419.04,349.64c.33,.91,.58,1.85,.99,2.72,.83,1.77,1.97,3.39,2.72,5.19,2.1,5.1,3.91,13.89,4.2,19.54,.09,1.73-.16,3.47,0,5.19,.09,1.02,.42,2,.74,2.97,.06,.17,.25-.31,.25-.49"/>
      <path id="path10769" d="M1419.04,352.36c1.57,3.38,3.32,6.68,4.7,10.14,2.96,7.45,3.43,14.6,3.96,22.51,.06,.9,0,1.81,0,2.72,0,.49,.27,1.9,0,1.48-.58-.87-.61-1.99-.99-2.97-.45-1.17-.99-2.31-1.48-3.46"/>
      <path id="path10771" d="M1419.53,346.92c4.77,6.86,5.59,15.25,6.93,23.25,.44,2.63,.85,5.27,1.24,7.92,.27,1.81,.52,3.62,.74,5.44,.11,.9,.82,2.01,.25,2.72-.4,.5-.95-.91-1.24-1.48-.47-.93-.66-1.98-.99-2.97"/>
      <path id="path10773" d="M1415.08,339.01c.69,2.76,.14,.67,1.98,6.18,.74,2.23,1.63,4.41,2.23,6.68,1.05,4.02,.67,8.06,1.24,12.12,.31,2.24,.84,4.45,1.24,6.68,.07,.42,.71,2.69,0,1.98"/>
      <path id="path10775" d="M1416.56,340.24c3.39,6.47,4.29,13.67,5.44,20.78,.51,3.13,1.04,6.26,1.48,9.4,1.19,8.34,.09,3.68,1.73,10.64,.02,.08,.02-.17,0-.25-.31-1.08-.66-2.14-.99-3.22"/>
      <path id="path10777" d="M1415.33,338.27c1.52,7.02,4.83,13.59,5.69,20.78,.42,3.53,.46,7.09,.74,10.64,.2,2.48,.74,5.14,.74,7.67"/>
      <path id="path10779" d="M1416.07,351.62c2.92,2.97,6.03,7.66,6.93,11.87,.35,1.63,.93,7.35,1.24,9.4,.81,5.49,.24-.28,.99,6.43,.03,.25-.08,.51,0,.74,.03,.08,.16,0,.25,0"/>
      <path id="path10781" d="M1417.3,352.86c3.38,8.1,5.56,16.58,6.93,25.23,.13,.82,.25,3.3,.25,2.47"/>
      <path id="path10783" d="M1419.04,353.6c.25,1.57,.45,3.14,.74,4.7,.37,1.99,.92,3.94,1.24,5.94,.6,3.76,.7,7.61,1.24,11.38"/>
      <path id="path11431" d="M465.29,1203.71c4.1,1.62,8.51,2.2,12.86,2.72,5.35,.64,9.94,1.48,15.34,1.48"/>
      <path id="path11433" d="M469,1202.48c5.22,2.2,10.68,4.39,16.32,5.19,4.19,.6,5.14,.49,8.9,.49,.93,0,2.8-.3,3.71,0,.11,.04,.14,.2,.25,.25,.34,.17,1.09,0,1.48,0"/>
      <path id="path11437" d="M469,1204.7c4.26,1.35,7.74,2.55,12.37,3.22,5.67,.81,10.06,.91,15.83,.99,2.97,.04,5.94-.13,8.9,0,8.05,.35,7.47,1.25,15.09,.74,1.22-.08-.09-1.16-.25-1.24-.29-.15-.66,0-.99,0"/>
      <path id="path11439" d="M464.05,1206.19c.49-.08,.99-.31,1.48-.25,.78,.1,1.48,.49,2.23,.74,.99,.25,1.96,.62,2.97,.74,1.8,.21,3.63,.22,5.44,.25,18.03,.23,8.43-.01,22.51-.25,3.22-.05,6.45,.32,9.65,0,1.23-.41,1.67-.64,2.97-.74,2.12-.16,4.3,0,6.43,0"/>
      <path id="path11441" d="M502.88,1208.66c2,.42,4.16,.3,6.18,.25,1.82-.05,3.63-.25,5.44-.25,3.38,0,6.76,.41,10.14,.49,3.79,.09,7.59,.11,11.38,0,.83-.02,1.65-.12,2.47-.25,.26-.04,.63-.01,.74-.25,.08-.16-.36-.12-.49-.25-.57-.57,.06-.49-.49-.49"/>
      <path id="path11443" d="M527.37,1202.73c-4.29,2.21-8.92,2.39-13.6,2.72-4.53,.32-8.5,.93-13.11,.74-5.53-.23-11.04-.88-16.57-1.24-12.5-.82-6.22,.06-15.58-1.24-2.14-.3-3.26-.42-5.19-.99-2.57-.76-5.17-2.23-7.91-2.23"/>
      <path id="path11445" d="M461.08,1205.69c9.4,.68,18.8-.13,28.2-.25,4.37-.06,8.75,.25,13.11,0,2.91-.17,5.76-.89,8.66-1.24,13.52-1.61,2.55-.23,13.85-.74,1.66-.07,3.29-.41,4.95-.49,3.95-.21,8.6,.33,12.37,.49,4.65,.2,1.77-.29,4.45,.25"/>
      <path id="path11447" d="M519.45,1204.95c8.72,1.46,17.5-.34,26.22-.99,.74-.06,1.49,.07,2.23,0,.57-.28,.68-.25,.25-.25"/>
      <path id="path11449" d="M533.3,1206.93c.41,.33,.76,.75,1.24,.99,2.76,1.38,9.78,.04,12.37-.25,.57-.06,1.16,.08,1.73,0,.69-.1-1.38-.49-2.23-.49"/>
      <path id="path11451" d="M527.86,1207.42c-11.33,.16-22.61-1.34-33.89-2.23-11.31-.89-10.02-.42-20.03-1.48-11.3-1.2-9.72-1.51-18.06-1.73-5.13-.14-10.2,.74-15.34,.74"/>
    </g>
  </g>
</svg>