<?xml version="1.0" encoding="UTF-8"?>
<svg id="Layer_2" data-name="Layer 2" xmlns="http://www.w3.org/2000/svg" viewBox="0 0 890.43 354.93">
  <g id="svg9">
    <g id="g15">
      <path id="path3886" d="M743.89,0c.15,.75,.27,1.51,.36,2.29,.52,3.37,.92,6.78,.92,10.2,3.5,3.14,7.92,6.96,9.13,8.02,13.62,10.78,35.34,31.75,45.39,41.18,23.29,37.81,7.67,.55,17.78,26.59,11.12,3.57,18.04,23.17,36.51,57.01,18.73,9.42,11.61,44.6,24.15,62,5.76,37.02-10.82,77.3-41.77,96.21-41.43,32.52-99.32,35.05-150.82,36.13-13.71-.26-27.38-.97-40.98-2.09-.19,.52-3.75,1.48-5.22,.22,2.09-.35,2.86-.35,3.76-.38-94.95-8.05-187.33-36.29-274.49-72.52-65.83-26.17-128.09-59.64-188.56-95.77-38.95-26.29-78.13-52.34-114.05-82.57C46.87,70.25,26.02,53.14,7.16,35.38c-2.17,1.46-4.36,2.88-6.54,4.33-.21,.13-.41,.26-.62,.38,9.67,7.14,18.31,16.73,29.61,26.69-1.03-.77-1.54-1.29-2.91-2.21,6.71,7.38,9.76,8.44,7.5,5.96,4.51,3.73,9.19,7.49,14.83,11.1,24.58,19.87,41.9,33.93,57.91,46-5.04-3.66-10.29-7.47-18.73-12.91,28.58,23.76,37.1,27.17,25.89,18.18,14.66,10.74,28.53,19.98,45.73,29.76,.67,.9,2.49,2.44,3.5,3.53-4.84-3.14-10.31-6.64-19.26-11.77,11.28,8.42,18.5,13.1,23.52,16.06,30.8,28.84,131.45,95.45,118.34,74.64,81.3,38.38,166.57,72.78,256.08,90.81-32.47-9.36-35.23-12.19-26.58-11.79-.43,.06-.6-.02-1.41,.24,.37,1.63,2.38,.49,2.49-.12,1.18,.07,3.87,.74,5.36,.91-.33-.1-1.07-.03-2.51,.43,.44,1.9,3.45-.08,2.54-.43,1.35,.15,3.31,.61,4.85,.83-.4-.03-.88-.03-2.06,.35,.4,1.78,2.84,.22,2.44-.29,18.58,2.66,47,8.79,43.14,11.85,52.18,10.78,74.61,19.8,127.66,16.22,26,.96-40.63-5.46,17-3.27,2.64,0,3.08-.21,5.42-.24,.79-1.18,10.47-3.4,29.57-3.67-7.63,1.81-12.35,2.44-17.06,3.11,36.61-1.93,21.01-8.5,45.07-6.39,53.85-15.23,55.8-28.51,39.82-20.38,9.14-5.01,13.93-3.94,21.06-14.76,8.9-1.5,40.37-33.49,22.96-17.23,9.75-11.07,12.97-16.34,22.64-31.26,6.57-11.14,3.72-23.02,2.05-23.26,6.47-24.26,6.46-57.64-10.91-77.82,5.54-14.26-22.85-28.5-18.19-46.65-10.25-5.59-17.21-27.44-31.46-37.01-13.63-20.63-35.35-34.77-51.38-50.85C766.65,15.05,755.68,7.72,743.89,0h0ZM55.61,92.26c18.75,23.12,126.46,94.54,92.24,68.15-31.74-21.28-62.92-43.6-92.24-68.15Zm131.61,88.9c43.57,22.84,67.56,41.97,8.3,5.45l-8.3-5.45Zm103.42,60.5c4.52,1.52,7.16,2.77,11.11,4.24,10.85,5.56,79.35,40.35-.24,3.44l-7.56-3.96-3.32-3.72h0Zm165.92,64.71c.96,.33-2.11,2.37-2.55,.45,1.46-.48,2.23-.56,2.55-.45Zm49.34,14.96c.96,.33-2.12,2.37-2.55,.44,1.46-.48,2.23-.55,2.55-.44Zm5.33,1.33c.96,.33-2.11,2.38-2.54,.45,1.46-.48,2.24-.56,2.54-.45Zm21.33,4.91c-.32-.11-1.09-.03-2.55,.44,.44,1.91,3.51-.11,2.55-.44Zm5.34,1.36c-.32-.11-1.09-.04-2.55,.44,.43,1.93,3.51-.11,2.55-.44Zm5.33,1.4c-.31-.11-1.08-.03-2.54,.45,.43,1.93,3.5-.11,2.54-.45Zm12,3.88c-.32-.11-1.09-.03-2.55,.44,.43,1.93,3.5-.11,2.55-.44Zm5.98,.39c-.45-.08-1.45,.04-3.28,.58,1,1.75,4.62-.35,3.28-.58Zm7.35,1.42c-.32-.11-1.09-.04-2.55,.44,.43,1.93,3.51-.11,2.55-.44Zm15.35,2.37c1.62,.25-2.72,2.21-3.95,.52,2.2-.49,3.41-.6,3.95-.52Zm5.98,1.4c.96,.33-2.11,2.37-2.55,.45,1.46-.48,2.23-.56,2.55-.45Zm5.33,1.34c.96,.33-2.12,2.37-2.55,.45,1.46-.48,2.23-.56,2.55-.45Zm12.68,1.13c1.63,.25-2.71,2.2-3.95,.51,2.2-.49,3.41-.6,3.95-.51Zm11.32,1.27c1.92,.21-3.15,2.18-4.63,.57,2.58-.52,3.99-.64,4.63-.57Zm11.34,1.44c1.63,.25-2.69,2.18-3.95,.51,2.2-.49,3.41-.59,3.95-.51Zm108.66,.09c.96,.33-2.12,2.37-2.55,.44,1.46-.48,2.23-.56,2.55-.44Zm-9.33,1.33c.96,.34-2.12,2.37-2.55,.44,1.46-.48,2.23-.55,2.55-.44Zm-15.32,1.17c2.48,.2-4.03,2.11-5.98,.56,3.33-.51,5.15-.63,5.98-.56Zm-49.33,.01c3.6,.18-5.79,1.96-8.65,.53,4.81-.47,7.45-.59,8.65-.53Z"/>
    </g>
  </g>
</svg>