<?xml version="1.0" encoding="utf-8"?>
<!-- Generator: Adobe Illustrator 27.0.1, SVG Export Plug-In . SVG Version: 6.00 Build 0)  -->
<svg version="1.1" id="Layer_2_00000023989145620477399530000016265466618829860230_"
	 xmlns="http://www.w3.org/2000/svg" xmlns:xlink="http://www.w3.org/1999/xlink" x="0px" y="0px" viewBox="0 0 934.5 1024.2"
	 style="enable-background:new 0 0 934.5 1024.2;" xml:space="preserve">
<style type="text/css">
	.st0{fill:none;}
</style>
<g id="svg9">
	<g id="g15">
		<path d="M134.7,512.6L134.7,512.6c-0.8,1-1.5,2.6-2.4,3.4C132.9,515.5,133.6,514.7,134.7,512.6z"/>
		<path d="M308.5,320c-0.4,1.8,1.6,0.8,5.1-6.6c-0.9,0.8-1.2,1.4-1.9,2.1c1-1.4,2-2.6,2.9-4.2l0,0
			C269.6,350.3,287.3,348.7,308.5,320z"/>
		<path d="M46.2,657.6c-5.7,4.2-8.2,14.2-9.7,21.3C32.3,694.3,31.7,693.8,46.2,657.6z"/>
		<path d="M347,284.6c-7.9,11.5,5.4,1.8,20-9.9c-4.1,2.7-12.7,7.1-16.5,6.1c-9,7.5-18.8,14.2-27.3,22.2
			C318.2,309.3,322.1,307.5,347,284.6z"/>
		<path d="M15,741c1.5-5.4,4.2-13.8,8.1-24.8C19.8,724.2,16.7,732.5,15,741z"/>
		<path d="M861.5,16.2c-32.2,10-70.7,13.5-10.7-0.4c-24.1,2.9-48.2,10.1-9.2-0.4c-0.2,0-0.4,0-0.7,0h-0.1c-18.4,2.5-37.2,2-55.6,4.7
			c-32.7,7.6-74.9,26.7-103,39c9.9-5.9,31-16.9,33.7-18.3c-55.9,20-109.7,48.4-159.2,75.6c0.1,0.1,0.3,0.1,0.4,0.2
			c3.1-1.5,6.2-3.1,9.1-4.6c-1.8,3,0.4,6.7,4.1,8.8c-11,7-21.7,13.1-30.8,16.4c-0.1,0.1-0.1,0.1-0.1,0.2c-0.5,0.5-1,0.8-1.6,1
			c-0.6,0.3-1.2,0.5-1.9,0.4c-0.1,0-0.1,0-0.2,0c-0.1,0-0.3,0-0.4,0c-13.2,7-21.4,19.7-37.9,24.9c58.5-46.7-5.3-10.5-21.6,7.1
			c-18,12.8-36.9,22.7-52,38.3c11.8-8.5,23.6-16.8,35.4-25c4.8,9.5-8.9,5.1-12.6,22.2c-1.8,3.1-3,4.7-3.9,5.6
			c2.3-1.6,4.8-3.2,7.2-4.8c0.3,1.1,1.7,0.2,3.7-2.5c-1.2,0.9-2.5,1.7-3.7,2.5c-0.3-1.8,1.7-6.3,8-10c-1.7,3.9-3,5.7-4.3,7.5
			c10-6.8,21-13.6,31.7-20.2v-1.6h2.6c14.8-9.2,29-18.2,39.1-26.8c-87.8,58.6-38.3,16.7,8.8-7.8c-6.3,8.8-24.8,23.5-45.7,38.4v0.5
			c28.6-20.1,55.9-37.9,78.6-50.7c-67.7,36.5,26.3-18.7,31.4-22.5c4.8,4.9-18.6,17.6,21.5-4.9c79.8-40.9,167.8-74.9,244.5-92.7
			C634.6,3.6,424.8,226.2,861.5,16.2z M573.6,128.4c-65.8,36.7-3.4-1.8,21.7-16.2c2.6,0.2,4.1,0.8,4.9,1.5
			C598.6,114.4,590.9,118.6,573.6,128.4z M584.7,112.3c0.1-0.3,0.2-0.6,0.3-0.9c1-0.3,1.7-0.5,2.7-0.9l0,0
			C586.7,111,585.7,111.7,584.7,112.3z M580.9,108.8c-2.7-0.1-5.8-0.5-7.7-0.2c37.7-19,86.1-42.1,80.4-38.6l0,0
			c-2.4,1.5-15,7.9-42.9,21.7C594.1,100.4,585.7,105.4,580.9,108.8z M667.6,66c1.6,4.4-34.2,19.7-37.7,20.6
			c-4.9,3.5-12,5.1-25.4,12.6C609.1,91,650.4,75.2,667.6,66z M676.2,74.2c-40.5,23-95.6,45.2-22.9,10.4
			C657.7,82.5,671.8,75.6,676.2,74.2z M658.2,85.6c4.6-2.3,14.2-6.7,19.1-8.4C637.6,104.9,574.2,123.2,658.2,85.6z M681.2,59.8
			c2.6-0.8,10.1-3.4,28.7-10.4C675.5,64.9,673.4,64.6,681.2,59.8z M744.7,45.4c-47.8,21.7-89.1,39.1-17.2,9.9
			c55.7-14.8-117.7,47.3-10,1C726.6,52.8,735.4,48.4,744.7,45.4L744.7,45.4z M791.8,32.1c56.5-19.9-98,30.7-13.5,1.5
			c10.8-3.4,21.5-7.2,32.7-9.5l0,0C786.6,46.1,706.7,56.5,791.8,32.1z"/>
		<path d="M301.6,337.3c39.1-37.3,117-100.1,187.3-149.5h-0.7c-34.1,24.2-73.6,48.6-75.6,49.3c3.6-3.7,7.8-7.5,12.1-11.2
			c-2.3,0.1-2-3.3,8-10.2c-0.4,2.3-1.2,4-2.1,5.5c3.5-2.8,7-5.6,10.8-8.4c-2.7,0.3-1.2-11.8-17.2,4.2c-5.8,7.6-10.4,7.5-12.9,6.4
			c2.1-1.4,4.5-2.5,7.5-2.5c35-30.9,17.8-18.2-8,2.4c-0.3-0.2-0.5-0.3-0.6-0.4c0.1,0.1,0.3,0.2,0.5,0.4c-4,3-6.6,5.3-9.6,8.8
			c0.7,3.7-1.6,4.2-2.7,3c-1.5,1.6-3.1,3.2-4.7,4.9c3.1,0.5-2.3,13-13.5,24.4c18.6-15.4,30.8-26.3-5.7,7.5
			c-37,22.6-112.1,102.1-84.8,59.8c5.1-5.6-0.5-0.7-5.8,4c0.7-0.9,1.3-1.5,2.1-2.6c-4.2,3.4-5.5,5.1-5.9,5.9c-3.3,2.8-2.9,2,1.9-3.1
			c-24.5,16-41.2,40.1-60,61.5c15.4-17.6,33.8-37,47.9-51c-4,6.9-33.8,37.5-16.9,21.5c-13.2,16.3-18.4,22.8,15.8-8.9
			c0,0.2-0.4,0.7-0.5,0.9c-10.4,8.7-5.5,8.2-0.1,0.2c-2.3,8.5-43,47.7-55,54.4c8.1-1.1,3.6,3.5-3.9,9.6c-0.7-0.4-2-0.7-4.4-0.6
			c-4.8,4.8-3.7,5.5-1.6,5.3c-4.7,3.7-9.7,7.5-14.3,11.3c5.8-6.2,7.3-12.5,17.4-24.1c-18.2,19.2-29.7,43.8-46.6,64.2
			c2.4,7,15.2-5-14.8,20.1c-16.6,25.4-19.4,26.3-14.9,17.2c-0.3-0.2-1-1.1-1.6-1.8c-4.6,7.7-8,16.1-12.8,23.7c0.2,0,0.3,0.1,0.3,0.4
			c3.2-10.6,16.1-6.6,26.1-27.6c0.9-0.9,1.7-1.9,2.4-2.8c0.8-1-29.4,48.9-66,113.4C72.1,634,60.9,654,60.2,653.7
			c-0.4-0.2,2.6-6.3,3.8-8.9c15.8-36.1,43-73.8,57.8-106c-4.1-0.4-8.8,6.2-13.2,14c0-0.2,0.1-0.2,0.2-0.3c-4.3,2.4-3.8,5.7-2.1,4
			c-8.6,16.6-15,36.2-8.9,17c-14.9,21.5-9,9.1-0.2-6.4c-6.1,8.4-12.7,16.6-15.1,27c1-1.2,1.3-1.5,2.6-3.2c-0.8,2.3-4.8,8.1-4.5,9.3
			c-9.5,20.5-17.8,35.1-27.3,51.7c0.1-0.5,0.3-1.2,0.4-1.6c-0.7,1.3-1.1,2.5-1.7,3.9c0.5-0.7,0.9-1.5,1.3-2.3
			c-5.3,19.4-8.5,27.6-10,31.2c-0.7,1.6-2.8,6.3-3.1,6.2c-0.1,0,0-0.8,0.2-1.3c-1.1,3.1-1.7,5.7-4.1,7.3c2.2-13.5,10-27.8,14.9-40.7
			c-44,83.8-61.5,181.2-49.7,275.1c0.1,1.1-1.2-0.1-0.6,0.8c3.2,33.8,15.9,66.6,36.4,93.7c-6-18-12-36-18-54.1
			c4.3,10.2,8.6,20.4,12.9,30.7C11,948.2,6.8,890.1,14,834.1c11.6-90.1,50.6-175,94.7-253.5c0.4-0.6,0.7-1.3,1.1-1.9
			c8.8-15.5,17.9-30.8,27-46.1c-4.7,7.9,2.3,1.9,10.3-14.2c-5,6.2-8,10.6-9.9,13.5c33.9-61.8,83.7-99.8,127-155
			c-25.4,24.3-63.9,59.7-7.9,1.5C282.8,346.7,376.6,264.7,301.6,337.3z M411,223.7c0.5,0.5,0.5,0.2,1.2,1.2
			C401.7,251.2,400.5,231.2,411,223.7z M54.5,669.4c0.9-2.1,4-10.5,5.7-12C45.9,701.1,25.8,734.7,54.5,669.4z M27.7,712.1l1.8-2.9
			C21.4,752.3,8.4,769.9,27.7,712.1z M17.7,778.6l1.7-5.6C12.3,821.4,3.3,837.8,17.7,778.6z M39,715.8l1.1-0.5
			C27.6,774.5,15.7,777,39,715.8z M55.4,675.3l8.4-17.1C53.1,698.5,26.6,737.9,55.4,675.3z M89.2,606.2
			c13.4-23.3,25.2-47.8,41.3-69.3C111.7,571.7,33.2,714.3,89.2,606.2z M146.6,506.4c1.6-2.7,3.1-5.3,5.7-7.7
			C150.9,500.3,148.9,502.9,146.6,506.4z M184.7,446.2c0.1,0,0.1,0.1,0.3,0.1c-1.2,2.5-1.4,4.3-0.7,5.1
			C181.5,452.2,179.2,451.5,184.7,446.2z M207.5,433c7.1-2.4,7.1-17.4,15.8-16.8C193.5,462.5,145.9,500.1,207.5,433z"/>
		<path d="M32.5,1001.7c3,8.1,6.3,16.1,10,24.2C39.3,1018.4,35.8,1009.9,32.5,1001.7z"/>
		<path d="M213.3,414.5c-0.9,0.1-2,0.3-3.2,0.6C210.4,415.8,211.5,415.5,213.3,414.5z"/>
		<path d="M226.6,423.7l-0.5,0.7L226.6,423.7z"/>
		<path d="M141,504l-0.1,0.1C141,504.1,141,504,141,504z"/>
		<path id="path7487" d="M787.2,26.3c20.3-2,42.4-12.3,64.3-12.9c22.6-1.6,22.2,2.2,43.5-4.9"/>
		<path id="path7489" d="M819.9,22.3c7.5-1.6,15.1-3.9,21.8-7.9c5.4-5.8,9.4-5.6,16.8-4.9"/>
		<path id="path7491" d="M790.2,22.3c8.8,0,3.2,0.4,15.8-3c19.6-7.2,37-5.2,57.4-6.9c10.3-1,10.3-1,6.9-1"/>
		<path id="path7493" d="M838.7,19.4c16-0.4,28.8-12.3,44.5-11.9c0,1.5-2.6,1.3-4,2"/>
		<path d="M875.3,10.5c-0.3,0-0.7-0.1-1-0.1v2.1c1-1,4-0.5,4-2C878.3,9.5,876.3,10.5,875.3,10.5z"/>
		<path d="M865.4,3.5c-12.9,2.5-35.6,6.8-42.5,18.8c15.6-9,21.7-13.6,40.6-12.9c3.6,0.1,7.3,0.6,10.9,0.9V3.6
			C871.7,4.4,868.2,3.2,865.4,3.5z"/>
		<path id="path7497" d="M857.5,11.4c18-3.4,14.3-8.7,36.6-7.9c3.2-0.2,9,3.7,11.9,3c-0.7,0-1.3,0-2,0"/>
		<path id="path7499" d="M908.9,2.5c1.3,0,5.3,0,4,0c-17.7-2.5-32.5,9.9-49.5,10.9c4.3-2,8.4-4.4,12.9-5.9c0.7-0.2,16.7-2,16.8-2
			c3.6-0.2,12,0,7.9,0"/>
		<path id="path7501" d="M878.3,11.4c5.3,0,5.1,0.1,4.8-0.1c10.2-3.5,31.7-3.9,42.7-3.9c2.2,0-0.2,0-1,0"/>
		<path id="path7503" d="M883.2,8.5c14.9-0.8,37.5-5.2,48.5-4.9c-12.3,2.2-6.1,2-13.8,2"/>
		<path id="path7505" d="M879.2,13.4c2.3-0.7,4.7-1,6.9-2c12.8-5.5,0.7-3.1,15.8-6.9c2.6-0.7,9.8-0.1,7.9-2c-0.5-0.5-1.3,0-2,0"/>
		<path id="path11423" d="M365.7,276.6c6.6-7.2,22.5-10.2,22-22"/>
	</g>
</g>
<path d="M382,223.5c-6.5,6.2-12.1,11.8-16.9,16.7c-8.5,8.6-14.6,15.2-18.6,20.1c-2.2,2.6,115.6-81.1,195.9-138.2
	c66.5-47.3,107.3-76.3,33.2-23.1c-191.9,137.9-371,303.3-371,303.3s-100.7,91.6,19.5-34.6c83.1-87.3,156.2-139.6,192.9-162.7
	c16.4-10.3,25.6-14.8,25.3-14"/>
<path class="st0" d="M85.9,1022.7c0,1.1,2.4,2,5.3,2"/>
<path class="st0" d="M928.6,5.2c0,1.1,2.4,2,5.3,2"/>
<path class="st0" d="M8.2,1023.7C-146.5,689,350.9,53.8,888.9,5.4"/>
<path class="st0" d="M931.7,3.6c0,21.6-41.8,39.1-93.5,39.1"/>
<path class="st0" d="M42.5,1025.9c0,21.6-41.8,39.1-93.5,39.1"/>
<path class="st0" d="M-51,1065C-51,478.3,388.5,3.6,931.7,3.6"/>
<path class="st0" d="M-51,1065C-51,478.3,388.5,3.6,931.7,3.6"/>
<path class="st0" d="M-51,1065C-51,478.3,388.5,3.6,931.7,3.6"/>
<path class="st0" d="M-51,1065c0-17.7,25.7-32.1,57.4-32.1"/>
<path class="st0" d="M-55.8,1063.6c0,0.2,0.5,0.4,1.1,0.4"/>
<path class="st0" d="M28,1046.8c0-0.3,0.3-0.5,0.7-0.5"/>
<path class="st0" d="M41.1,1042.8c0-0.1,0.2-0.2,0.6-0.2"/>
<path class="st0" d="M66.9,1017.3c0,0.5-0.2,0.9-0.6,0.9"/>
<line class="st0" x1="41.4" y1="1023.5" x2="41.4" y2="1023.5"/>
<path class="st0" d="M931.7,3.6c0,0,0.4,0,1,0"/>
<path class="st0" d="M931.7,3.6c-10.6,2.4-21.1,5-31.6,7.7c-11.6,3-23.1,6.1-34.6,9.5c-3.1,0.9-6.1,1.8-9.2,2.7
	c-1.6,0.5-3.3,1-4.9,1.5c-4.1,1.2-8.2,2.5-12.2,3.8c-8.5,2.7-17.1,5.5-25.5,8.4c-11.6,3.9-23.1,8-34.6,12.3
	c-24.9,9.3-49.5,19.3-73.8,30.1c-14.3,6.3-28.4,12.9-42.4,19.7c-16.7,8.1-33.3,16.6-49.6,25.4c-18.2,9.8-36.1,19.9-53.7,30.5
	c-26.7,15.9-52.7,32.6-78,50.1c-15.9,11-31.5,22.2-46.8,33.7c-16.4,12.3-32.5,24.9-48.1,37.8c-20.8,17.1-40.9,34.6-60.3,52.4
	c-12.4,11.5-24.6,23.1-36.4,34.8c-16.9,16.8-33.3,33.9-48.9,51.2c-30.8,34-58.9,68.9-84.1,104.1c-7.1,10-14.1,20-20.7,30
	c-4,6.1-8,12.2-11.9,18.2c-3.5,5.6-7,11.2-10.4,16.8c-2.7,4.5-5.4,9-8.1,13.6c-3.9,6.7-7.6,13.3-11.3,20c-3.5,6.3-6.8,12.6-10.1,19
	c-3.6,6.9-7,13.8-10.4,20.8c-3.3,6.8-6.4,13.6-9.4,20.4c-4.1,9.2-7.9,18.3-11.6,27.4c-3.2,8-6.2,15.9-9,23.9
	c-2.3,6.6-4.6,13.2-6.7,19.8c-4.4,13.8-8.2,27.5-11.4,41c-3.1,12.9-5.6,25.7-7.5,38.4c-0.7,4.3-1.3,8.6-1.8,12.8
	c-0.8,6.6-1.5,13.1-2,19.6c-0.3,3.4-0.5,6.7-0.7,10c-0.2,4-0.4,8.1-0.5,12.1c-0.1,5.5-0.1,10.9,0,16.3c0.1,3.1,0.2,6.3,0.3,9.4
	c0.1,1.3,0.1,2.5,0.1,2.7c0,0,0.2,3,0.4,5.9c0.5,6.5,1.1,12.7,1.1,12.7c0.7,6.4,1.6,12.7,2.6,18.9c0.6,3.8,1.3,7.5,2.1,11.2
	c1.2,5.9,2.6,11.7,4.2,17.5c0.7,2.4,2.3,7.9,2.4,8.4c2.2,7.4,4.4,13.2,4.9,14.7c0.1,0.3,0.4,1,0.8,2c0.7,1.8,1.9,5.1,3.7,9.3
	c0.8,1.9,1.4,3.2,1.4,3.2c0,0-1.4-3.2-1.4-3.2c0,0,0.3,0.7,2.1,4.8c0.3,0.7,4,9.1,4,9.2"/>
</svg>
