<?xml version="1.0" encoding="UTF-8"?>
<svg id="Layer_2" data-name="Layer 2" xmlns="http://www.w3.org/2000/svg" viewBox="0 0 61.88 18.46">
  <g id="svg9">
    <g id="g15">
      <path d="M0,5.03c1.84,.17,4.06,.74,7.24,2.33,7.16,1.75,14.42,1.35,21.61,.77-2.52-.2-5.03-.57-7.48-1.23-.13-.04-.27-.08-.4-.12-.8-.12-1.59-.24-2.39-.37-.01,.6-1.97,1.82-2.34,.15,.9-.29,1.14-.23,1.57-.27-3.3-.51-6.58-1.08-9.85-1.75-.82,.44-1.9,.72-2.46-.29,.29-.09,.27-.03,.52-.09-.04-.02-.03-.05-.07-.07-2.12-.66-2.43-2.4-1.32-3.21C3.6,.63,2.48,.27,1.46,0c-.21,.49-.42,.98-.61,1.47C.47,2.64,.23,3.83,0,5.03Z"/>
      <path id="path5288" d="M.62,2.26C.38,3.11,.2,3.98,.03,4.86c.76,.07,1.79,.14,3.45,.25,2.29,.15,4.6-.05,6.89-.09-1.04-.2-2.07-.4-3.1-.62-.69-.03-1.25-.19-1.68-.43-.91-.37-1.42-.95-1.57-1.54l-3.42-.19Zm15.81,3.82c.28,.13,.78,.27,1.75,.43,.43,.07,.86,.06,1.29,.04-1.01-.15-2.03-.3-3.04-.47h0Zm8.78,1.62c.22,.08,.44,.16,.67,.21,.62,.12,1.26,.14,1.9,.12-.86-.09-1.72-.19-2.57-.32Z"/>
      <path id="path5290" d="M4.68,3.43l-3.99,.28c6.24,2.14,12.58,2.85,18.96,2.87-4.14-.62-8.27-1.31-12.37-2.17-.69-.03-1.25-.19-1.68-.43-.37-.15-.68-.34-.92-.55h0Z"/>
      <path id="path5802" d="M10.46,7.75c3.99,.83,7.15,3.73,10.88,5.19,1.19,.47,2.47,.66,3.71,.99,7.1,1.88,2.49,.93,10.64,1.73,4.46,.44,8.88,1.38,13.36,1.48,5.56,.13,3.71,.06,3.71-2.47"/>
      <path id="path5804" d="M15.4,8.24c6.73,1.71,12.86,5.36,19.54,7.17,3.98,1.08,8.03,1.97,12.12,2.47,2.7,.33,5.44-.11,8.16,0,1.57,.07,3.15,.8,4.7,.49,.85-.17-.79-1.28-.99-1.48L15.4,8.24Z"/>
      <path id="path5806" d="M37.66,14.18c7.95,1.24,15.98,1.3,24,1.45-.17-.36-.34-.72-.51-1.08l-23.5-.37Z"/>
      <path id="path5808" d="M35.93,11.95c1.82,.46,.36,.05,2.97,.99,1.4,.5,2.76,1.14,4.21,1.48,6.06,1.44,12.5,1.32,18.69,1.48-.28-.59-.56-1.19-.84-1.79l-25.03-2.16Z"/>
      <path id="path5810" d="M23.57,12.2c6.56-.12,12.97,1.39,19.54,1.24,3.16-.07,3.69-.57,6.43-.99,.78-.12,1.69,0,2.47,0"/>
      <path id="path5812" d="M21.59,7.99c11.07,4.1,23.02,4.81,34.63,6.18,1.71,.2,3.4,.56,5.11,.73-.4-.85-.8-1.71-1.2-2.56L21.59,7.99Z"/>
      <path id="path5814" d="M59.49,10.98l-15.39,.24c2.88-.01,5.77,0,8.65,0,.19,0,4.5,.16,6.9,.12-.05-.12-.11-.23-.16-.35h0Zm-15.39,.23c-5.2,.01-10.39,.06-15.59,.24l15.59-.24Z"/>
      <path id="path5816" d="M20.1,7c1.74,.29,3.26,1.27,4.95,1.73,1.29,.36,2.65,.44,3.96,.74,3.66,.85,7.37,2.11,11.13,2.47,11.8,1.14-.97-.74,5.94,.25,.33,.05-.66,0-.99,0"/>
      <path id="path5818" d="M.81,3.79c0,1.07,1.18,.7,2.47,.99,.59,.13,1.18,.26,1.77,.38L.81,3.79Zm4.24,1.37l18.02,5.82c-1.57-.76-1.04-1-3.21-1.75-1.21-.42-2.48-.64-3.71-.99-2.48-.72-4.93-1.56-7.42-2.23-1.21-.33-2.44-.59-3.67-.85Zm18.02,5.82c.15,.07,.31,.14,.49,.22,.55,.24,1.16,.33,1.73,.49l-2.23-.72Z"/>
      <path id="path5820" d="M3.04,4.78c-.5,0-.31,0,.31,.14l-.31-.14Zm.31,.14l12.96,5.85c-.61-.4-1.18-.77-1.65-1.05-.89-.53-1.83-.97-2.72-1.48-1.87-1.08-1.54-1.17-3.21-1.73-1.06-.35-3.6-1.12-4.95-1.48-.17-.05-.3-.07-.43-.11h0Zm12.96,5.85c1.57,1.03,3.46,2.28,4.79,2.91,.93,.44,4.1,1.25,4.95,1.48l-9.73-4.39Z"/>
      <path id="path5822" d="M25.05,9.97c-3.8-.14-7.58,.8-11.38,.49-3.81-.3-2.83-.61-6.68-1.48-.82-.19-1.88,.1-2.47-.49-.06-.06,.17,.04,.25,0,.1-.05,.16-.16,.25-.25"/>
      <path id="path5824" d="M61.37,15l-12.08,.16c4.15,1.51,8.34,1.3,12.59,.92-.17-.36-.34-.72-.51-1.09h0Z"/>
      <path id="path5826" d="M53.25,14.18l8.57,1.78c-.05-.11-.11-.23-.16-.34-1.32-.23-2.64-.47-3.96-.69-1.48-.25-2.97-.49-4.45-.74Z"/>
    </g>
  </g>
</svg>