<?xml version="1.0" encoding="UTF-8"?>
<svg id="Layer_2" data-name="Layer 2" xmlns="http://www.w3.org/2000/svg" viewBox="0 0 47 85.05">
  <g id="svg9">
    <g id="g15">
      <path d="M20.21,39.85c-.84,1.84-1.65,3.69-2.54,5.5-.3,.64-.59,1.29-.9,1.93,.67,1.97,1.21,4.03,1.35,6.25,3.95-7.46,7.67-14.66,9.7-20.18-2.37-.66-3.48-.83-5.34-1.29-.52,.92-.98,1.87-1.33,2.87-.06,.19-.11,.38-.17,.57,0,.01-.01,.02-.01,.04,.12,.31,.44,.25,.39,.77-.02,.2-.05,.4-.09,.6,.03,.26,.04,.28-.12,.49-.23,.84-.6,1.66-.95,2.45Z"/>
      <path d="M18.13,53.53c-3.71,7.01-7.1,13.78-10.1,20.23,7.99-7.14,10.5-14.07,10.1-20.23Z"/>
      <path d="M3.57,85.05c.97-3.3,2.52-7.12,4.46-11.28h0c-2.09,1.87-5.19,3.77-8.03,5.67,.58,.86,1.17,1.71,1.81,2.54,.69,.97,1.3,1.98,1.77,3.07Z"/>
      <path d="M37.48,4.95c4.71,10.69,7.05,4.21,9.52-2.07-1.62-.39-2.68-1.52-3.19-2.87-1.22,1.78-3.24,3.47-6.33,4.95Z"/>
      <path id="path4463" d="M16.75,50.65s-.01,.08-.01,.25h.13c-.06-.15-.11-.25-.12-.25h0Zm.12,.23c.08,.16,.18,.39,.39,.71,.23,.35,.7,.63,.7,1.05,0,.47-.55,.78-.7,1.22-.18,.54-.02,1.37,.14,1.95,.16-.5,.29-1.01,.38-1.52-.05,.55-.12,1.1-.24,1.64,.2-.3,.36-.55,.42-.68,.15-.32,.1-.7,.17-1.05,.25-1.25,.35-2.24,.35-3.5l-1.62,.16Zm.67,5.06s-.06,.08-.08,.12c-.01-.03-.01-.06-.02-.09-.01-.04-.02-.1-.04-.15-.07,.21-.14,.42-.21,.63-.61,.87-1.35,1.88-1.5,2.14-.18,.32-.19,.71-.35,1.05-.51,1.09-1.21,2.07-1.75,3.15-.83,1.66-.79,1.68-.94,2.12,.25-.29,.51-.59,.8-.91,.29-.53,.24-.44,.66-1.21,.43-.79,.7-1.28,.96-1.75-.4,.8-.78,1.59-1.11,2.38,1.89-2.13,4.06-4.82,3.52-7.26,.02-.07,.04-.15,.06-.22h0Zm-3.57,7.48c-.18,.2-.35,.39-.52,.58-3.56,6.49,1.71-3.14-1.79,3.86-.51,1.03-1.02,1.83-1.4,2.67,.49-1.39,1.16-2.73,1.75-4.07,.41-.91,.55-1.3,.63-1.55-.09,.11-.2,.23-.28,.33-.43,.51-.93,.98-1.22,1.57-.59,1.17-.93,2.45-1.4,3.67-.17,.52-.28,1.08-.53,1.57-.23,.45-.52,.87-.8,1.29,.14-.16,.29-.31,.45-.42,.05-.03,.13,.04,.18,0s-.04-.13,0-.18c.43-.43-.12,1.25,.52-.35,.06-.16-.06-.36,0-.53,.23-.56,.28-.52,.32-.41-.2,.63-.32,1.32-.32,2.16,.05-.71,.18-1.4,.37-2.07,.05,.09,.12,.13,.33-.21,.24-.38,.31-.84,.53-1.22,.31-.55,.75-1.02,1.05-1.57,.23-.44,.33-.94,.53-1.4,.96-2.2,.79-1.63,.61-1.15,.13-.34,.37-.99,.96-2.53,.01-.02,.02-.05,.03-.07h0Zm-5.55,9.93c-.17,.2-.32,.42-.42,.63,.14-.21,.28-.42,.42-.63Zm7.52-13.81s-.85,1.62-.6,1.05c.42-.76,.58-1.03,.6-1.05Z"/>
      <path id="path4465" d="M16.57,50.54c-.76,.19-.88,1.1-.88,1.75l1.4,1.75c-.32,1.71-.53,3.43-.83,5.15,.6-.92-.08,.5,1.35-3.22,.23-.59,.56-1.14,.7-1.75,.02-.08-.03-2.83-.18-2.97-.15-.15-.38-.2-.53-.35-.04-.04,.05-.15,0-.18-.16-.08-.35,0-.52,0-.12,0-.24,.04-.35,0-.08-.03-.1-.19-.18-.17Zm-.3,8.65c-.21,.33-.58,.94-1.27,2.2-.5,.91-.88,1.89-1.4,2.8-1.2,2.12-2.63,4.09-3.67,6.3-.48,1.02-.74,2.13-1.22,3.15-.26,.54-.67,1.01-.88,1.57-.27,.73-.35,1.52-.53,2.27,0,.08,.28,.59,.35,.52,.12-.12-.15-.43,0-.52,.15-.1,.38-.07,.53-.18,.68-.48,2.27-3.54,2.45-3.85,2.55-4.3,4.7-9.06,5.6-13.99,.02-.09,.03-.18,.05-.27h0Z"/>
      <path id="path4467" d="M16.57,49.84l-.26,1.23c.16-.41,.26-.82,.26-1.23Zm-.26,1.23c-.56,1.44-1.89,2.86-2.54,4.02-.24,.43-.31,.95-.52,1.4-.72,1.54-1.53,3.02-2.27,4.55-1.12,2.3-2.39,4.53-3.5,6.82-1.65,3.42-2.49,7.17-4.37,10.49,.3-.6,1.26-1.39,1.75-1.92,.96-1.05,1.13-1.31,1.93-2.45,.69-.98,.15-.06,.35-1.05,.09-.46,.48-.81,.7-1.22,.48-.92,.91-1.88,1.4-2.8,2.02-3.83,5.42-7.04,5.77-11.54l1.32-6.29Z"/>
      <path id="path4469" d="M16.39,51.42l-9.97,21.51c-.37,1.12-1.13,2.04-1.57,3.15-.03,.08-.05,.16-.07,.24,.09-.07,.17-.15,.24-.24,.63-.84,.55-1.11,1.05-2.1,1.05-2.1,2.06-4.22,3.15-6.3,1.28-2.46,2.96-4.69,4.2-7.17,.74-1.47,1.24-3.05,1.92-4.55,.19-.43,.54-.78,.7-1.22,.48-1.27,.35-1.98,.35-3.32h0Zm-11.61,24.9c-.1,.09-.21,.17-.28,.29-.03,.05,.14,.05,.18,0,.06-.08,.08-.18,.11-.29Z"/>
      <path id="path4471" d="M20.07,46.67s-.16,.27-.17,.38c-.02,.14-.04,.24-.04,.34,.09-.24,.16-.47,.22-.69v-.03Zm-.22,.71c-.11,.3-.24,.61-.38,.93,.27-.37,.4-.52,.45-.57-.04,.01-.1-.04-.07-.37h0Zm-.38,.93c-.12,.17-.27,.38-.45,.66-2.15,3.23-3.93,6.66-5.95,9.97-.26,.43-.63,.78-.88,1.22-.11,.21-.12,.47-.17,.7l4.72-5.77c0-1.78,1.72-4.54,2.72-6.78h0Z"/>
      <path id="path4473" d="M15.87,59.29c-1.26,1.89-1.25,1.73-1.61,2.56l1.61-2.56Zm-1.61,2.56l-5.74,9.1c.12-.15,.24-.31,.36-.46,.72-.91,1.58-1.69,2.27-2.62,1.07-1.44,1.9-3.25,2.62-4.9,.23-.54,.37-.86,.49-1.12h0Zm-5.74,9.1c-1.09,1.39-2.13,2.81-3.14,4.26-.62,.89-1.07,1.64-1.4,2.62-.07,.21,.25,.58,.52-.53l4.01-6.36Z"/>
      <path id="path4475" d="M12.14,55.15c-.34,1.12-.62,2.13-1,3.44-1,3.51-2.96,6.71-3.67,10.32l5.21-13.56c-.2-.07-.38-.14-.54-.2h0Z"/>
      <path id="path4477" d="M16.22,49.67l-8.97,22.26c.58-1.08,1.31-2.25,1.62-2.84,.48-.93,.87-1.9,1.4-2.8,.64-1.09,1.59-1.99,2.1-3.15,.73-1.67,1.02-3.51,1.57-5.25,.86-2.68,2.38-5.33,2.27-8.22h0Zm-8.97,22.26c-.46,.84-.83,1.64-.83,2.05l.83-2.05Z"/>
      <path id="path4479" d="M42.63,4.02c.23,.17,.58,.26,.7,.52,.19,.43,.15,.93,.17,1.4,.13,2.07-.09,1.52-1.05,4.02-.8,2.09-1.66,4.18-2.8,6.12-.42,.73-1.02,1.35-1.4,2.1-.6,1.19-.16,1.44-.52,2.62-.44,1.41-1.36,2.6-2.1,3.85-.31,.52-.48,1.12-.87,1.57-.49,.56-1.2,.89-1.75,1.4-.33,.31-.55,.73-.87,1.05-.19,.19-.52-.17-.52,.35"/>
      <path id="path4481" d="M41.58,3.84l-3.99,9.71c.74-.99,.85-.72,2.59-4.46,.19-.4,2.06-3.94,1.4-5.25h0Zm-3.99,9.71c-.38,.51-.93,1.34-1.96,3.24-.73,1.35-1.19,2.84-1.92,4.2-1.74,3.22-4.9,6.68-4.72,10.67,.02,.55,.35,1.05,.53,1.57l8.08-19.68Z"/>
      <path id="path4483" d="M39.83,8.74l-8.85,15.84c.06-.09,.25-.41,.28-.45,.27-.41,4.48-6.51,5.25-7.87,1.35-2.38,2.06-5.1,3.32-7.52h0Zm-8.85,15.84c-.68,1.08-3.03,5-3.74,5.84-.5,.6-1.27,.95-1.75,1.57-.07,.09,0,1.89,0,1.92,.01,.08,.12,.12,.18,.17l5.31-9.52Z"/>
      <path id="path4485" d="M34.58,14.86c1.07-3.21,.25-1,1.57-4.02,.15-.34,.13-.75,.35-1.05,.15-.2,.4-.31,.52-.52,.18-.32,.14-.75,.35-1.05,.38-.56,3.16-3.55,3.32-4.72,.03-.18-.12-.35-.17-.52"/>
      <path id="path4487" d="M39.65,5.42l-15.74,30.61c1.16,0,1.6-2.72,2.1-3.5,.22-.35,.61-.56,.87-.88,1.1-1.3,2.14-2.65,3.15-4.02,.45-.61,.82-1.28,1.22-1.92,.88-1.4,1.86-2.74,2.62-4.2,.46-.88,.65-1.89,1.05-2.8,.42-.96,1.01-1.83,1.4-2.8,.48-1.2,.79-2.46,1.22-3.67,.81-2.24,1.9-4.4,2.1-6.82Z"/>
      <path id="path4489" d="M39.83,5.42c-.04,.16-.06,.33-.09,.49,.07-.08,.09-.16,.09-.49Zm-.09,.49c-.09,.11-.27,.23-.61,.91-.4,.79-.69,1.64-1.05,2.45-2.92,6.56-6.26,12.97-10.84,18.54l-3.5,5.07c0,1.48,.04-.95-.35,1.92-.03,.22-.05,.43-.07,.65,.51-1.24,.98-1.46,2.17-3.1,4.23-5.8,7.89-12.09,11.02-18.54,.33-.68,.55-1.42,.87-2.1,.64-1.34,1.47-2.42,1.92-3.85,.2-.64,.31-1.3,.43-1.96h0Zm-16.42,29.54c-.09,.22-.18,.46-.28,.75-.09,.27-.34,1.23,0,1.4,.3,.15,.17-.24,.18-.35,.04-.6,.06-1.2,.11-1.8Z"/>
      <path id="path4491" d="M42.1,6.64l-12.36,16.81c.99-1.1,2-2.19,2.92-3.34,.5-.62,.91-1.3,1.4-1.92,2.04-2.65,3.39-4.03,5.42-7,.49-.71,.79-1.53,1.22-2.27,1.94-3.28,.46-.39,1.4-2.27h0Zm-12.36,16.81c-.56,.62-1.11,1.25-1.63,1.9-.58,.72-1.02,1.53-1.48,2.33l3.12-4.24Zm-3.12,4.24l-2.01,2.74c.35-.41,.73-.79,1.05-1.22,.36-.48,.66-.99,.96-1.52Z"/>
      <path id="path4493" d="M18.67,49.84l-1.12,2.64c.46-.84,.9-1.69,1.12-2.64Zm-1.12,2.64c-.35,.63-.7,1.26-.98,1.91-.34,.8-.56,1.64-.88,2.45-.05,.12-.09,.24-.14,.36l2-4.71Zm-2,4.71l-3.71,8.74c.12,0,.31,.11,.35,0,.06-.17,0-.35,0-.53,.29-.7,.58-1.4,.88-2.1,.8-2.05,1.67-4.07,2.48-6.11Z"/>
      <path id="path4495" d="M17.79,50.19c-.39,0-.38,.69-.53,1.05l-.7,1.75c-.58,1.46-1.12,2.93-1.75,4.37-.07,.17-.11,.25-.18,.39,0-.85,.01-.96,.29-1.99-.45,1.32-.78,2.48-1.34,3.87-.31,.77-.72,1.5-1.05,2.27-1.69,4-.05,.61-1.75,4.2-1.01,2.14-2.09,4.27-2.97,6.47-.21,.51-.3,1.07-.53,1.57-.36,.78-.82,1.52-1.22,2.28,.22,0,1.12-.63,1.22-.88,.17-.44-.12-.49,0-.88,.4-1.33,1.05-3,1.75-4.2,.3-.5,.72-.92,1.05-1.4,1.22-1.78,2.35-3.76,2.45-5.95,0,.23-.09,.91,0,.7,.49-1.19,.77-2.46,1.22-3.67,1.69-4.55,1.43-3.38,3.67-7.87,.45-.91,.75-2.1,.35-2.1Zm-2.85,5.57c.07-.22,.15-.44,.23-.68,.04-.12,.17-.22,.17-.35,0-.08-.15,.09-.17,.17-.1,.38-.16,.61-.23,.85Z"/>
      <path id="path4497" d="M11.85,65.23l-7.35,12.77c-.06,.12-.29,.41-.17,.35,.22-.11,.35-.35,.52-.53,.29-.29,.63-.55,.88-.88,.28-.38,.49-.8,.7-1.22,.2-.4,.3-.84,.53-1.22,.13-.21,.37-.33,.53-.53,.57-.73,1.1-1.48,1.57-2.27,1.23-2.05,.24-.77,1.22-3.15,.18-.43,.5-.8,.7-1.22,.32-.68,.58-1.4,.87-2.1h0Z"/>
      <path id="path4499" d="M6.6,73.63c2.13-3.52,4.9-7.42,4.9-11.72"/>
      <path id="path4501" d="M29.51,25.18l-5.6,7.17c-.01,.06-1.46,1.16-1.05,1.57,.08,.08,.24-.03,.35,0,.13,.03,.22,.2,.35,.17,.48-.1,1.31-1.29,1.4-1.4,3.97-5.21,.34-.42,2.97-4.37,.32-.49,.75-.9,1.05-1.4,.31-.52,1.13-1.75,.53-1.75h0Z"/>
      <path id="path4503" d="M38.61,11.54l-8.39,13.82c.3-.3,1.37-1.26,1.22-.53-.16,.79-.8,1.41-1.22,2.1-.93,1.48-2.18,3.08-2.8,4.72,0,.1-.01,.2-.03,.3,.02,.19,.07,.39,.03,.58-.02,.07-.05,.19-.08,.29,.02,.08,.04,.16,.08,.23,.13,.21,.37-.33,.53-.53,1.63-2.06,2.44-3.16,3.67-5.42,.27-.5,.45-1.06,.7-1.57,.48-1.01,1.1-1.96,1.57-2.97,.91-1.93,1.41-4,2.27-5.95,.34-.77,2.45-4.6,2.45-5.07h0Zm-11.28,21.28c-.05-.27,.02-.57,.06-.87-.01-.1-.01-.2,.03-.3-.17,.35-.4,.68-.53,1.05-.06,.17,.04,.35,0,.52-.01,.05-.53,1.05-.35,1.05,.3,0,.63-.91,.79-1.46Z"/>
      <path id="path4505" d="M32.83,20.81c-.58,.99-1.11,2.02-1.75,2.97-1.55,2.33-1.84,2.02-2.62,3.85-.11,.27,.05,.59,0,.88-.08,.48-.9,2.11-1.05,2.45-.19,.43-.35,.93-.51,1.44l5.94-11.58Zm-5.94,11.58l-1.23,2.41c.61-.61,.94-1.52,1.23-2.41Z"/>
      <path id="path4507" d="M44.03,1.57l-14.52,28.86c2.67-4.04,4.79-8.41,7.52-12.42,.85-1.24,2.19-2.82,2.8-4.2,.72-1.64,1.22-3.36,1.75-5.07,.28-.91,.37-1.9,.7-2.8,.54-1.49,1.25-2.87,1.75-4.37h0Z"/>
    </g>
  </g>
</svg>