<?xml version="1.0" encoding="UTF-8"?>
<svg id="Layer_2" data-name="Layer 2" xmlns="http://www.w3.org/2000/svg" viewBox="0 0 740.98 378.44">
  <defs>
    <style>
      .cls-1 {
        fill: none;
        stroke: #101010;
        stroke-miterlimit: 10;
        stroke-width: 16px;
      }
    </style>
  </defs>
  <g id="Layer_1-2" data-name="Layer 1">
    <path class="cls-1" d="M91.32,361.33c-21.19,7.64-47.77,14.77-68.65,2.41-.91-.54-1.81-1.12-2.68-1.73-17.51-12.27-12.73-36.16-5.24-52.83,10.29-22.91,26.1-43.41,43.04-61.76l.3-.32c17.57-18.97,36.42-36.67,56.31-53.21,10.84-9.01,21.97-17.69,33.47-25.85,23.91-16.97,49.09-32.06,74.11-47.31,22.3-13.59,45.63-25.38,69.26-36.46l.41-.19c15.38-7.2,30.94-14.01,46.62-20.55,26.76-11.17,54.13-22.06,82.16-30.03l.43-.12c28.76-8.15,58.33-13.53,87.79-18.42,29.22-4.85,58.67-8.37,88.32-6.41,27.36,1.81,55.19,7.05,79.96,19.17,20.41,9.99,42.89,25.75,50.82,48.14,9.31,26.31,5.3,55.12-4.64,80.63-4.25,10.91-9.51,21.39-15.14,31.64-13.49,24.55-29.59,47.55-48.68,68.07-19.27,20.72-39.56,40.59-61.66,58.29-.46,.37-.91,.73-1.37,1.09-4.75,3.77-9.75,7.28-13.63,12.01"/>
  </g>
</svg>