<?xml version="1.0" encoding="UTF-8"?>
<svg id="Layer_2" data-name="Layer 2" xmlns="http://www.w3.org/2000/svg" viewBox="0 0 1011.32 911.23">
  <defs>
    <style>
      .cls-1 {
        fill: none;
        stroke: #000;
        stroke-miterlimit: 10;
        stroke-width: 15px;
      }
    </style>
  </defs>
  <g id="Layer_1-2" data-name="Layer 1">
    <path class="cls-1" d="M541.71,833.33c-75.82,32.82-154.5,64.48-237.87,69.54-72.32,4.39-150.7-7.26-211.01-50.63-58.23-41.87-87.15-114.83-85.24-185.24,1.16-42.68,14.05-83.92,28.88-123.59,14.05-37.6,31.47-73.87,52.06-108.33,17.81-29.79,37.89-58.2,59.81-85.11,18.24-22.4,37.53-43.93,57.54-64.76,6.84-7.12,13.8-14.13,20.85-21.05,10.63-10.42,21.45-20.64,32.44-30.68,14.93-13.63,30.26-26.85,46.07-39.45,33.26-26.51,68.72-50.16,105.1-72.14,33.58-20.29,67.91-39.52,103.86-55.31,52.03-22.84,105.83-43.95,162.29-52.56,56-8.54,116.51-11.31,170.65,8.1,73.58,26.38,100.59,92.15,114.96,163.04,8.9,43.92,20.95,87.24,30.89,130.93,12.67,55.68,17.59,114.91-4.21,169.04-22.08,54.84-66.95,98.86-111.3,136.34-6.27,5.3-12.61,10.5-19,15.64"/>
  </g>
</svg>