<?xml version="1.0" encoding="UTF-8"?>
<svg id="Layer_2" data-name="Layer 2" xmlns="http://www.w3.org/2000/svg" viewBox="0 0 1328.74 951.46">
  <defs>
    <style>
      .cls-1 {
        stroke: #231f20;
      }

      .cls-1, .cls-2, .cls-3, .cls-4, .cls-5, .cls-6 {
        fill: none;
        stroke-miterlimit: 10;
      }

      .cls-2, .cls-4 {
        stroke: #000;
      }

      .cls-3, .cls-6 {
        stroke: #0a0a0a;
      }

      .cls-4, .cls-5, .cls-6 {
        stroke-width: 5px;
      }

      .cls-5 {
        stroke: #121212;
      }
    </style>
  </defs>
  <g id="Layer_1-2" data-name="Layer 1">
    <path class="cls-4" d="M738.17,435.11c7.7-10.6,14.6-21.9,20.7-33.5,6.2-11.7,13.04-26.01,19.54-37.51"/>
    <path class="cls-2" d="M473.97,690.31c-24.1,11.6-54.2,17.7-80.7,11.7-29.4-6.6-43.4-31.2-42.2-60,1.4-34.5,20.4-65.6,40.6-92.7,46.02-61.64,113.46-108.65,177.91-149.3,69.43-43.79,144.36-79.84,223.38-102.58,26.6-7.66,53.66-13.77,81.01-18.02,70.8-11,153.21-9.44,206.51,45.36"/>
    <path class="cls-2" d="M482.83,701.16c-37.46,12.46-86.2,23-122.2,.56-38.13-23.78-25.92-69.18-10.67-103.11,45.78-101.85,140.86-169.96,234.23-225,106.8-62.95,230.31-120.17,357.1-115.67,48.73,1.73,103.34,12.22,135.87,52.09"/>
    <path class="cls-2" d="M469.47,683.61c-27.97,12.01-73.27,19.13-98-3.62-42.06-38.69,11.01-103.59,36.56-135.08,86.77-106.91,218.09-173.66,345.5-219.19,75.07-26.83,155.14-47.59,235.33-35.41,34.2,5.2,70.3,20.51,94.2,46.21"/>
    <path class="cls-2" d="M464.33,678.21c-23.08,13.07-57.39,17.72-80.51,2.33-43.64-29.05-4.76-88.09,18.46-116.32,50.02-60.82,113.9-108.75,181.08-149.07,69.81-41.9,143.87-78.13,222.71-99.44,8.21-2.22,16.47-4.28,24.77-6.16,49.25-11.18,100.22-16.04,150.59-11.01,37.09,3.71,79.51,13.9,103.15,45.3"/>
    <path class="cls-2" d="M492.77,712.01c-42.8,17.4-96.6,28.8-139.8,6.7-91.43-46.78,2.88-170.23,45.14-217.98,70.04-79.15,156.12-143.56,250.74-190.44,97.84-48.47,214.08-89.98,324.5-70.04,37.71,6.81,73.71,23.08,99.73,51.86"/>
    <path class="cls-2" d="M504.81,725.03c-54.23,25.58-159.41,45.05-193.68-21.32-26.91-52.11,2.3-123.41,31.87-167.9,113.3-170.47,327.05-299.17,530.95-321.54,70.01-7.68,145.73,6.97,197.34,54.88"/>
    <path class="cls-2" d="M519.17,739.11c-71.26,32.14-205.91,52.03-241.55-41.19-28.19-73.74,31.85-158.13,75.24-212.89,75.22-94.91,177.24-165.94,284.8-219.72,91.91-45.95,195.7-85.81,300.3-76.2,43.2,4,103.6,19.4,126.6,59.9"/>
    <path class="cls-2" d="M535.09,754.24c-68.89,24.18-156.65,57.1-224.65,12.19-51.28-33.87-66.21-102.69-50.55-159.38,27.76-100.5,104.15-180.41,181.01-246.86,82.2-71.05,177.04-129.52,279.58-166.1,92.36-32.94,219.13-64.57,306.4-2.99,12.5,8.8,23.6,19.5,32.7,31.8"/>
    <path class="cls-2" d="M550.89,768.23c-70.6,30.2-152.92,53.48-228.72,29.08-29.9-9.6-57.2-27.5-74.7-54-40.1-60.7-18.4-140.5,12.7-200,4-7.7,8.3-15.4,12.8-22.9,29.1-48.7,64.8-93.2,104.7-133.5,58-58.6,124.6-108.2,195.4-150.3,50.3-30,103.3-55.7,158.6-75.2,76.3-26.9,166.8-43.6,246-19,29.7,9.3,59.49,25.5,75.99,52.8"/>
    <path class="cls-2" d="M565.86,780.69c-81.48,42.63-200.59,71.79-284.64,19.58-69.11-42.93-89.56-131.24-70.62-206.55,27-107.34,107.01-196.39,186.52-269.41,102.88-94.48,229.78-163.19,364.35-200.11,89.04-24.43,219.39-42.6,283,42.82,1.5,2,3.51,4.02,4.81,6.12"/>
    <path class="cls-2" d="M581.73,792.95c-72.1,37.9-155.17,56.75-236.47,47.35-39.8-4.6-79-20.3-109.4-46.7-24.9-21.6-43.4-50.9-51.3-83.1-20-82,16-164.5,59.1-232.6,42.6-67.4,97-126.9,156.8-179.4,62.2-54.7,131.1-101.4,204.5-139.7,75.3-39.3,157.7-71.1,243-77.2,.4,0,.9-.1,1.3-.1,64-4.4,140.9,2.7,184.9,55.7,3.4,4.1,7.89,8.25,10.59,12.95"/>
    <path class="cls-2" d="M595.09,802.89c-121.84,70.32-399.52,100.54-430.44-93.21-15.39-96.49,31.65-201.38,85.25-279,63.19-91.51,148.54-166.31,239.65-229.06C622.68,109.93,812.32,8.89,975.67,79.51c23.41,10.21,46.27,24.8,62.22,43.76"/>
    <path class="cls-2" d="M607.38,811.38c-76.4,37.3-162.41,63.73-248.21,59.73-67-3.1-137.4-28.6-178.6-84-45.8-61.6-42.3-144.6-19.9-214.5,24.4-76.2,68.4-145.5,119.5-206.6,53.5-64.1,115.9-120.7,184.1-168.8,70.4-49.6,146.6-91.3,227.9-120.2,76.2-27.1,159.5-44.4,240-28.1,14.9,3,29.6,7.1,43.4,13.5,21.5,10,41.52,23.92,56.02,42.82"/>
    <path class="cls-2" d="M615.09,816.98c-72.6,39.4-156.32,64.23-239.22,64.33-69.8,.1-144.5-18.2-193.5-71-49.3-53.1-57.3-130.3-44.1-198.9,15.5-80.9,57.5-154.7,106.3-220C375.72,215.67,593.1,57.58,815.91,32.81c20.23-2.25,40.61-3.2,60.96-2.7,50.8,1.2,108.78,13.62,144.18,53.02"/>
    <path class="cls-2" d="M621.62,821.06c-123.61,66.38-302.44,111.68-423.74,15.34-53.03-42.12-75.36-107.76-73.97-173.95,1.7-80.43,34.52-156.92,76.56-224.14,84.15-134.56,205.77-242.06,342.94-320.42C665.61,48.08,816.38-13.14,957.08,36.15c14.97,5.24,29.32,11.44,42.64,20.07"/>
    <path class="cls-2" d="M1313.42,771.07c-18.7,46-53.86,84.84-96.56,110.34-47.3,28.2-102,41.3-156.6,45.3-43.2,3.1-86.7,.4-129.4-6.8-56.1-9.4-110.7-26.4-163.2-48-52.8-21.7-103.7-48.6-150.8-80.9-.7-.5-1.5-1-2.2-1.5-44.4-30.7-85.5-66.4-120.9-107.2-.2-.2-.4-.4-.6-.7-14.9-17.3-28.6-35.5-41.1-54.6-13.2-20.1-25.49-45.57-38.09-65.97"/>
    <path class="cls-2" d="M1272.47,844.61c-68.87,71.01-165.73,99.21-262.76,96.27-97.86-2.96-194.56-33.01-282.06-75.76-104.78-51.19-197.91-124.43-267.11-218.75-18.76-25.58-35.3-52.58-49.74-80.83"/>
    <path class="cls-2" d="M1165.63,921.12c-214.63,70.09-448.66-20.83-611.45-164.12-46.42-40.86-88.04-86.96-123.36-137.76"/>
    <path class="cls-2" d="M419.49,556.72c25.7,49.9,60.48,98.59,99.78,138.69l.6,.6c137.4,140,348.2,234.2,546.2,219.4,35.4-2.7,70.7-9.9,103.9-22.6,32.4-12.4,63-30.3,87.9-54.5,36.9-35.8,57.3-84.9,62-135.7,3-32.1-.7-64-7.6-95.5"/>
    <path class="cls-2" d="M512.66,873.43c-100.11,27.41-220.74,36.05-310.13-26.27-173.89-121.23-49.71-368.47,50.92-494.65C362.1,216.28,512.63,107.14,676.55,47.88c95.41-34.5,199.75-56.01,295.96-12.2"/>
    <path class="cls-2" d="M424.94,551.62c14.7,24.9,29.93,51.39,47.53,74.49,17.5,23,37.4,44.2,58.2,64.3,20.5,19.9,42.2,38.6,65.2,55.6,23.2,17.2,47.3,33.2,72.3,47.9,25.2,14.8,51.1,28.5,77.6,40.9,26.3,12.3,53.3,23.2,80.9,32.6,27.8,9.5,56.2,17,85,22.7,29.4,5.9,59.1,9.7,89,11.5,29.6,1.8,59.3,1.6,88.8-1.8,28.8-3.4,57.3-10.2,84.3-20.7,24.5-9.5,48.2-22.4,68.3-39.6,20.5-17.4,37.4-39.1,49.7-63,13-25.4,19.8-53.5,21.9-81.9,2.1-29.4-1.1-59-7.8-87.6-6.5-27.9-16.3-55.1-28.9-80.8-12.6-25.6-26.2-50.8-42.4-74.3-16.3-23.7-34.4-46.1-53.5-67.6s-39.8-41.5-61.4-60.5c-13.1-11.5-29.62-24.49-43.52-35.09"/>
    <path class="cls-2" d="M1073.8,276.52c33.1,27.7,69.77,58.19,98.87,90.09,20.7,22.7,39.9,46.7,58.4,71.3"/>
    <path class="cls-2" d="M1079.07,300.41c15.2,14.6,34.8,28,50.4,42.1,15.9,14.3,31,29.5,45.4,45.4,28.4,31.4,54.6,65.3,76.2,101.7,21.2,35.8,38.4,74.5,48,115.1,9.7,41.1,9.3,85.2-2.6,125.9-36.8,126.2-170.3,158.7-287.1,153.7-122.1-5.3-240.5-49.4-344.5-112-67.9-40.9-131-91.1-180.9-153.1-18.8-23.3-40.31-48.09-52.41-75.69"/>
    <path class="cls-2" d="M442.73,532.69c27.4,46.4,65.13,89.02,104.43,125.62,108.8,101.2,241.8,167.8,387.6,196,56,10.8,115.3,16.5,171.8,6.6,40.9-7.2,81-22.4,114.4-47.3,31.9-23.8,56.7-56.5,68.7-94.6,9.5-30.1,11.1-62.4,6-93.5-8.9-54.5-32.1-106.5-62.1-152.6-31.1-47.8-70.4-88.6-112.4-126.8-13.2-12-26.6-23.6-40.4-34.9"/>
    <path class="cls-2" d="M1086.01,350.03c-11.5-14.6-31.44-26.72-48.64-33.32-53.2-20.3-111.8-16.2-166.9-6.6-56.3,9.8-111.2,26.6-163.8,48.7-52.9,22.3-103.6,49.9-151.3,81.7-.2,.2-.5,.3-.7,.5-14.9,10-29.5,20.5-43.6,31.6"/>
    <path class="cls-2" d="M454.35,522.65c81.7,126.2,210.81,215.26,348.91,270.06,121.1,48,287.2,84.6,405.3,8.9,110-70.4,89.7-210.6,29.3-307.4-29.8-47.7-65.7-91.2-107.1-129.3-15.1-13.9-30.7-27.1-46.8-39.7"/>
    <path class="cls-2" d="M467.97,512.31c86.1,122.9,219.6,211.7,359.3,262.6,57.1,20.8,116.7,34.9,177.1,41.4,3,.3,5.9,.6,8.9,.9,68.3,6.5,145.7-2.5,202.5-44,28-20.5,47.1-51.3,55.8-84.7,10.7-41.2,6.8-85.9-7.9-125.7-32.3-87.5-98.2-165.9-174.8-218.2"/>
    <path class="cls-2" d="M481.67,500.61c63.6,85.3,148.1,152.8,242.1,201.8,68.6,35.8,141,65.5,217.3,80.1,60.5,11.6,124.5,18.1,185.6,6.8,21.4-4,42.1-11.6,61-22.4,18.9-10.8,36-24.9,49.6-42,16.6-20.8,27.4-46.6,30.8-73.1,3.6-28.4-1.1-57.7-9.9-84.7-6.9-21.2-17-41.2-28.4-60.2-6.6-11.1-14.2-21.5-21.3-32.2-16-23.9-36.1-44.9-56.4-65.2-19.1-19.2-39.2-37.3-60.9-53.6"/>
    <path class="cls-2" d="M495.47,489.71c129.69,167.18,349.44,291.93,564.93,282.25,30.65-1.38,61.64-4.09,91.14-12.99,52.99-15.98,94.2-59.79,105.23-114.27,22.43-110.88-84.98-213.48-163.2-274.59"/>
    <path class="cls-2" d="M509.17,479.51c107.23,137.35,285.83,230.77,455.6,262.3,78.9,14.6,173.1,20.9,241.2-29.9,37.2-27.7,49.8-72.2,43.3-116.8-8.6-59.12-41.75-109.83-82.65-151.92-21.53-22.15-44.76-47.07-71.65-62.68"/>
    <path class="cls-2" d="M521.87,468.41c50.6,60.8,115.8,108.7,183.7,148.5,71,41.5,147.5,76.6,227.7,95.8,41.7,10,84.2,18.1,127.2,19,28.9,.6,58.2-2.2,86.1-10.3,24.3-7,48.5-17.5,66.5-35.8,.2-.2,.4-.4,.5-.5,8.7-9,15.9-19.5,21.2-30.9,11.6-24.6,14-53.9,7.1-80.1-6.1-23-14.8-46.3-27.1-66.7-7.8-13-17-25.2-26.3-37.1-12.4-15.8-26-30.6-40.5-44.5-9.7-9.2-20-17.9-31.2-25.3-.4-.2-.7-.5-1.1-.7-5.6-3.7-12.51-7.66-18.51-10.66"/>
    <path class="cls-2" d="M531.17,463.41c27.3,31.1,59.2,57.9,92.5,82.5,35.1,25.9,71.8,49.5,109.6,71.4,91.5,53,196.9,89.7,302.3,100.1,53,5.2,113.8,3.2,158.5-29.6,1.7-1.3,3.4-2.6,5.1-3.9,10.3-8.4,19.6-18.4,26.7-29.7,6.4-10.3,10.1-21.8,11.8-33.8,5.6-40.9-6.7-82.1-29.2-116.2-14.2-21.6-31-41.4-49.1-59.8-17.9-18.2-39.19-36.52-61.59-49.02"/>
    <path class="cls-2" d="M538.76,457.64c58.7,60.1,129.91,110.37,203.21,150.97,.4,.2,.8,.4,1.2,.6,47.2,26,96.4,48.4,147.5,65.6,55.6,18.7,113.7,31.1,172.5,32.9,39.3,1.2,80.1-3.3,115.8-20.7,33.8-16.5,53-48,56.2-85.2,.3-3.6,.5-7.2,.5-10.8,.1-51.6-31.6-95.6-65.2-131.8-10.9-11.8-22-23.5-34-34.2-10.9-9.8-25.8-22.5-41-24.5"/>
    <path class="cls-4" d="M545.84,453.09c49.2,54.4,116.73,99.42,176.73,134.82,71.6,42.3,149.6,74.7,228.4,94.5,72.9,18.3,168.1,32.1,235.7-9.8,29.6-18.4,47.7-55.1,45.6-89.9-2.4-38.2-22.2-71.5-45.1-101.1-23.3-30.1-54.2-61.6-89.3-78.1"/>
    <path class="cls-2" d="M213.79,863.53c-99.47-56.54-117.68-183.1-89.82-284.61,39.8-145,141.21-264.99,253.26-361.19,89.4-76.76,191.3-140.59,303.57-177.8,65.81-21.81,135.04-33.9,204.44-33.23"/>
    <path class="cls-2" d="M549.38,451.34c52,51.4,111.95,93.87,174.45,131.47,.3,.2,.5,.3,.8,.5,24.8,14.9,51,27.7,77.3,39.6,68,30.7,139.3,56.8,213.7,66.1,61.6,7.7,144.8,9.4,190.7-40.7,17-18.6,22.7-45.1,21.2-69.6-2.4-39.4-25.9-74.3-50.4-103.7-22.4-26.8-48.9-47.5-78.4-66.1"/>
    <path class="cls-2" d="M571.65,437.32c28.25,30.12,60.57,58.38,93.72,82.97,97.13,72.07,210.34,122.66,328.38,148.67,64.01,14.11,168.13,29.6,206.35-41.18,23.75-43.99-.1-97.12-28.77-132.5-20.32-25.07-46.3-47.83-72.84-66.12"/>
    <path class="cls-2" d="M1098.84,423.17c16.67,13.77,35.27,27.6,50.95,42.52,15.07,14.34,28.53,30.51,39.7,48.06,14.26,22.39,24.02,48.09,25.62,74.73,.21,3.44,.28,6.89,.22,10.34"/>
    <path class="cls-2" d="M1097.64,435.24c1.12,1.03,3.64,3.1,5.78,4.93,27.16,23.31,54.25,47.71,74.42,77.55,20.58,30.45,36.75,71.83,17.95,106.97-32.58,60.89-122.52,56.21-179.74,45.85-55.94-10.13-110.55-26.97-162.79-49.33-48.93-20.94-95.76-46.7-139.95-76.35-40.39-27.1-78.58-57.45-114.22-90.53-6.99-6.48-14.82-14.11-21.59-20.82"/>
    <path class="cls-2" d="M1096.11,444.86c37.87,30.09,75.24,67.88,92.48,114.11,7,18.76,7.28,40.44,.18,59.37-7.06,18.81-21.83,32.9-39.63,41.68-17.94,8.85-38.1,12.8-57.95,14.13-26.79,1.8-54.09-1.49-80.43-6.39-28.97-5.4-57.69-13.18-85.61-22.62-6.88-2.33-13.73-4.77-20.53-7.34-27.71-10.44-54.84-22.62-81.37-35.76-1.21-.6-2.41-1.2-3.61-1.8-18.54-9.27-36.79-19.14-54.68-29.62-23.8-13.95-46.96-28.99-69.33-45.13-16.67-12.02-32.9-24.64-48.65-37.85-17.83-14.95-35.14-30.53-51.93-46.64-2.15-2.06-4.29-4.14-6.42-6.22-1.47-1.44-3.41-3.47-4.87-4.92"/>
    <path class="cls-2" d="M594.66,424.31c27.08,32.12,59.07,59.75,92.26,85.34,91.6,70.62,199.72,128.52,313.19,154.17,42.42,9.59,93.68,15.54,134.52-2.76,69.5-31.15,47.85-109.19,9.06-155-15.7-18.53-33.92-34.1-51.37-50.85"/>
    <path class="cls-2" d="M604.53,418.24c39.26,41.02,80.28,80.12,126.49,113.27,45.81,32.87,94.21,61.97,145.24,86.01,34.52,16.26,70.3,30.43,107.31,39.9,46.82,11.99,105.02,20.73,149.17-4.56,19.24-11.02,32.23-29.23,33.3-51.75,.11-2.31,.09-4.62-.03-6.93-2.88-53.01-42.56-90.74-78.31-125.33"/>
    <path class="cls-2" d="M616.69,411.04c38.87,55.84,95.48,97.95,151.31,135.46,68.2,45.82,141.41,89.21,221.85,109.28,35.1,8.76,72.97,14.27,108.47,4.62,21.07-5.73,39.93-18.22,48.32-39.07,6.57-16.34,5.75-34.19,.16-50.68-5.81-17.15-15.97-32.62-27.31-46.61s-25.11-27.43-38.02-39.7"/>
    <path class="cls-2" d="M631.12,403.96c9.52,18.19,24.01,34.03,38.42,48.42,30.55,30.49,63.07,58.98,97.52,84.99,34.19,25.8,70.08,49.63,107.82,69.93,37.77,20.31,77,38.53,119.09,47.74,36.15,7.91,86.53,12.39,118.27-10.78,52.09-38.03-1.03-109.94-33.61-140.44-1.63-1.53-3.28-3.03-4.94-4.52"/>
    <path class="cls-2" d="M643.9,397.96c44.34,65.46,103.73,118.85,168.13,164.06,2.62,1.84,5.22,3.71,7.86,5.53,64.69,44.7,137.53,86.41,217.6,92.23,17.45,1.27,35.88-1.09,51.52-9.31,21.81-11.47,30.16-35.31,24.67-58.69-4.44-18.89-15.64-35.77-26.64-51.46-6.56-9.36-13.1-19.4-22.62-26.05"/>
    <path class="cls-2" d="M654.55,392.22c49.88,69.78,111.38,128.4,180.02,179.45l1.05,.78,1.02,.75c44.03,32.64,92.85,60.58,146.08,74.9,33.45,9,82.9,21.17,106.59-13.46,26.08-38.12-15.62-77-34.31-106.76"/>
    <path class="cls-2" d="M666.77,386.31c26.27,51.85,70.34,94.61,112.45,133.7,40.69,37.77,86,70.69,134.68,97.42,35.21,19.33,75.88,41.53,117.34,38.36l.87-.07c16.27-1.39,33.65-8.11,42.96-22.22,19.82-30.04-10.99-69.88-30.14-91.92"/>
    <path class="cls-2" d="M678.25,380.84c22.6,49.37,61.89,91.73,100.24,129.35,39.13,38.38,81.84,73.53,129.77,100.28,19.45,10.85,39.28,21.14,59.95,29.49,19.55,7.9,42.59,17.54,63.95,14.76,21.87-2.84,38.65-20.41,34.48-43.18-3.53-19.3-15.55-36.88-27.34-52.11-1.31-1.7-2.65-3.38-4-5.05"/>
    <path class="cls-2" d="M686.72,377.87c37.62,69.86,89.19,131.91,150.26,182.49,29.88,24.75,62.01,47.1,96.71,64.58,26.79,13.49,59.9,31.29,91.05,26.96,23.32-3.24,31.47-23.11,25.12-44.05-4.77-15.74-14.09-31.16-23.37-44.6"/>
    <path class="cls-2" d="M693.08,374.31c14.24,31.42,28.97,51.27,45.92,74.3,16.83,22.87,33.98,46.03,54.07,66.11,38.77,38.75,82.6,75.91,129.78,104.03,24.45,14.57,50.79,24.82,78.81,30.13,9.66,1.83,18.92,.99,27.26-4.93,11.01-7.82,8.93-22.43,4.7-33.46-3.92-10.23-11.24-26.1-20.68-32.26"/>
    <path class="cls-2" d="M1009.84,581.03c4.31,3.52,8.03,9.92,10.46,14.78,2.84,5.68,5.58,11.44,7.5,17.5,2.12,6.7,3.27,13.93,2.21,20.94-.8,5.3-4.06,11.16-10.24,10.53"/>
    <path class="cls-3" d="M771.44,345.96c41.68,24.97,79.67,61.65,99.21,106.68,7.41,17.07,12.14,35.33,13.65,53.88,2.14,26.33-1.86,53.93-9.84,79.06"/>
    <path class="cls-3" d="M767.44,346.95c33.9,18.32,65.73,47.48,85.29,80.72,13.58,23.07,22.92,48.89,26.36,75.47,3.36,25.97,.43,53.99-10.14,78.11"/>
    <path class="cls-3" d="M774.48,344.97c55.84,33.11,103.92,78.8,115.1,145.18,3.61,21.41,2.84,43.57-1.76,64.86-2.3,10.64-6.15,20.84-9.66,31.11-.11,.31-.21,.62-.32,.94"/>
    <path class="cls-3" d="M777.7,343.73c17.79,10.96,37.51,22.09,54.45,34.36,25.53,18.49,45.48,44.46,56.96,73.8,16.4,41.93,14.07,99.91-6.3,140.39"/>
    <path class="cls-3" d="M785.31,341.57c45.53,17.09,89.09,50.03,111.23,94.11,23.52,46.83,20.17,105.58-3.32,151.79-1.4,2.76-3.27,6.13-4.83,8.8"/>
    <path class="cls-3" d="M797.1,337.92c31.94,16.99,69.54,34.04,93.44,62.12,22.44,26.36,35.61,60.4,36.04,95.08,0,.76,.01,1.51,.01,2.27-.07,36.12-11.69,73.1-30.08,104.08"/>
    <path class="cls-3" d="M809.54,334.68c45.22,19.06,92.6,41.11,117.88,85.61,32.85,57.84,12.45,134.77-22.15,187.12"/>
    <path class="cls-3" d="M824.16,331.48c36.41,12.42,76.21,27.67,103.13,56.33,26.19,27.88,37.6,67.03,35.18,104.77-2.85,44.43-28.16,81.81-49.65,119.37"/>
    <path class="cls-3" d="M831.42,329.64c49.64,8.07,105.9,30.64,134.06,74.8,40.9,64.15,6.98,141.35-34.06,195.53-3.77,4.97-8.53,10.68-12.25,15.68"/>
    <path class="cls-3" d="M848.59,326.15c27.73,3.82,55.27,11.17,80.52,23.53,22.69,11.1,44.3,27.13,58.31,48.38,43.77,66.39,3.52,145.5-38.53,198.17-6.29,7.88-13.99,16.89-21.06,24.09"/>
    <path class="cls-3" d="M869.87,322.27c55.89,9.52,125.33,30.21,146.87,87.84,28.32,75.76-28.58,154.92-74.93,207.37-.38,.43-.77,.84-1.16,1.26-1.56,1.68-4.13,4.32-5.71,5.98"/>
    <path class="cls-3" d="M891.37,319.17c17.1,5.74,34.41,10.76,51.75,15.62,33.71,9.45,67.27,26.33,85.95,57.2,20.39,33.71,15.68,75.2,.85,110.01-20.11,47.2-50.84,90.17-88.86,124.61"/>
    <path class="cls-3" d="M907.18,317.46c42.14,8.45,88.59,17.39,121.03,48.04,87.03,82.23-22.77,206.85-82.59,264.46"/>
    <path class="cls-3" d="M929.58,315.77c38.47,5.44,79.2,17.39,109.05,43.68,35.41,31.19,39.61,82.88,23.4,125.01-19.66,51.08-59.38,91.13-94.7,131.69l-.6,.69"/>
    <path class="cls-3" d="M948.35,315c47.04,11.67,102.73,23.74,124.62,73.18,19.51,44.08,1.41,95.9-23.23,134.02-.28,.44-.57,.88-.86,1.32-8.18,12.45-15.96,25.56-24.89,37.52"/>
    <path class="cls-3" d="M963.04,315.48c36.89,6.38,76.33,18.01,101.81,47.69,33.42,38.92,27.84,95.2,2.26,136.53"/>
    <path class="cls-3" d="M1021.28,325.36c23.44,9.26,44.45,25.8,58.49,47.1,9.83,14.9,14.72,32.57,15.26,50.33"/>
    <path class="cls-3" d="M744.59,442.71c7.26-6.79,11.76-15.57,16.4-24.21,8.49-15.8,17.69-33.15,23.16-50.3"/>
    <path class="cls-3" d="M748.25,448.28c7.42-7.37,12.3-16.61,16.98-25.84,4.99-9.86,9.65-19.88,13.95-30.06,2.94-6.95,6.07-14.68,8.31-21.89"/>
    <path class="cls-3" d="M792.46,374.08c-.14,.28-7.24,20.53-7.24,20.53l-7.66,16-8.59,17.41-10.14,17.62-6.95,8.09"/>
    <path class="cls-3" d="M757.66,461.56c7.9-6.65,13.71-18.45,18.2-27.51,8.67-17.47,16.76-36.99,22.11-55.86"/>
    <path class="cls-3" d="M805.8,384.91c-7.01,20.42-14.47,41.84-23.75,61.39-4.2,8.85-9.99,18.16-16.59,25.49"/>
    <path class="cls-3" d="M776.39,485.27c4.65-9.08,10.32-20.17,14.73-29.37,9.55-19.94,15.38-41.27,21.37-62.48,.09-.32,.66-2.01,.66-2.01"/>
    <path class="cls-3" d="M821.56,401.27c-5.4,21.41-11.8,42.69-19.75,63.3-4.18,10.85-10.02,23.4-14.97,33.91"/>
    <path class="cls-3" d="M797.32,510.55c7.71-14.26,15.17-31.42,19.8-46.96,5.03-16.88,9.12-34.72,12.69-51.95"/>
    <path class="cls-3" d="M836.9,422.57c-3.24,21.71-7.39,44.78-14.16,65.71-3.34,10.32-7.02,20.53-11.65,30.34-1.26,2.66-3.77,7.91-1.27,2.76"/>
    <path class="cls-3" d="M821.39,537.38c2.14-10.57,6.93-23.11,9.86-33.46,3.03-10.69,5.46-21.55,7.29-32.5,1.8-10.76,2.99-21.62,4.02-32.47,.14-1.47,.54-3.96,.67-5.43"/>
    <path class="cls-3" d="M848.06,442.14c-.62,22.22-2.49,49.74-7.61,71.42-2.39,10.12-6.21,19.87-10.03,29.54-1,2.52-.27,.6-.41,.9"/>
    <path class="cls-3" d="M838.75,554.69c7.04-21.26,12.12-46.11,13.6-68.47,.61-9.25,1.69-22.42,1.53-31.69"/>
    <path class="cls-3" d="M860.32,475.34c-.67,13.92-2.14,31.53-4.26,45.32-2.13,13.82-6.07,27.29-9.61,40.8"/>
    <path class="cls-3" d="M851.42,566.14c5.98-21.45,11.5-49.12,12.69-71.36,.01-.22,.02-.45,.03-.67"/>
    <polyline class="cls-3" points="856.62 572.19 859.11 561.07 861.8 543.07 864.07 521.38 866.15 506.81"/>
    <path class="cls-3" d="M759.49,353c-3.48-.17-6.95-.33-10.44-.19"/>
    <path class="cls-2" d="M556.27,445.91c16.5,19.2,36.8,34.4,56.6,50,45.5,35.8,93.4,67.4,144.5,94.8,74.6,40,156.1,71.7,239.7,86.1,51.9,8.9,111.7,14.8,161.2-7.8,33.6-15.4,61-47.8,61.5-86,.7-52.5-36.4-94.6-73.1-127.8-15.3-13.9-31.3-27-47.8-39.5"/>
    <path class="cls-4" d="M406.61,570.64c18.9,49.5,49.16,96.57,84.06,136.17,24.5,27.8,50.3,50.1,61.1,59.4,8.1,6.9,30.9,26.3,63.9,48.8,70.3,48.1,133.2,74.1,147.2,80,52.8,22.2,108.5,37.7,165.1,46.5,58,9,117.6,10.9,175.5-.2,52.1-9.9,103.8-30.3,144.1-65.5,38.9-34,65-80.5,74.2-131.2,10.4-57.2,1.8-116.3-17-170.9-18.4-53.2-46.1-103-78.4-148.9-32.7-46.4-71.7-88.4-114.4-125.8-13.3-11.7-28.52-23.08-42.12-34.38"/>
    <path class="cls-4" d="M456.87,666.41c-22.8,11-64.9,19.6-78.5-9.1-14.9-31.4,7.7-62.5,26.9-86,26.4-32.3,58.2-59.7,91.2-85,33.9-26,70-49.1,107.4-70,37.7-21,76.8-39.5,117-54.9,40.9-15.6,82.9-28.6,126-36.9,43.2-8.4,87.8-13.6,131.8-9.2,67.3,6.7,92.5,35,99.8,43.2,7.5,8.4,12.4,16.4,15.4,22"/>
    <path class="cls-5" d="M631.7,827.37c-17.8,11.3-39.93,19.64-59.43,27.34-40.9,16.1-82.9,29.2-126.2,36.7-43.8,7.6-88.6,10.4-132.8,4.5-40.5-5.4-80.3-17.6-115.2-39.3-34.1-21.2-61.5-51-77.3-88.1-16.6-38.8-22.7-81.9-19.2-123.8,3.5-42.5,15.9-83.8,32-123.1,16.2-39.6,36.8-77.2,60.2-113.1,23.5-36,49.5-70.2,78.4-102.1,28.7-31.7,59.3-61.5,91.8-89.3,32.7-27.9,67-53.9,102.8-77.7,36-23.9,73.4-45.8,112.2-64.8,38.8-19.2,79.2-35.9,120.8-48.5,42.2-12.8,85.8-22,130-23.4,28.9-.9,58.2,1,86.4,8,36.7,9.1,72.2,27.4,96.3,57.1,24.5,30.1,31.5,69.4,38.9,106.4,8.8,44.1,17.3,88.1,27,132,2.5,11.2,4.9,22.4,7.4,33.6,4.8,22,9.7,44.7,11.3,67.1,2.8,40.3-15.5,78.7-37.5,111.3-23.9,35.4-52.7,65.9-85.1,93.7-8.1,6.9-16.3,13.7-24.3,20.6"/>
    <path class="cls-6" d="M122.07,771.41c-24-34.3-61.6-66.1-83-102.1-20.8-35-31.6-75-35.3-115.4-5.2-57.1,5.9-114.8,28-167.5,21.2-50.7,52-97.6,87.5-139.4,6-7.1,12.2-14.1,18.6-20.9,28.7-30.9,60.6-58.7,94.6-83.6,34.7-25.4,72.3-46.7,111.5-64.4,39.7-17.9,80.6-33.3,123.5-41.6,44-8.6,88.6-12.3,133.3-15.7,44.2-3.4,119-6.9,163.4-10.7"/>
    <path class="cls-4" d="M378.97,617.51c16.2,2.3,33.41,3.03,49.71,2.73"/>
    <path class="cls-4" d="M701.99,371c16.2,38.7,40.2,73.7,66.1,106.5,26.4,33.4,55,65.7,86.6,94.3,29.7,27,63.5,48.2,100.5,63.7,13.6,5.7,27.4,11.2,41.6,15.3,3.1,.9,6.2,1.7,9.4,1.6,19.1-.7,12.5-29.2,8.2-40-3.5-8.7-8.2-16.7-13.1-24.7"/>
    <path class="cls-4" d="M861.97,576.41c5.8-21.2,7.9-43.3,6.3-65.2-1.6-21.1-6.6-42-15-61.4-.1-.2-.2-.4-.2-.6-8.1-18.7-19-36.3-32.3-51.8-16.55-19.29-35.23-30.33-47.2-37.9-6.75-4.27-12.59-7.54-16.83-9.82"/>
    <path class="cls-4" d="M760.48,399.15c-15.6-7-36.93-14.06-53.43-18.56"/>
    <path class="cls-3" d="M658.66,21.54c-42.53,11.06-84.02,26.09-124.13,44.01-74.28,33.18-143.66,77.12-206.4,128.84-124.64,102.75-244.68,251.15-254.81,418.98-.87,14.45-.72,28.97,.58,43.4,1.21,13.38,3.38,26.68,6.66,39.71,2.93,11.65,6.95,23.06,12.35,33.8l3.94,7.51"/>
    <path class="cls-2" d="M624.95,22.48C385.16,84.08,132.65,260.67,69.37,511.93c-16.52,65.58-24.59,147.23,13.2,207.14l4.6,7.77"/>
    <path class="cls-2" d="M603.88,23.98c-97.49,24.35-188.11,65.28-270.86,122.2-93.41,64.25-173.2,149.25-227.02,249.34-49.77,92.55-78.26,208.6-35.66,309.7l4.05,8.05"/>
    <path class="cls-1" d="M575.58,26.29C367.48,78.52,175.44,216.85,80.59,412.12c-24.24,49.9-39.19,105.95-40.31,161.75-.85,42.71,9.04,90.75,26.7,130.39"/>
    <path class="cls-1" d="M485.57,36.05c-110.86,35.07-215.42,91.6-299.55,172.55C105.7,285.88,39.4,383.98,21.11,495.72c-9.36,57.18-.71,116.05,18.22,170.43"/>
    <path class="cls-1" d="M436.55,46.93C256.68,117.12,74.98,253.59,24.2,448.84c-9.35,35.96-14.08,72.81-11.51,109.97,1.93,28.02,7.08,55.78,14.71,82.8"/>
    <path class="cls-1" d="M356.93,76.38C169.56,159.1-16.53,361.5,9.47,580.54"/>
    <path class="cls-1" d="M675.67,19.53c-10.85,3.23-25.31,7.69-42.25,13.38-112.04,37.64-216.13,97.34-305.93,174.11-75.97,64.95-144.31,141.47-191.41,230.11-26.28,49.47-46.57,102.87-53.72,158.67-.07,.56-.14,1.12-.21,1.68l-.11,.87c-5.71,46.73-1.78,97.56,18.36,141l2.46,5.53"/>
    <path class="cls-1" d="M685.84,19.55c-159.88,48.53-306.83,138.84-421.27,260.71-111.36,118.59-222.22,295.34-162.25,463.49"/>
    <path class="cls-1" d="M697.19,18.31c-42.01,13.63-83.49,28.59-123.86,46.59-74.74,33.33-144.36,77.67-207.4,129.75-63.28,52.28-121.62,110.91-169.08,178.06-28.12,39.78-52.55,82.27-71.86,127.02-32.74,75.88-49.85,166.28-20.19,245.95l1.28,3.1"/>
    <path class="cls-1" d="M706.39,18.24c-77.4,23.95-152.03,54.8-220.94,97.69-.37,.23-.74,.46-1.11,.69-127.57,79.65-241.44,185.52-318.32,315.68,0,0-64.73,112.09-71.14,219.87-1.47,24.69,2.94,47.17,2.94,47.17,1.47,5.86,2.85,12.23,2.85,12.23,1.68,6.5,3.35,11.87,4.62,15.72"/>
    <path class="cls-1" d="M619.01,51.34c-147.77,60.93-281.2,159.74-381.52,284.29-50.78,63.04-92.5,133.69-118.25,210.65-3.96,11.85-5.81,25.87-9.09,37.92"/>
    <path class="cls-1" d="M109.61,729.87c-23.37-115.72,26.83-229.32,87.71-325.36C335.43,186.6,576.67,29.43,834.36,4.1"/>
    <path class="cls-1" d="M541.73,26.4c-78.84,26.97-159.69,51.35-231.35,95.01-64.88,39.53-123.95,89.78-172.52,148.25C70.71,350.5,22.32,453.68,23.48,560.99c.5,46.22,14.32,90.81,34.36,132.1"/>
    <path class="cls-1" d="M561.35,26.29C376.01,74.12,199.01,182.21,98.48,348.72c-52.79,87.43-92.24,197.34-55.63,296.83,7.43,20.19,11.36,35.04,19.06,53.03"/>
    <path class="cls-1" d="M654.87,18.38c-204.77,56.05-393.46,178.63-509.15,359.04-57.48,89.63-97.86,194.92-73.54,302.49,2.78,12.31,6.15,24.72,10.97,36.4,2.78,6.75,5.58,12.23,7.72,16.14"/>
    <path class="cls-2" d="M447.31,653.15c-11.86,3.56-24.23,5.55-36.62,5.65-6.19,.05-12.39-.38-18.51-1.36-5.56-.89-11.54-1.59-14.92-6.66"/>
    <path class="cls-2" d="M449.7,656.81c-11.21,4.25-23.25,6.04-35.2,6.21-11.85,.17-24.27-.53-34.96-6.12"/>
    <path class="cls-2" d="M452.46,659.96c-14.25,3.17-28.66,6.81-43.38,6.36-4.75-.15-9.5-.71-14.15-1.69-4.59-.96-9.01-2.51-13.55-3.64"/>
    <path class="cls-2" d="M453.51,661.69c-13.5,4.88-27.88,7.79-42.28,7.38-9.34-.26-17.94-2.78-26.95-4.96"/>
    <path class="cls-2" d="M454.85,664.03c-13.81,4.4-28.21,7.38-42.75,7.29-7.66-.05-15.61-.84-22.94-3.14"/>
    <path class="cls-2" d="M449.51,667.76c-5.37,1.49-10.76,2.93-16.25,3.9-11.55,2.04-23.3,1.57-34.94,.79"/>
    <path class="cls-2" d="M444.46,649.14c-10.12,1.94-20.45,3.22-30.76,3.51-6.71,.19-13.44,.44-20.14-.02-6.15-.42-12.71-.89-16.96-5.93"/>
    <path class="cls-2" d="M442.78,644.41c-14.7,2.27-29.43,3.61-44.31,2.9-4.06-.19-8.12-.51-12.12-1.28-3.75-.72-7.99-1.62-10.91-4.2"/>
    <path class="cls-2" d="M439.44,639.46c-14.79,1.46-30.06,3.04-44.93,1.81-6.8-.56-13.35-2.55-20.13-3.11"/>
    <path class="cls-2" d="M374.89,633.87c12.65,2.48,25.52,3.08,38.38,2.84,7.36-.14,14.8-.31,22.1-1.33,.59-.08,1.19-.17,1.78-.27"/>
    <path class="cls-2" d="M375.26,629.32c14.78,2.49,29.84,2.74,44.79,2.3,4.93-.14,9.87-.37,14.8-.6"/>
    <path class="cls-2" d="M431.72,627.83c-14.75-.91-29.54,.66-44.28-1.01-3.84-.43-7.78-.92-11.47-2.1"/>
    <path class="cls-2" d="M430.48,624.77c-4.03-.34-8.19-.07-12.25-.04-8.91,.05-17.76,.05-26.65-.63-4.86-.37-10.7-.16-15.22-2.15"/>
    <path class="cls-1" d="M429.1,623.07c-14.93,.69-30,.55-44.76-2l-.22-.04c-2.06-.36-4.11-.77-6.14-1.24"/>
    <path class="cls-2" d="M771.31,374.1c-5.67-4.27-12.56-5.83-19.39-7.22-9.59-1.96-19.33-2.94-28.93-4.74"/>
    <path class="cls-2" d="M775.77,365.83c-14.85-2.35-29.74-4.44-44.74-5.63-.9-.07-1.81-.14-2.71-.21"/>
    <path class="cls-2" d="M770.11,377.32c-14.38-3.88-28.71-7.88-43.44-10.2-3.67-.58-7.4-.89-10.99-1.84"/>
    <path class="cls-2" d="M767.08,383.34c-13.11-6.26-27.17-9.74-41.38-12.48-5.21-1.01-10.55-1.65-15.45-3.79"/>
    <path class="cls-2" d="M764.87,387.57c-14.16-4.96-28.46-9.29-42.84-13.61-5.27-1.58-10.5-3.29-15.74-5"/>
    <path class="cls-2" d="M761.79,391.67c-5.41-3.58-12.1-5.09-18.14-7.3-6.89-2.51-13.8-4.97-20.83-7.06-4.64-1.37-9.33-2.58-14.08-3.53-1.53-.3-3.06-.58-4.6-.8"/>
    <path class="cls-2" d="M761.16,394.67c-6-3.62-12.58-5.92-19.09-8.39-6.83-2.59-13.8-4.83-20.86-6.71-5.18-1.38-10.36-2.68-15.7-3.19"/>
    <path class="cls-2" d="M706.8,378.22c6.23,1.35,12.4,2.96,18.48,4.87,5.84,1.84,11.8,3.7,17.02,6.99"/>
    <path class="cls-2" d="M770.83,360.02c-7.88-.98-15.79-1.62-23.73-1.86-4.32-.13-9.33,.65-13.49-.66"/>
    <path class="cls-2" d="M764.32,355.79c-7.21-.72-14.55-.77-21.79-.66"/>
  </g>
</svg>