<?xml version="1.0" encoding="utf-8"?>
<!-- Generator: Adobe Illustrator 27.0.1, SVG Export Plug-In . SVG Version: 6.00 Build 0)  -->
<svg version="1.1" id="Layer_1" xmlns="http://www.w3.org/2000/svg" xmlns:xlink="http://www.w3.org/1999/xlink" x="0px" y="0px"
	 viewBox="0 0 1356 976" style="enable-background:new 0 0 1356 976;" xml:space="preserve">
<style type="text/css">
	.st0{fill:none;stroke:#121212;stroke-width:10;stroke-miterlimit:10;}
	.st1{fill:none;stroke:#0A0A0A;stroke-width:10;stroke-miterlimit:10;}
	.st2{fill:none;stroke:#000000;stroke-width:10;stroke-miterlimit:10;}
	.st3{fill:none;stroke:#000000;stroke-width:3;stroke-miterlimit:10;}
	.st4{fill:none;stroke:#000000;stroke-width:4;stroke-miterlimit:10;}
	.st5{fill:none;stroke:#000000;stroke-width:6;stroke-miterlimit:10;}
	.st6{fill:none;stroke:#0A0A0A;stroke-width:3;stroke-miterlimit:10;}
</style>
<image style="overflow:visible;enable-background:new    ;" width="1356" height="976" xlink:href="../../../../../../../Desktop/Brain/E0D577A1.png"  transform="matrix(1 0 0 1 0 -0.4138)">
</image>
<path class="st0" d="M641.2,837c-17.8,11.3-38.2,18.7-57.7,26.4c-40.9,16.1-82.9,29.2-126.2,36.7c-43.8,7.6-88.6,10.4-132.8,4.5
	c-40.5-5.4-80.3-17.6-115.2-39.3c-34.1-21.2-61.5-51-77.3-88.1c-16.6-38.8-22.7-81.9-19.2-123.8c3.5-42.5,15.9-83.8,32-123.1
	c16.2-39.6,36.8-77.2,60.2-113.1c23.5-36,49.5-70.2,78.4-102.1c28.7-31.7,59.3-61.5,91.8-89.3c32.7-27.9,67-53.9,102.8-77.7
	c36-23.9,73.4-45.8,112.2-64.8C629,64.1,669.4,47.4,711,34.8c42.2-12.8,85.8-22,130-23.4c28.9-0.9,58.2,1,86.4,8
	c36.7,9.1,72.2,27.4,96.3,57.1c24.5,30.1,31.5,69.4,38.9,106.4c8.8,44.1,17.3,88.1,27,132c2.5,11.2,4.9,22.4,7.4,33.6
	c4.8,22,9.7,44.7,11.3,67.1c2.8,40.3-15.5,78.7-37.5,111.3c-23.9,35.4-52.7,65.9-85.1,93.7c-8.1,6.9-16.3,13.7-24.3,20.6"/>
<path class="st1" d="M133.3,780.1c-24-34.3-61.6-66.1-83-102.1C29.5,643,18.7,603,15,562.6c-5.2-57.1,5.9-114.8,28-167.5
	c21.2-50.7,52-97.6,87.5-139.4c6-7.1,12.2-14.1,18.6-20.9c28.7-30.9,60.6-58.7,94.6-83.6c34.7-25.4,72.3-46.7,111.5-64.4
	c39.7-17.9,80.6-33.3,123.5-41.6c44-8.6,88.6-12.3,133.3-15.7c44.2-3.4,119-6.9,163.4-10.7"/>
<path class="st2" d="M468.1,675.1c-22.8,11-64.9,19.6-78.5-9.1c-14.9-31.4,7.7-62.5,26.9-86c26.4-32.3,58.2-59.7,91.2-85
	c33.9-26,70-49.1,107.4-70c37.7-21,76.8-39.5,117-54.9c40.9-15.6,82.9-28.6,126-36.9c43.2-8.4,87.8-13.6,131.8-9.2
	c67.3,6.7,92.5,35,99.8,43.2c7.5,8.4,12.4,16.4,15.4,22"/>
<path class="st2" d="M873.2,585.1c5.8-21.2,7.9-43.3,6.3-65.2c-1.6-21.1-6.6-42-15-61.4c-0.1-0.2-0.2-0.4-0.2-0.6
	c-8.1-18.7-19-36.3-32.3-51.8s-30-27.2-47.2-37.9c-4.2-2.6-8.5-5.3-12.9-7.5"/>
<path class="st2" d="M749.4,443.8c7.7-10.6,14.6-21.9,20.7-33.5c6.2-11.7,11.5-24,18-35.5"/>
<path class="st2" d="M390.2,626.2c16.2,2.3,32.5,3.2,48.8,2.9"/>
<path class="st2" d="M418.6,581.9c18.9,49.5,48.4,94,83.3,133.6c24.5,27.8,50.3,50.1,61.1,59.4c8.1,6.9,30.9,26.3,63.9,48.8
	c70.3,48.1,133.2,74.1,147.2,80c52.8,22.2,108.5,37.7,165.1,46.5c58,9,117.6,10.9,175.5-0.2c52.1-9.9,103.8-30.3,144.1-65.5
	c38.9-34,65-80.5,74.2-131.2c10.4-57.2,1.8-116.3-17-170.9c-18.4-53.2-46.1-103-78.4-148.9c-32.7-46.4-71.7-88.4-114.4-125.8
	c-13.3-11.7-27-22.9-40.6-34.2"/>
<path class="st2" d="M567.5,454.6c16.5,19.2,36.8,34.4,56.6,50c45.5,35.8,93.4,67.4,144.5,94.8c74.6,40,156.1,71.7,239.7,86.1
	c51.9,8.9,111.7,14.8,161.2-7.8c33.6-15.4,61-47.8,61.5-86c0.7-52.5-36.4-94.6-73.1-127.8c-15.3-13.9-31.3-27-47.8-39.5"/>
<path class="st2" d="M713.9,380.5c16.2,38.7,40.2,73.7,66.1,106.5c26.4,33.4,55,65.7,86.6,94.3c29.7,27,63.5,48.2,100.5,63.7
	c13.6,5.7,27.4,11.2,41.6,15.3c3.1,0.9,6.2,1.7,9.4,1.6c19.1-0.7,12.5-29.2,8.2-40c-3.5-8.7-8.2-16.7-13.1-24.7"/>
<path class="st2" d="M769.3,407c-15.6-7-31.9-12.6-48.4-17.1"/>
<path class="st3" d="M485.2,699c-24.1,11.6-54.2,17.7-80.7,11.7c-29.4-6.6-43.4-31.2-42.2-60c1.4-34.5,20.4-65.6,40.6-92.7
	c27.4-36.7,63.2-67.5,99.5-95c13.4-10.2,27.1-19.9,40.9-29.5c34.1-23.6,69.9-44.6,106.7-63.6c73.9-38,152.8-69,235.2-81.8
	c70.8-11,152.8-9.5,206.1,45.3"/>
<path class="st3" d="M492.9,710.2c-45.1,15-133.7,29.3-146.1-36.2c-4.4-23.2,5-45.8,14.4-66.7c32.9-73.2,95.6-128.9,159.4-175.2
	c3.6-2.6,7.2-5.2,10.8-7.7c1.1-0.8,2.2-1.5,3.2-2.3C604.3,373,680,332.8,760.3,304c78.7-28.2,164.9-50.1,248.3-30.3
	c29.4,7,59.6,21.1,79.1,45"/>
<path class="st3" d="M480.7,692.3c-16.3,7-33.3,11.9-51.1,12.6c-16.6,0.7-35.2-2.9-47-15.5c-11.5-12.3-14.7-29.8-11.8-46
	c2.7-15.3,9.2-30.2,16.8-43.7c17.4-30.7,41-58.6,66.4-82.9c29.3-28.1,62.2-52.5,96.1-74.7c5.6-3.6,11.2-7.2,16.9-10.7
	c67.1-41.6,136.8-77.7,212.2-102.1c70.5-22.8,146.5-41.6,220.9-30.3c34.2,5.2,68.8,19.2,92.7,44.9"/>
<path class="st3" d="M475.3,687c-24.9,14.1-70.9,18.3-90.4-7c-13.7-17.7-7.7-40.4,0.5-59c10.8-24.6,27.9-46.6,45.5-66.6
	C467,513.3,509.7,480,555,449.7c40.3-27,82.9-50.5,126.6-71.5c51.7-24.7,105.9-44.1,161.6-57.6c55.4-13.5,114.5-20.8,170.9-9.3
	c29.5,6,61.5,16.5,80.4,41.6"/>
<path class="st3" d="M504,720.7c-42.8,17.4-96.6,28.8-139.8,6.7c-43.9-22.4-39.3-77.9-23.5-116.7c5.9-14.7,13.8-28.3,22.5-41.4
	c31-46.9,70-88.2,113.2-124.1c25.1-20.8,51.1-40.4,78-58.7c47-32,96.5-60.5,148.7-83.3c52.9-23.1,108.2-41.6,165.3-50.5
	c53.1-8.3,110.9-12.7,161.5,9.2c20.6,8.9,39.3,22.2,54.4,38.9"/>
<path class="st4" d="M516.1,734.1c-50,21.3-121.5,36.6-170.4,4.8c-56.1-36.4-40.2-108.9-13.5-158.8
	c38.3-71.8,98.9-129.2,162.6-178.6c65.6-50.9,137.5-93.3,213.6-126.6c74.7-32.7,160.5-59.6,242.9-53.2c30.5,2.4,60.7,9.9,87.6,24.5
	c15.7,8.5,30,19.7,41.3,33.6"/>
<path class="st3" d="M530.4,747.8c-25.5,11.5-52.6,19.4-80.3,23.5c-44.2,6.4-98.3,6-133.6-25.6c-36.6-32.7-36.6-89.1-20.4-131.8
	c19.5-51.6,51.2-97.7,86.8-139.4c36.1-42.4,78.6-78.6,122.9-112.1c44.8-33.9,92.9-63.3,143.1-88.4c51.2-25.6,105.4-46.5,160.8-61
	c44.8-11.7,92.7-19.5,139.5-15.2c43.2,4,103.6,19.4,126.6,59.9"/>
<path class="st3" d="M545.1,763.3c-51.7,20.9-108.6,35.1-164.8,31.1c-46-3.2-92.8-31.1-109.3-75.6c-8.6-23.3-10.4-49-6.4-73.4
	c8.7-53,37.3-100.8,67.4-144.3c31.9-45.8,71-86.1,113-122.7c36.7-31.9,75.9-60.9,117-86.8c48.4-30.5,99.3-56.3,152.2-77.9
	c53.4-21.8,110-37.6,167.6-43c53.2-5,111.1-2.8,156.3,29.1c12.5,8.8,23.6,19.5,32.7,31.8"/>
<path class="st3" d="M561.1,777.3c-70.6,30.2-151.9,53.1-227.7,28.7c-29.9-9.6-57.2-27.5-74.7-54c-40.1-60.7-18.4-140.5,12.7-200
	c4-7.7,8.3-15.4,12.8-22.9c29.1-48.7,64.8-93.2,104.7-133.5c58-58.6,124.6-108.2,195.4-150.3c50.3-30,103.3-55.7,158.6-75.2
	c76.3-26.9,166.8-43.6,246-19c29.7,9.3,58.2,25.8,74.7,53.1"/>
<path class="st3" d="M576.3,789.8c-69,36.1-152.1,56.7-229.6,40.5c-62.2-13-120.9-60.6-130.7-126.1c-8-53.8,6-107.9,29.5-156.1
	c24.1-49.7,57.3-94.6,93.6-136c35.5-40.5,74.9-77.5,117.3-110.7c66.8-52.3,139.8-98.8,217.3-133.3c77.6-34.5,164.4-57.8,249.8-52.1
	c49.8,3.3,101,17.8,132.2,59.7c1.5,2,3,4.1,4.3,6.2"/>
<path class="st3" d="M591.8,802.2c-72.1,37.9-154,56.2-235.3,46.8c-39.8-4.6-79-20.3-109.4-46.7c-24.9-21.6-43.4-50.9-51.3-83.1
	c-20-82,16-164.5,59.1-232.6c42.6-67.4,97-126.9,156.8-179.4c62.2-54.7,131.1-101.4,204.5-139.7c75.3-39.3,157.7-71.1,243-77.2
	c0.4,0,0.9-0.1,1.3-0.1c64-4.4,140.9,2.7,184.9,55.7c3.4,4.1,6.4,8.8,9.1,13.5"/>
<path class="st3" d="M605.1,812.2c-47.3,27.3-100.1,45-154.2,52c-54.4,7.1-112.6,4.6-164.3-15c-24.6-9.3-47.7-23-66.4-41.6
	c-13.7-13.6-24.8-29.6-32.8-47.2c-22.9-50.3-17.5-112.7-2.4-164.4c15.7-53.9,42.2-104.2,74.3-150.1c32.2-46,69.9-88.2,109.9-127.4
	c40.7-39.9,84.7-75.9,131.6-108.2c47.5-32.6,97.2-62.3,149.7-86.2c52.9-24.1,108.6-42.5,166.2-51.2c56.5-8.5,117-7.7,170.2,15.3
	c23.4,10.2,44.9,24.8,61.4,44.4"/>
<path class="st3" d="M617.2,820.7c-76.4,37.3-161,63.1-246.8,59.1c-67-3.1-137.4-28.6-178.6-84c-45.8-61.6-42.3-144.6-19.9-214.5
	c24.4-76.2,68.4-145.5,119.5-206.6c53.5-64.1,115.9-120.7,184.1-168.8c70.4-49.6,146.6-91.3,227.9-120.2
	c76.2-27.1,159.5-44.4,240-28.1c14.9,3,29.6,7.1,43.4,13.5c21.5,10,40.5,24.8,55,43.7"/>
<path class="st3" d="M624.9,826.4C552.3,865.8,470,889.9,387.1,890c-69.8,0.1-144.5-18.2-193.5-71c-49.3-53.1-57.3-130.3-44.1-198.9
	c15.5-80.9,57.5-154.7,106.3-220c50-67,110-126.6,175.8-178c64.9-50.7,135.8-94.3,211.2-127.5c78-34.3,159.3-57.9,245.3-55.8
	C938.9,40,994.6,53.9,1030,93.3"/>
<path class="st3" d="M631.1,830.7c-37.8,20.3-78.3,36.1-119.7,47.2c-42.9,11.5-87.2,18.3-131.7,18.5c-42.9,0.2-86.5-6.6-125.8-24.3
	c-33.5-15.1-64.6-39.3-85.2-70c-22.1-33-33.1-72.7-34.6-112.2c-1.7-43.4,7.2-86.8,21.2-127.7c13.8-40.6,33.7-78.9,56.4-115.2
	c22.8-36.5,48.8-70.9,76.8-103.6c17-19.8,34.7-39,53.4-57.2c30.9-30.1,64-57.6,98.3-83.8s70.2-50.3,107.6-71.8
	c37.7-21.6,76.9-40.7,117.2-57s81.8-29.4,124.6-37.4c43.6-8.2,88.6-10.9,132.5-3.8c31.3,5,61.5,16.1,88.2,33.4"/>
<path class="st5" d="M302.7,272.4"/>
<path class="st3" d="M1323.2,779.2c-18.7,46-52.4,85.4-95.1,110.9c-47.3,28.2-102,41.3-156.6,45.3c-43.2,3.1-86.7,0.4-129.4-6.8
	c-56.1-9.4-110.7-26.4-163.2-48c-52.8-21.7-103.7-48.6-150.8-80.9c-0.7-0.5-1.5-1-2.2-1.5C581.5,767.5,540.4,731.8,505,691
	c-0.2-0.2-0.4-0.4-0.6-0.7c-14.9-17.3-28.6-35.5-41.1-54.6c-13.2-20.1-23.3-41.9-35.9-62.3"/>
<path class="st3" d="M1283.7,853.3c-27.8,28.6-62.2,50.1-99.2,64.7c-33.1,13-68.1,20.6-103.4,23.8c-43.2,3.9-86.9,2.2-129.7-4.1
	C909,931.4,867.5,921,827,907.3c-40.3-13.6-79.5-30.4-117.1-50.1c-31.4-16.5-61.7-35.2-90.6-55.8c-34.8-24.9-67.8-52.6-97.3-83.7
	c-38.2-40.2-70.2-86.7-95.9-135.8c-0.6-1.2-1.3-2.5-1.9-3.7"/>
<path class="st4" d="M1177.9,929.2c-41.3,15-85.1,22.1-128.9,23c-44.6,0.9-89.1-4.3-132.7-13.5c-43.2-9.1-85.6-21.8-126.6-37.9
	c-39.9-15.6-78.6-34.5-115.4-56.3c-36.1-21.4-70.7-45.5-102.8-72.5c-21.6-18.1-42.3-37.7-61.4-58.6c-0.3-0.3-0.6-0.6-0.9-1
	c-8.8-9.7-17.4-19.7-25.5-30c-14-17.7-27.6-36.1-40.5-54.8"/>
<path class="st3" d="M433.1,567.7c25.7,49.9,58.1,96.3,97.4,136.4c0.2,0.2,0.4,0.4,0.6,0.6c137.4,140,348.2,234.2,546.2,219.4
	c35.4-2.7,70.7-9.9,103.9-22.6c32.4-12.4,63-30.3,87.9-54.5c36.9-35.8,57.3-84.9,62-135.7c3-32.1-0.7-64-7.6-95.5"/>
<path class="st3" d="M517.4,881.6c-8.4,2.3-17.1,4.5-25.9,6.6c-13.4,3.2-20.2,5-27.6,6.2c-5.1,0.9-12.8,1.7-27.9,3.3
	c-14.3,1.5-21.4,2.3-27.2,2.6c-8.2,0.5-14.9,0.5-28.3,0.6c-13.2,0-19.8,0.1-26.8-0.3c-12.6-0.7-22.6-2.2-27.4-2.9
	c-2.9-0.4-8.9-1.3-16.5-2.8c-1.8-0.4-6.1-1.2-10.5-2.2c-4.1-1-10.7-2.6-24.8-7.3c-12.5-4.2-18.8-6.3-24.8-8.9
	c-10-4.4-17.2-8.6-22.8-11.9c-6.2-3.7-13-7.7-21.2-14.1c-8.9-6.9-15-13-19.3-17.4c-4.5-4.6-10.7-10.9-17.6-20.1
	c-6.5-8.8-10.5-15.9-14.5-23c-4.3-7.8-8.4-15-12.3-25.2c-4.5-11.6-6.5-20.8-8.3-29.1c-3.1-14-4.2-25.4-4.8-31.4
	c-1.1-13-0.8-22.5-0.5-33.4c0.3-8.7,0.6-20.3,2.6-35.7c2.3-17.8,5.5-31.8,7.5-39.5c4-15.5,8-26.4,13.2-40.1
	c2.2-5.9,8.4-22.2,18.1-43c9.4-20.2,17.5-35,22.6-44.1c5.4-9.8,14.2-25.6,27.2-45.3c11.9-18.1,21.6-30.7,33.1-45.7
	c9.9-12.9,20.7-27,36.1-44.6c13.5-15.4,23.8-25.8,40.7-42.9c17.3-17.5,28.3-28.6,44.4-43c18.4-16.4,32.9-27.8,47.9-39.5
	c11.5-9,27.7-21.6,49.9-37c19.4-13.4,34.1-22.5,52.2-33.7c20.9-12.9,32.8-20.3,50.5-29.9c7.3-3.9,26.4-14.1,52.1-25.7
	c22.9-10.3,40.7-16.9,51.2-20.8c13.1-4.9,28.4-10.6,49.2-16.8c12.2-3.6,27.2-8.1,47.7-12.2c3.7-0.7,20.8-4.2,43.9-6.8
	c20.9-2.4,36.7-3,41.6-3.2c15-0.5,24.8-0.8,38.5,0.5c12.8,1.2,22.3,3.3,32.7,5.5c11.7,2.5,20.7,4.5,32.1,9
	c7.9,3.1,14.2,6.3,18.5,8.6"/>
<path class="st3" d="M437.2,561.7c14.7,24.9,28.9,50,46.5,73.1c17.5,23,37.4,44.2,58.2,64.3c20.5,19.9,42.2,38.6,65.2,55.6
	c23.2,17.2,47.3,33.2,72.3,47.9c25.2,14.8,51.1,28.5,77.6,40.9c26.3,12.3,53.3,23.2,80.9,32.6c27.8,9.5,56.2,17,85,22.7
	c29.4,5.9,59.1,9.7,89,11.5c29.6,1.8,59.3,1.6,88.8-1.8c28.8-3.4,57.3-10.2,84.3-20.7c24.5-9.5,48.2-22.4,68.3-39.6
	c20.5-17.4,37.4-39.1,49.7-63c13-25.4,19.8-53.5,21.9-81.9c2.1-29.4-1.1-59-7.8-87.6c-6.5-27.9-16.3-55.1-28.9-80.8
	c-12.6-25.6-26.2-50.8-42.4-74.3c-16.3-23.7-34.4-46.1-53.5-67.6s-39.8-41.5-61.4-60.5c-13.1-11.5-26.8-22.3-40.7-32.9"/>
<path class="st3" d="M1088.4,288.1c33.1,27.7,66.4,55.3,95.5,87.2c20.7,22.7,39.9,46.7,58.4,71.3"/>
<path class="st3" d="M1090.3,309.1c15.2,14.6,34.8,28,50.4,42.1c15.9,14.3,31,29.5,45.4,45.4c28.4,31.4,54.6,65.3,76.2,101.7
	c21.2,35.8,38.4,74.5,48,115.1c9.7,41.1,9.3,85.2-2.6,125.9C1270.9,865.5,1137.4,898,1020.6,893c-122.1-5.3-240.5-49.4-344.5-112
	c-67.9-40.9-131-91.1-180.9-153.1c-18.8-23.3-37.7-49-49.8-76.6"/>
<path class="st3" d="M455.4,543.6c27.4,46.4,63.7,86.8,103,123.4C667.2,768.2,800.2,834.8,946,863c56,10.8,115.3,16.5,171.8,6.6
	c40.9-7.2,81-22.4,114.4-47.3c31.9-23.8,56.7-56.5,68.7-94.6c9.5-30.1,11.1-62.4,6-93.5c-8.9-54.5-32.1-106.5-62.1-152.6
	c-31.1-47.8-70.4-88.6-112.4-126.8c-13.2-12-26.6-23.6-40.4-34.9"/>
<path class="st3" d="M1094.3,356.9c-11.5-14.6-28.5-24.9-45.7-31.5c-53.2-20.3-111.8-16.2-166.9-6.6
	c-56.3,9.8-111.2,26.6-163.8,48.7c-52.9,22.3-103.6,49.9-151.3,81.7c-0.2,0.2-0.5,0.3-0.7,0.5c-14.9,10-29.5,20.5-43.6,31.6"/>
<path class="st3" d="M467,533.6c81.7,126.2,209.4,213,347.5,267.8c121.1,48,287.2,84.6,405.3,8.9c110-70.4,89.7-210.6,29.3-307.4
	c-29.8-47.7-65.7-91.2-107.1-129.3c-15.1-13.9-30.7-27.1-46.8-39.7"/>
<path class="st3" d="M479.2,521c86.1,122.9,219.6,211.7,359.3,262.6c57.1,20.8,116.7,34.9,177.1,41.4c3,0.3,5.9,0.6,8.9,0.9
	c68.3,6.5,145.7-2.5,202.5-44c28-20.5,47.1-51.3,55.8-84.7c10.7-41.2,6.8-85.9-7.9-125.7c-32.3-87.5-98.2-165.9-174.8-218.2"/>
<path class="st3" d="M492.9,509.3C556.5,594.6,641,662.1,735,711.1c68.6,35.8,141,65.5,217.3,80.1c60.5,11.6,124.5,18.1,185.6,6.8
	c21.4-4,42.1-11.6,61-22.4c18.9-10.8,36-24.9,49.6-42c16.6-20.8,27.4-46.6,30.8-73.1c3.6-28.4-1.1-57.7-9.9-84.7
	c-6.9-21.2-17-41.2-28.4-60.2c-6.6-11.1-14.2-21.5-21.3-32.2c-16-23.9-36.1-44.9-56.4-65.2c-19.1-19.2-39.2-37.3-60.9-53.6"/>
<path class="st3" d="M506.7,498.4c25.6,33,55.7,61.9,87.7,88.8c22.9,19.3,46.7,37.5,71.3,54.5c24.2,16.7,49.2,32.2,74.9,46.5
	c36.1,20,73.7,37.4,112.5,51.6c38.4,14,78.2,24.4,118.4,31.7c18.9,3.5,38,6.2,57.2,7.7c42.3,3.3,86.1,2.4,127.4-8.9
	c24.7-6.7,48.7-17.6,68.2-34.5c29.3-25.4,46.1-62,47.1-100.7c0.6-24-4.2-48-12.7-70.5c-11.7-31.1-29.7-59.4-49.7-85.8
	c-1.7-2.3-3.5-4.6-5.3-6.8c-25.2-31.9-55.7-58.8-87.4-84.1c-0.5-0.4-1-0.8-1.5-1.2c-3.5-1.8-6.8-5.4-10-7.9"/>
<path class="st3" d="M520.4,488.2c35.6,45.6,79.8,83.6,127.3,116.3c99,68.2,209.3,123.9,328.3,146c78.9,14.6,173.1,20.9,241.2-29.9
	c37.2-27.7,49.8-72.2,43.3-116.8c-4-27.5-14-54.1-27-78.6c-12.7-23.8-29.1-45.5-47.3-65.3c-16.3-17.7-35-38.2-54.9-51.9
	c-1-0.7-3.2-2.1-5.9-4.6c-1.4-1.3-4.5-3.7-6.3-5.1c-14.5-11-9.1-7-10.1-7.7c-1.8-1.4,0.3,0.4-2.8-1.4"/>
<path class="st3" d="M533.1,477.1c50.6,60.8,115.8,108.7,183.7,148.5c71,41.5,147.5,76.6,227.7,95.8c41.7,10,84.2,18.1,127.2,19
	c28.9,0.6,58.2-2.2,86.1-10.3c24.3-7,48.5-17.5,66.5-35.8c0.2-0.2,0.4-0.4,0.5-0.5c8.7-9,15.9-19.5,21.2-30.9
	c11.6-24.6,14-53.9,7.1-80.1c-6.1-23-14.8-46.3-27.1-66.7c-7.8-13-17-25.2-26.3-37.1c-12.4-15.8-26-30.6-40.5-44.5
	c-9.7-9.2-20-17.9-31.2-25.3c-0.4-0.2-0.7-0.5-1.1-0.7c-5.6-3.7-11.4-7.1-17.4-10.1"/>
<path class="st3" d="M542.4,472.1c27.3,31.1,59.2,57.9,92.5,82.5c35.1,25.9,71.8,49.5,109.6,71.4c91.5,53,196.9,89.7,302.3,100.1
	c53,5.2,113.8,3.2,158.5-29.6c1.7-1.3,3.4-2.6,5.1-3.9c10.3-8.4,19.6-18.4,26.7-29.7c6.4-10.3,10.1-21.8,11.8-33.8
	c5.6-40.9-6.7-82.1-29.2-116.2c-14.2-21.6-31-41.4-49.1-59.8c-17.9-18.2-38.2-36.1-60.6-48.6"/>
<path class="st3" d="M551.8,468c58.7,60.1,128.1,108.7,201.4,149.3c0.4,0.2,0.8,0.4,1.2,0.6c47.2,26,96.4,48.4,147.5,65.6
	c55.6,18.7,113.7,31.1,172.5,32.9c39.3,1.2,80.1-3.3,115.8-20.7c33.8-16.5,53-48,56.2-85.2c0.3-3.6,0.5-7.2,0.5-10.8
	c0.1-51.6-31.6-95.6-65.2-131.8c-10.9-11.8-22-23.5-34-34.2c-10.9-9.8-25.8-22.5-41-24.5"/>
<path class="st3" d="M558.5,463.1c49.2,54.4,115.3,98.1,175.3,133.5c71.6,42.3,149.6,74.7,228.4,94.5
	c72.9,18.3,168.1,32.1,235.7-9.8c29.6-18.4,47.7-55.1,45.6-89.9c-2.4-38.2-22.2-71.5-45.1-101.1c-23.3-30.1-54.2-61.6-89.3-78.1"/>
<path class="st3" d="M226,870.8c-42.4-24.1-74.5-65.1-90.3-111c-10.9-31.8-14.7-65.9-12.5-99.4c2-29.4,7.8-58.4,16.8-86.5
	c36.3-112.8,106.5-210.7,190-293.5c84.8-84,183.2-155.4,292.4-204.1C673.8,53.3,727.6,35.2,783,25c35.7-6.5,71.5-9.2,107.7-8.7"/>
<path class="st3" d="M563.2,460.8c52,51.4,111.2,93.1,173.7,130.7c0.3,0.2,0.5,0.3,0.8,0.5c24.8,14.9,51,27.7,77.3,39.6
	c68,30.7,139.3,56.8,213.7,66.1c61.6,7.7,144.8,9.4,190.7-40.7c17-18.6,22.7-45.1,21.2-69.6c-2.4-39.4-25.9-74.3-50.4-103.7
	c-22.4-26.8-48.9-47.5-78.4-66.1"/>
<path class="st6" d="M366.4,85.4c-35.9,20.4-72.2,40.1-106.4,63.3c-65.1,44.1-118.8,102.5-162.7,167.4
	c-44.3,65.6-76,142.4-77.8,222.3c-0.6,25.3,1.7,51.5,8.8,76.1c7.5,26.1,21.4,48.7,36.6,71c15.7,23,33.1,44.9,51.9,65.5"/>
<path class="st6" d="M481.3,49.1c-81.5,14-147.9,58.2-187.6,82.9c-38.2,23.8-73.7,52.5-106.1,83.8c-35.2,34-66.8,71.9-93,113.3
	c-25.8,40.8-46.3,85-58.9,131.7c-11,40.8-17.3,84.6-9.1,126.7c8,40.8,28.8,77.8,52.5,111.5c13.4,19.1,28.2,37.4,44.2,54.5"/>
<path class="st6" d="M478,49.1"/>
</svg>
