<?xml version="1.0" encoding="UTF-8"?>
<svg id="Layer_1" data-name="Layer 1" xmlns="http://www.w3.org/2000/svg" xmlns:xlink="http://www.w3.org/1999/xlink" viewBox="0 0 1356 2044.02">
  <defs>
    <style>
      .cls-1 {
        stroke: #0a0a0a;
      }

      .cls-1, .cls-2, .cls-3, .cls-4 {
        fill: none;
        stroke-miterlimit: 10;
      }

      .cls-1, .cls-3, .cls-4 {
        stroke-width: 10px;
      }

      .cls-5 {
        isolation: isolate;
      }

      .cls-2 {
        stroke-width: 6px;
      }

      .cls-2, .cls-3 {
        stroke: #000;
      }

      .cls-4 {
        stroke: #121212;
      }
    </style>
  </defs>
  <image class="cls-5" width="1356" height="976" transform="translate(0 1068.02)" xlink:href="../../../E0D577A1.png"/>
  <path class="cls-4" d="M641.2,830.81c-17.8,11.3-38.2,18.7-57.7,26.4-40.9,16.1-82.9,29.2-126.2,36.7-43.8,7.6-88.6,10.4-132.8,4.5-40.5-5.4-80.3-17.6-115.2-39.3-34.1-21.2-61.5-51-77.3-88.1-16.6-38.8-22.7-81.9-19.2-123.8,3.5-42.5,15.9-83.8,32-123.1,16.2-39.6,36.8-77.2,60.2-113.1,23.5-36,49.5-70.2,78.4-102.1,28.7-31.7,59.3-61.5,91.8-89.3,32.7-27.9,67-53.9,102.8-77.7,36-23.9,73.4-45.8,112.2-64.8,38.8-19.2,79.2-35.9,120.8-48.5,42.2-12.8,85.8-22,130-23.4,28.9-.9,58.2,1,86.4,8,36.7,9.1,72.2,27.4,96.3,57.1,24.5,30.1,31.5,69.4,38.9,106.4,8.8,44.1,17.3,88.1,27,132,2.5,11.2,4.9,22.4,7.4,33.6,4.8,22,9.7,44.7,11.3,67.1,2.8,40.3-15.5,78.7-37.5,111.3-23.9,35.4-52.7,65.9-85.1,93.7-8.1,6.9-16.3,13.7-24.3,20.6"/>
  <path class="cls-1" d="M125.2,772.61c-24-34.3-53.5-64.8-74.9-100.8-20.8-35-31.6-75-35.3-115.4-5.2-57.1,5.9-114.8,28-167.5,21.2-50.7,52-97.6,87.5-139.4,6-7.1,12.2-14.1,18.6-20.9,28.7-30.9,60.6-58.7,94.6-83.6,34.7-25.4,72.3-46.7,111.5-64.4,39.7-17.9,80.6-33.3,123.5-41.6,44-8.6,88.6-12.3,133.3-15.7,44.2-3.4,88.9-6.9,133.3-10.7"/>
  <path class="cls-3" d="M468.1,668.91c-22.8,11-64.9,19.6-78.5-9.1-14.9-31.4,7.7-62.5,26.9-86,26.4-32.3,58.2-59.7,91.2-85,33.9-26,70-49.1,107.4-70,37.7-21,76.8-39.5,117-54.9,40.9-15.6,82.9-28.6,126-36.9,43.2-8.4,87.8-13.6,131.8-9.2,36.4,3.7,74.6,15.2,99.8,43.2,2.9,3.2,5.6,6.7,8.1,10.2"/>
  <path class="cls-3" d="M873.2,578.91c5.8-21.2,7.9-43.3,6.3-65.2-1.6-21.1-6.6-42-15-61.4-.1-.2-.2-.4-.2-.6-8.1-18.7-19-36.3-32.3-51.8s-30-27.2-47.2-37.9c-4.2-2.6-8.5-5.3-12.9-7.5"/>
  <path class="cls-3" d="M749.4,437.61c7.7-10.6,14.6-21.9,20.7-33.5,6.2-11.7,11.5-24,18-35.5"/>
  <path class="cls-3" d="M390.2,620.01c16.2,2.3,32.5,3.2,48.8,2.9"/>
  <path class="cls-3" d="M418.6,575.71c18.9,49.5,48.4,94,83.3,133.6,24.54,27.84,50.33,50.14,61.11,59.4,8.07,6.94,30.93,26.26,63.89,48.8,70.32,48.09,133.22,74.12,147.2,80,52.8,22.2,108.5,37.7,165.1,46.5,58,9,117.6,10.9,175.5-.2,52.1-9.9,103.8-30.3,144.1-65.5,38.9-34,65-80.5,74.2-131.2,10.4-57.2,1.8-116.3-17-170.9-18.4-53.2-46.1-103-78.4-148.9-32.7-46.4-71.7-88.4-114.4-125.8-13.3-11.7-27-22.9-40.6-34.2"/>
  <path class="cls-3" d="M567.5,448.41c16.5,19.2,36.8,34.4,56.6,50,45.5,35.8,93.4,67.4,144.5,94.8,74.6,40,156.1,71.7,239.7,86.1,51.9,8.9,111.7,14.8,161.2-7.8,33.6-15.4,61-47.8,61.5-86,.7-52.5-36.4-94.6-73.1-127.8-15.3-13.9-31.3-27-47.8-39.5"/>
  <path class="cls-3" d="M713.9,374.31c16.2,38.7,40.2,73.7,66.1,106.5,26.4,33.4,55,65.7,86.6,94.3,29.7,27,63.5,48.2,100.5,63.7,13.6,5.7,27.4,11.2,41.6,15.3,3.1,.9,6.2,1.7,9.4,1.6,19.1-.7,12.5-29.2,8.2-40-3.5-8.7-8.2-16.7-13.1-24.7"/>
  <path class="cls-3" d="M769.3,400.81c-15.6-7-31.9-12.6-48.4-17.1"/>
  <path class="cls-2" d="M485.16,692.83c-24.15,11.64-54.18,17.68-80.66,11.73-29.38-6.6-43.4-31.18-42.22-60.05,1.41-34.53,20.41-65.62,40.57-92.65,27.36-36.68,63.2-67.5,99.49-95.05,13.4-10.17,27.09-19.95,40.93-29.52,34.09-23.57,69.9-44.61,106.74-63.56,73.92-38.03,152.77-68.99,235.25-81.84,70.77-11.02,152.81-9.51,206.15,45.32"/>
  <path class="cls-2" d="M492.9,704.01c-45.1,15.03-133.72,29.28-146.09-36.22-4.38-23.21,5.04-45.83,14.39-66.65,32.86-73.18,95.64-128.92,159.36-175.18,3.58-2.6,7.17-5.17,10.77-7.73,1.08-.76,2.15-1.52,3.23-2.28,69.71-49.11,145.47-89.38,225.79-118.16,78.71-28.2,164.92-50.15,248.27-30.28,29.44,7.02,59.59,21.08,79.09,45"/>
  <path class="cls-2" d="M480.7,686.11c-16.31,7.05-33.3,11.86-51.15,12.6-16.58,.69-35.21-2.93-46.99-15.45-11.53-12.27-14.69-29.84-11.84-46.04,2.69-15.26,9.18-30.22,16.77-43.65,17.37-30.74,41.04-58.56,66.43-82.92,29.34-28.14,62.15-52.49,96.14-74.71,5.58-3.65,11.21-7.23,16.87-10.75,67.09-41.65,136.85-77.7,212.2-102.13,70.47-22.84,146.49-41.58,220.91-30.33,34.15,5.16,68.79,19.17,92.66,44.88"/>
  <path class="cls-2" d="M475.31,680.76c-24.86,14.14-70.88,18.29-90.4-6.98-13.66-17.68-7.7-40.39,.5-59.04,10.79-24.56,27.88-46.59,45.48-66.65,36.06-41.07,78.85-74.41,124.1-104.69,40.3-26.96,82.9-50.53,126.62-71.46,51.69-24.74,105.94-44.1,161.62-57.65,55.41-13.48,114.51-20.82,170.94-9.29,29.5,6.03,61.48,16.55,80.4,41.59"/>
  <path class="cls-2" d="M503.98,714.5c-42.84,17.37-96.6,28.8-139.85,6.73-43.94-22.43-39.27-77.89-23.54-116.68,5.94-14.66,13.83-28.26,22.52-41.44,30.96-46.95,70.03-88.25,113.23-124.1,25.07-20.81,51.07-40.38,78.01-58.7,47.03-31.97,96.52-60.52,148.68-83.28,52.88-23.08,108.18-41.56,165.31-50.5,53.13-8.32,110.9-12.71,161.53,9.19,20.62,8.92,39.35,22.24,54.43,38.9"/>
  <path class="cls-2" d="M516.12,727.91c-50,21.26-121.46,36.64-170.38,4.85-56.08-36.45-40.22-108.9-13.55-158.85,38.33-71.79,98.93-129.22,162.58-178.6,65.64-50.93,137.55-93.31,213.6-126.58,74.73-32.7,160.54-59.61,242.95-53.22,30.46,2.36,60.67,9.89,87.62,24.53,15.69,8.52,30.03,19.67,41.3,33.58"/>
  <path class="cls-2" d="M530.4,741.57c-25.48,11.52-52.58,19.44-80.25,23.48-44.24,6.45-98.27,6-133.65-25.58-36.61-32.68-36.62-89.06-20.45-131.83,19.5-51.58,51.24-97.66,86.79-139.44,36.08-42.4,78.64-78.61,122.92-112.13,44.84-33.94,92.86-63.27,143.15-88.41,51.24-25.61,105.38-46.49,160.8-61.01,44.84-11.75,92.67-19.53,139.53-15.23,43.18,3.96,103.6,19.43,126.64,59.89"/>
  <path class="cls-2" d="M545.15,757.1c-51.72,20.9-108.63,35.08-164.77,31.11-45.99-3.25-92.81-31.12-109.27-75.62-8.6-23.27-10.43-48.97-6.44-73.38,8.65-52.96,37.3-100.83,67.42-144.3,31.77-45.85,70.91-86.14,112.91-122.67,36.68-31.9,75.91-60.85,117.03-86.77,48.38-30.5,99.28-56.28,152.22-77.89,53.4-21.79,110.05-37.63,167.59-43.02,53.24-4.99,111.1-2.83,156.32,29.1,12.49,8.82,23.6,19.49,32.73,31.77"/>
  <path class="cls-2" d="M561.08,771.15c-70.63,30.16-151.86,53.14-227.71,28.71-29.93-9.64-57.22-27.46-74.74-53.98-40.07-60.66-18.38-140.5,12.66-200.02,4.04-7.75,8.33-15.37,12.82-22.87,29.13-48.65,64.79-93.24,104.66-133.49,58-58.55,124.62-108.19,195.36-150.28,50.34-29.95,103.32-55.69,158.61-75.16,76.33-26.89,166.82-43.61,245.97-18.96,29.71,9.25,58.2,25.85,74.67,53.07"/>
  <path class="cls-2" d="M576.3,783.63c-68.96,36.08-152.13,56.73-229.58,40.49-62.19-13.04-120.9-60.56-130.67-126.08-8.03-53.81,6.02-107.86,29.48-156.14,24.13-49.67,57.28-94.55,93.58-135.96,35.5-40.5,74.89-77.5,117.29-110.7,66.76-52.26,139.79-98.8,217.34-133.27,77.58-34.48,164.38-57.83,249.85-52.14,49.83,3.32,100.97,17.78,132.2,59.72,1.51,2.02,2.96,4.09,4.34,6.19"/>
  <path class="cls-2" d="M591.79,796.02c-72.13,37.92-153.99,56.22-235.26,46.8-74.06-8.59-142.45-54.92-160.68-129.83-19.95-81.96,15.98-164.46,59.06-232.62,42.61-67.42,96.98-126.91,156.79-179.44,62.25-54.67,131.08-101.44,204.52-139.75,75.27-39.27,157.66-71.08,243-77.19l1.32-.09c64.05-4.38,140.92,2.68,184.86,55.72,3.43,4.14,6.42,8.82,9.12,13.46"/>
  <path class="cls-2" d="M605.07,805.98c-47.31,27.27-100.1,45-154.24,52.04-54.41,7.08-112.61,4.63-164.34-14.98-24.61-9.33-47.74-22.99-66.44-41.65-13.68-13.65-24.81-29.63-32.82-47.21-22.93-50.34-17.45-112.71-2.36-164.44,15.73-53.93,42.17-104.15,74.28-150.07,32.15-45.97,69.89-88.21,109.92-127.44,40.67-39.86,84.73-75.94,131.64-108.21,47.45-32.63,97.2-62.28,149.66-86.17,52.92-24.1,108.56-42.53,166.18-51.17,56.52-8.47,116.99-7.74,170.18,15.33,23.41,10.15,44.88,24.83,61.39,44.43"/>
  <path class="cls-2" d="M617.24,814.47c-76.37,37.28-161.04,63.06-246.78,59.08-67.03-3.11-137.45-28.58-178.61-84.01-45.77-61.65-42.26-144.64-19.91-214.5,24.39-76.22,68.44-145.49,119.46-206.62,53.5-64.11,115.86-120.69,184.08-168.77,70.44-49.65,146.6-91.28,227.89-120.22,76.2-27.13,159.46-44.41,240.01-28.06,14.85,3.02,29.64,7.07,43.41,13.48,21.51,10.01,40.54,24.82,55.01,43.66"/>
  <path class="cls-2" d="M624.86,820.26c-72.57,39.35-154.87,63.48-237.76,63.62-69.77,.11-144.52-18.21-193.49-71.02-49.27-53.14-57.26-130.3-44.11-198.86,15.53-80.92,57.54-154.66,106.33-220.04,50.02-67.03,109.99-126.55,175.81-178.04,64.86-50.73,135.8-94.33,211.21-127.55,77.95-34.33,159.34-57.89,245.25-55.78,50.82,1.25,106.49,15.15,141.84,54.57"/>
  <path class="cls-2" d="M631.14,824.53c-37.79,20.33-78.25,36.11-119.7,47.21-42.88,11.48-87.22,18.33-131.66,18.53-42.91,.2-86.46-6.56-125.79-24.26-33.45-15.06-64.64-39.31-85.16-69.98-22.11-33.05-33.06-72.66-34.58-112.19-1.67-43.39,7.22-86.78,21.18-127.7,13.84-40.58,33.72-78.89,56.39-115.19,22.79-36.49,48.79-70.91,76.78-103.55,16.99-19.81,34.72-39.01,53.42-57.23,30.86-30.06,64.02-57.65,98.26-83.76,34.3-26.15,70.16-50.3,107.58-71.78,37.71-21.64,76.93-40.73,117.23-57.05,40.26-16.3,81.83-29.41,124.56-37.39,43.61-8.15,88.59-10.87,132.54-3.82,31.22,5.01,61.53,15.93,88.15,33.39"/>
</svg>