<?xml version="1.0" encoding="UTF-8"?>
<svg id="Layer_2" data-name="Layer 2" xmlns="http://www.w3.org/2000/svg" viewBox="0 0 728.2 415.36">
  <defs>
    <style>
      .cls-1 {
        fill: none;
        stroke: #000;
        stroke-miterlimit: 10;
        stroke-width: 6px;
      }
    </style>
  </defs>
  <g id="Layer_1-2" data-name="Layer 1">
    <path class="cls-1" d="M113.91,399.68c-16.3,7-33.3,11.9-51.1,12.6-16.6,.7-35.2-2.9-47-15.5-11.5-12.3-14.7-29.8-11.8-46,2.7-15.3,9.2-30.2,16.8-43.7,17.4-30.7,41-58.6,66.4-82.9,29.3-28.1,62.2-52.5,96.1-74.7,5.6-3.6,11.2-7.2,16.9-10.7,67.1-41.6,136.8-77.7,212.2-102.1C482.91,13.88,558.91-4.92,633.31,6.38c34.2,5.2,68.8,19.2,92.7,44.9"/>
  </g>
</svg>