<?xml version="1.0" encoding="utf-8"?>
<!-- Generator: Adobe Illustrator 27.0.1, SVG Export Plug-In . SVG Version: 6.00 Build 0)  -->
<svg version="1.1" id="Layer_1" xmlns="http://www.w3.org/2000/svg" xmlns:xlink="http://www.w3.org/1999/xlink" x="0px" y="0px"
	 viewBox="0 0 1356 976" style="enable-background:new 0 0 1356 976;" xml:space="preserve">
<style type="text/css">
	.st0{fill:none;stroke:#000000;stroke-width:5;stroke-miterlimit:10;}
	.st1{fill:none;stroke:#000000;stroke-miterlimit:10;}
	.st2{fill:none;stroke:#0A0A0A;stroke-miterlimit:10;}
	.st3{fill:none;stroke:#000000;stroke-width:2;stroke-miterlimit:10;}
	.st4{fill:none;stroke:#121212;stroke-width:5;stroke-miterlimit:10;}
	.st5{fill:none;stroke:#0A0A0A;stroke-width:5;stroke-miterlimit:10;}
	.st6{fill:none;stroke:#231F20;stroke-miterlimit:10;}
</style>
<image style="overflow:visible;" width="1373" height="978" xlink:href="3650290D.jpg"  transform="matrix(0.9948 0 0 0.9927 -6.9353 -6.977)">
</image>
<path class="st0" d="M749.4,443.8c7.7-10.6,14.6-21.9,20.7-33.5c6.2-11.7,13-26,19.5-37.5"/>
<path class="st1" d="M485.2,699c-24.1,11.6-54.2,17.7-80.7,11.7c-29.4-6.6-43.4-31.2-42.2-60c1.4-34.5,20.4-65.6,40.6-92.7
	c46-61.6,113.5-108.6,177.9-149.3c69.4-43.8,144.4-79.8,223.4-102.6c26.6-7.7,53.7-13.8,81-18c70.8-11,153.2-9.4,206.5,45.4"/>
<path class="st1" d="M494.1,709.8c-37.5,12.5-86.2,23-122.2,0.6c-38.1-23.8-25.9-69.2-10.7-103.1c45.8-101.8,140.9-170,234.2-225
	c106.8-62.9,230.3-120.2,357.1-115.7c48.7,1.7,103.3,12.2,135.9,52.1"/>
<path class="st1" d="M480.7,692.3c-28,12-73.3,19.1-98-3.6c-42.1-38.7,11-103.6,36.6-135.1C506,446.7,637.4,379.9,764.8,334.4
	c75.1-26.8,155.1-47.6,235.3-35.4c34.2,5.2,70.3,20.5,94.2,46.2"/>
<path class="st1" d="M475.6,686.9c-23.1,13.1-57.4,17.7-80.5,2.3c-43.6-29-4.8-88.1,18.5-116.3c50-60.8,113.9-108.8,181.1-149.1
	c69.8-41.9,143.9-78.1,222.7-99.4c8.2-2.2,16.5-4.3,24.8-6.2c49.3-11.2,100.2-16,150.6-11c37.1,3.7,79.5,13.9,103.2,45.3"/>
<path class="st1" d="M504,720.7c-42.8,17.4-96.6,28.8-139.8,6.7c-91.4-46.8,2.9-170.2,45.1-218c70-79.2,156.1-143.6,250.7-190.4
	c97.8-48.5,214.1-90,324.5-70c37.7,6.8,73.7,23.1,99.7,51.9"/>
<path class="st1" d="M516,733.7c-54.2,25.6-159.4,45.1-193.7-21.3c-26.9-52.1,2.3-123.4,31.9-167.9C467.5,374,681.3,245.3,885.2,223
	c70-7.7,145.7,7,197.3,54.9"/>
<path class="st1" d="M530.4,747.8c-71.3,32.1-205.9,52-241.5-41.2c-28.2-73.7,31.9-158.1,75.2-212.9
	c75.2-94.9,177.2-165.9,284.8-219.7c91.9-46,195.7-85.8,300.3-76.2c43.2,4,103.6,19.4,126.6,59.9"/>
<path class="st1" d="M546.3,762.9c-68.9,24.2-156.6,57.1-224.6,12.2c-51.3-33.9-66.2-102.7-50.6-159.4
	c27.8-100.5,104.1-180.4,181-246.9c82.2-71.1,177-129.5,279.6-166.1c92.4-32.9,219.1-64.6,306.4-3c12.5,8.8,23.6,19.5,32.7,31.8"/>
<path class="st1" d="M562.1,776.9c-70.6,30.2-152.9,53.5-228.7,29.1c-29.9-9.6-57.2-27.5-74.7-54c-40.1-60.7-18.4-140.5,12.7-200
	c4-7.7,8.3-15.4,12.8-22.9c29.1-48.7,64.8-93.2,104.7-133.5c58-58.6,124.6-108.2,195.4-150.3c50.3-30,103.3-55.7,158.6-75.2
	c76.3-26.9,166.8-43.6,246-19c29.7,9.3,59.5,25.5,76,52.8"/>
<path class="st1" d="M577.1,789.4C495.6,832,376.5,861.2,292.4,809c-69.1-42.9-89.6-131.2-70.6-206.6
	c27-107.3,107-196.4,186.5-269.4c102.9-94.5,229.8-163.2,364.4-200.1c89-24.4,219.4-42.6,283,42.8c1.5,2,3.5,4,4.8,6.1"/>
<path class="st1" d="M593,801.6c-72.1,37.9-155.2,56.8-236.5,47.4c-39.8-4.6-79-20.3-109.4-46.7c-24.9-21.6-43.4-50.9-51.3-83.1
	c-20-82,16-164.5,59.1-232.6c42.6-67.4,97-126.9,156.8-179.4c62.2-54.7,131.1-101.4,204.5-139.7c75.3-39.3,157.7-71.1,243-77.2
	c0.4,0,0.9-0.1,1.3-0.1c64-4.4,140.9,2.7,184.9,55.7c3.4,4.1,7.9,8.3,10.6,13"/>
<path class="st1" d="M606.3,811.6c-121.8,70.3-399.5,100.5-430.4-93.2c-15.4-96.5,31.7-201.4,85.3-279
	c63.2-91.5,148.5-166.3,239.7-229.1C633.9,118.6,823.5,17.6,986.9,88.2c23.4,10.2,46.3,24.8,62.2,43.8"/>
<path class="st1" d="M618.6,820.1c-76.4,37.3-162.4,63.7-248.2,59.7c-67-3.1-137.4-28.6-178.6-84c-45.8-61.6-42.3-144.6-19.9-214.5
	c24.4-76.2,68.4-145.5,119.5-206.6c53.5-64.1,115.9-120.7,184.1-168.8c70.4-49.6,146.6-91.3,227.9-120.2
	c76.2-27.1,159.5-44.4,240-28.1c14.9,3,29.6,7.1,43.4,13.5c21.5,10,41.5,23.9,56,42.8"/>
<path class="st1" d="M626.3,825.7C553.7,865.1,470,889.9,387.1,890c-69.8,0.1-144.5-18.2-193.5-71c-49.3-53.1-57.3-130.3-44.1-198.9
	c15.5-80.9,57.5-154.7,106.3-220C386.9,224.4,604.3,66.3,827.1,41.5c20.2-2.2,40.6-3.2,61-2.7c50.8,1.2,108.8,13.6,144.2,53"/>
<path class="st1" d="M632.9,829.8c-123.6,66.4-302.4,111.7-423.7,15.3c-53-42.1-75.4-107.8-74-173.9c1.7-80.4,34.5-156.9,76.6-224.1
	c84.1-134.6,205.8-242.1,342.9-320.4c122.2-69.8,273-131,413.7-81.7c15,5.2,29.3,11.4,42.6,20.1"/>
<path class="st1" d="M302.7,272.4"/>
<path class="st1" d="M1324.7,779.8c-18.7,46-53.9,84.8-96.6,110.3c-47.3,28.2-102,41.3-156.6,45.3c-43.2,3.1-86.7,0.4-129.4-6.8
	c-56.1-9.4-110.7-26.4-163.2-48c-52.8-21.7-103.7-48.6-150.8-80.9c-0.7-0.5-1.5-1-2.2-1.5C581.5,767.5,540.4,731.8,505,691
	c-0.2-0.2-0.4-0.4-0.6-0.7c-14.9-17.3-28.6-35.5-41.1-54.6c-13.2-20.1-25.5-45.6-38.1-66"/>
<path class="st1" d="M1283.7,853.3c-68.9,71-165.7,99.2-262.8,96.3c-97.9-3-194.6-33-282.1-75.8C634.1,822.6,541,749.4,471.8,655.1
	c-18.8-25.6-35.3-52.6-49.7-80.8"/>
<path class="st1" d="M1176.9,929.8C962.2,999.9,728.2,909,565.4,765.7c-46.4-40.9-88-87-123.4-137.8"/>
<path class="st1" d="M430.7,565.4c25.7,49.9,60.5,98.6,99.8,138.7c0.2,0.2,0.4,0.4,0.6,0.6c137.4,140,348.2,234.2,546.2,219.4
	c35.4-2.7,70.7-9.9,103.9-22.6c32.4-12.4,63-30.3,87.9-54.5c36.9-35.8,57.3-84.9,62-135.7c3-32.1-0.7-64-7.6-95.5"/>
<path class="st1" d="M523.9,882.1c-100.1,27.4-220.7,36-310.1-26.3c-173.9-121.2-49.7-368.5,50.9-494.7
	C373.3,225,523.9,115.8,687.8,56.6c95.4-34.5,199.8-56,296-12.2"/>
<path class="st1" d="M436.2,560.3c14.7,24.9,29.9,51.4,47.5,74.5c17.5,23,37.4,44.2,58.2,64.3c20.5,19.9,42.2,38.6,65.2,55.6
	c23.2,17.2,47.3,33.2,72.3,47.9c25.2,14.8,51.1,28.5,77.6,40.9c26.3,12.3,53.3,23.2,80.9,32.6c27.8,9.5,56.2,17,85,22.7
	c29.4,5.9,59.1,9.7,89,11.5c29.6,1.8,59.3,1.6,88.8-1.8c28.8-3.4,57.3-10.2,84.3-20.7c24.5-9.5,48.2-22.4,68.3-39.6
	c20.5-17.4,37.4-39.1,49.7-63c13-25.4,19.8-53.5,21.9-81.9c2.1-29.4-1.1-59-7.8-87.6c-6.5-27.9-16.3-55.1-28.9-80.8
	c-12.6-25.6-26.2-50.8-42.4-74.3c-16.3-23.7-34.4-46.1-53.5-67.6s-39.8-41.5-61.4-60.5c-13.1-11.5-29.6-24.5-43.5-35.1"/>
<path class="st1" d="M1085,285.2c33.1,27.7,69.8,58.2,98.9,90.1c20.7,22.7,39.9,46.7,58.4,71.3"/>
<path class="st1" d="M1090.3,309.1c15.2,14.6,34.8,28,50.4,42.1c15.9,14.3,31,29.5,45.4,45.4c28.4,31.4,54.6,65.3,76.2,101.7
	c21.2,35.8,38.4,74.5,48,115.1c9.7,41.1,9.3,85.2-2.6,125.9C1270.9,865.5,1137.4,898,1020.6,893c-122.1-5.3-240.5-49.4-344.5-112
	c-67.9-40.9-131-91.1-180.9-153.1c-18.8-23.3-40.3-48.1-52.4-75.7"/>
<path class="st1" d="M454,541.4c27.4,46.4,65.1,89,104.4,125.6C667.2,768.2,800.2,834.8,946,863c56,10.8,115.3,16.5,171.8,6.6
	c40.9-7.2,81-22.4,114.4-47.3c31.9-23.8,56.7-56.5,68.7-94.6c9.5-30.1,11.1-62.4,6-93.5c-8.9-54.5-32.1-106.5-62.1-152.6
	c-31.1-47.8-70.4-88.6-112.4-126.8c-13.2-12-26.6-23.6-40.4-34.9"/>
<path class="st1" d="M1097.2,358.7c-11.5-14.6-31.4-26.7-48.6-33.3c-53.2-20.3-111.8-16.2-166.9-6.6
	c-56.3,9.8-111.2,26.6-163.8,48.7c-52.9,22.3-103.6,49.9-151.3,81.7c-0.2,0.2-0.5,0.3-0.7,0.5c-14.9,10-29.5,20.5-43.6,31.6"/>
<path class="st1" d="M465.6,531.3c81.7,126.2,210.8,215.3,348.9,270.1c121.1,48,287.2,84.6,405.3,8.9
	c110-70.4,89.7-210.6,29.3-307.4c-29.8-47.7-65.7-91.2-107.1-129.3c-15.1-13.9-30.7-27.1-46.8-39.7"/>
<path class="st1" d="M479.2,521c86.1,122.9,219.6,211.7,359.3,262.6c57.1,20.8,116.7,34.9,177.1,41.4c3,0.3,5.9,0.6,8.9,0.9
	c68.3,6.5,145.7-2.5,202.5-44c28-20.5,47.1-51.3,55.8-84.7c10.7-41.2,6.8-85.9-7.9-125.7c-32.3-87.5-98.2-165.9-174.8-218.2"/>
<path class="st1" d="M492.9,509.3C556.5,594.6,641,662.1,735,711.1c68.6,35.8,141,65.5,217.3,80.1c60.5,11.6,124.5,18.1,185.6,6.8
	c21.4-4,42.1-11.6,61-22.4c18.9-10.8,36-24.9,49.6-42c16.6-20.8,27.4-46.6,30.8-73.1c3.6-28.4-1.1-57.7-9.9-84.7
	c-6.9-21.2-17-41.2-28.4-60.2c-6.6-11.1-14.2-21.5-21.3-32.2c-16-23.9-36.1-44.9-56.4-65.2c-19.1-19.2-39.2-37.3-60.9-53.6"/>
<path class="st1" d="M506.7,498.4c129.7,167.2,349.4,291.9,564.9,282.3c30.6-1.4,61.6-4.1,91.1-13c53-16,94.2-59.8,105.2-114.3
	c22.4-110.9-85-213.5-163.2-274.6"/>
<path class="st1" d="M520.4,488.2C627.6,625.5,806.2,719,976,750.5c78.9,14.6,173.1,20.9,241.2-29.9c37.2-27.7,49.8-72.2,43.3-116.8
	c-8.6-59.1-41.7-109.8-82.7-151.9c-21.5-22.1-44.8-47.1-71.6-62.7"/>
<path class="st1" d="M533.1,477.1c50.6,60.8,115.8,108.7,183.7,148.5c71,41.5,147.5,76.6,227.7,95.8c41.7,10,84.2,18.1,127.2,19
	c28.9,0.6,58.2-2.2,86.1-10.3c24.3-7,48.5-17.5,66.5-35.8c0.2-0.2,0.4-0.4,0.5-0.5c8.7-9,15.9-19.5,21.2-30.9
	c11.6-24.6,14-53.9,7.1-80.1c-6.1-23-14.8-46.3-27.1-66.7c-7.8-13-17-25.2-26.3-37.1c-12.4-15.8-26-30.6-40.5-44.5
	c-9.7-9.2-20-17.9-31.2-25.3c-0.4-0.2-0.7-0.5-1.1-0.7c-5.6-3.7-12.5-7.7-18.5-10.7"/>
<path class="st1" d="M542.4,472.1c27.3,31.1,59.2,57.9,92.5,82.5c35.1,25.9,71.8,49.5,109.6,71.4c91.5,53,196.9,89.7,302.3,100.1
	c53,5.2,113.8,3.2,158.5-29.6c1.7-1.3,3.4-2.6,5.1-3.9c10.3-8.4,19.6-18.4,26.7-29.7c6.4-10.3,10.1-21.8,11.8-33.8
	c5.6-40.9-6.7-82.1-29.2-116.2c-14.2-21.6-31-41.4-49.1-59.8c-17.9-18.2-39.2-36.5-61.6-49"/>
<path class="st1" d="M550,466.3c58.7,60.1,129.9,110.4,203.2,151c0.4,0.2,0.8,0.4,1.2,0.6c47.2,26,96.4,48.4,147.5,65.6
	c55.6,18.7,113.7,31.1,172.5,32.9c39.3,1.2,80.1-3.3,115.8-20.7c33.8-16.5,53-48,56.2-85.2c0.3-3.6,0.5-7.2,0.5-10.8
	c0.1-51.6-31.6-95.6-65.2-131.8c-10.9-11.8-22-23.5-34-34.2c-10.9-9.8-25.8-22.5-41-24.5"/>
<path class="st0" d="M557.1,461.8c49.2,54.4,116.7,99.4,176.7,134.8c71.6,42.3,149.6,74.7,228.4,94.5
	c72.9,18.3,168.1,32.1,235.7-9.8c29.6-18.4,47.7-55.1,45.6-89.9c-2.4-38.2-22.2-71.5-45.1-101.1c-23.3-30.1-54.2-61.6-89.3-78.1"/>
<path class="st1" d="M225,872.2c-99.5-56.5-117.7-183.1-89.8-284.6c39.8-145,141.2-265,253.3-361.2C477.9,149.7,579.8,85.8,692,48.6
	c65.8-21.8,135-33.9,204.4-33.2"/>
<path class="st1" d="M560.6,460c52,51.4,112,93.9,174.5,131.5c0.3,0.2,0.5,0.3,0.8,0.5c24.8,14.9,51,27.7,77.3,39.6
	c68,30.7,139.3,56.8,213.7,66.1c61.6,7.7,144.8,9.4,190.7-40.7c17-18.6,22.7-45.1,21.2-69.6c-2.4-39.4-25.9-74.3-50.4-103.7
	c-22.4-26.8-48.9-47.5-78.4-66.1"/>
<path class="st2" d="M478,49.1"/>
<path class="st1" d="M579.7,33.6"/>
<path class="st3" d="M110.7,719"/>
<path class="st1" d="M582.9,446c28.3,30.1,60.6,58.4,93.7,83c97.1,72.1,210.3,122.7,328.4,148.7c64,14.1,168.1,29.6,206.4-41.2
	c23.8-44-0.1-97.1-28.8-132.5c-20.3-25.1-46.3-47.8-72.8-66.1"/>
<path class="st1" d="M1110.1,431.9c16.7,13.8,35.3,27.6,51,42.5c15.1,14.3,28.5,30.5,39.7,48.1c14.3,22.4,24,48.1,25.6,74.7
	c0.2,3.4,0.3,6.9,0.2,10.3"/>
<path class="st1" d="M1108.9,443.9c1.1,1,3.6,3.1,5.8,4.9c27.2,23.3,54.3,47.7,74.4,77.5c20.6,30.4,36.8,71.8,18,107
	c-32.6,60.9-122.5,56.2-179.7,45.8c-55.9-10.1-110.5-27-162.8-49.3c-48.9-20.9-95.8-46.7-140-76.3c-40.4-27.1-78.6-57.5-114.2-90.5
	c-7-6.5-14.8-14.1-21.6-20.8"/>
<path class="st1" d="M1107.3,453.6c37.9,30.1,75.2,67.9,92.5,114.1c7,18.8,7.3,40.4,0.2,59.4c-7.1,18.8-21.8,32.9-39.6,41.7
	c-17.9,8.9-38.1,12.8-58,14.1c-26.8,1.8-54.1-1.5-80.4-6.4c-29-5.4-57.7-13.2-85.6-22.6c-6.9-2.3-13.7-4.8-20.5-7.3
	c-27.7-10.4-54.8-22.6-81.4-35.8c-1.2-0.6-2.4-1.2-3.6-1.8c-18.5-9.3-36.8-19.1-54.7-29.6c-23.8-13.9-47-29-69.3-45.1
	c-16.7-12-32.9-24.6-48.6-37.8c-17.8-15-35.1-30.5-51.9-46.6c-2.2-2.1-4.3-4.1-6.4-6.2c-1.5-1.4-3.4-3.5-4.9-4.9"/>
<path class="st1" d="M605.9,433c27.1,32.1,59.1,59.8,92.3,85.3c91.6,70.6,199.7,128.5,313.2,154.2c42.4,9.6,93.7,15.5,134.5-2.8
	c69.5-31.2,47.9-109.2,9.1-155c-15.7-18.5-33.9-34.1-51.4-50.9"/>
<path class="st1" d="M615.8,426.9c39.3,41,80.3,80.1,126.5,113.3c45.8,32.9,94.2,62,145.2,86c34.5,16.3,70.3,30.4,107.3,39.9
	c46.8,12,105,20.7,149.2-4.6c19.2-11,32.2-29.2,33.3-51.7c0.1-2.3,0.1-4.6,0-6.9c-2.9-53-42.6-90.7-78.3-125.3"/>
<path class="st1" d="M627.9,419.7c38.9,55.8,95.5,98,151.3,135.5c68.2,45.8,141.4,89.2,221.9,109.3c35.1,8.8,73,14.3,108.5,4.6
	c21.1-5.7,39.9-18.2,48.3-39.1c6.6-16.3,5.8-34.2,0.2-50.7c-5.8-17.2-16-32.6-27.3-46.6c-11.2-13.9-25.1-27.4-38-39.7"/>
<path class="st1" d="M642.4,412.7c9.5,18.2,24,34,38.4,48.4c30.6,30.5,63.1,59,97.5,85c34.2,25.8,70.1,49.6,107.8,69.9
	c37.8,20.3,77,38.5,119.1,47.7c36.1,7.9,86.5,12.4,118.3-10.8c52.1-38-1-109.9-33.6-140.4c-1.6-1.5-3.3-3-4.9-4.5"/>
<path class="st1" d="M655.1,406.7c44.3,65.5,103.7,118.8,168.1,164.1c2.6,1.8,5.2,3.7,7.9,5.5c64.7,44.7,137.5,86.4,217.6,92.2
	c17.4,1.3,35.9-1.1,51.5-9.3c21.8-11.5,30.2-35.3,24.7-58.7c-4.4-18.9-15.6-35.8-26.6-51.5c-6.6-9.4-13.1-19.4-22.6-26.1"/>
<path class="st1" d="M665.8,400.9c49.9,69.8,111.4,128.4,180,179.4c0.3,0.3,0.7,0.5,1,0.8c0.3,0.3,0.7,0.5,1,0.8
	c44,32.6,92.8,60.6,146.1,74.9c33.4,9,82.9,21.2,106.6-13.5c26.1-38.1-15.6-77-34.3-106.8"/>
<path class="st1" d="M678,395c26.3,51.8,70.3,94.6,112.4,133.7c40.7,37.8,86,70.7,134.7,97.4c35.2,19.3,75.9,41.5,117.3,38.4
	c0.3,0,0.6,0,0.9-0.1c16.3-1.4,33.6-8.1,43-22.2c19.8-30-11-69.9-30.1-91.9"/>
<path class="st1" d="M689.5,389.5c22.6,49.4,61.9,91.7,100.2,129.3c39.1,38.4,81.8,73.5,129.8,100.3c19.5,10.9,39.3,21.1,59.9,29.5
	c19.6,7.9,42.6,17.5,64,14.8c21.9-2.8,38.6-20.4,34.5-43.2c-3.5-19.3-15.6-36.9-27.3-52.1c-1.3-1.7-2.6-3.4-4-5"/>
<path class="st1" d="M697.9,386.6c37.6,69.9,89.2,131.9,150.3,182.5c29.9,24.7,62,47.1,96.7,64.6c26.8,13.5,59.9,31.3,91,27
	c23.3-3.2,31.5-23.1,25.1-44c-4.8-15.7-14.1-31.2-23.4-44.6"/>
<path class="st1" d="M704.3,383c14.2,31.4,29,51.3,45.9,74.3c16.8,22.9,34,46,54.1,66.1c38.8,38.8,82.6,75.9,129.8,104
	c24.5,14.6,50.8,24.8,78.8,30.1c9.7,1.8,18.9,1,27.3-4.9c11-7.8,8.9-22.4,4.7-33.5c-3.9-10.2-11.2-26.1-20.7-32.3"/>
<path class="st1" d="M1021.1,589.7c4.3,3.5,8,9.9,10.5,14.8c2.8,5.7,5.6,11.4,7.5,17.5c2.1,6.7,3.3,13.9,2.2,20.9
	c-0.8,5.3-4.1,11.2-10.2,10.5"/>
<path class="st2" d="M782.7,354.7c41.7,25,79.7,61.7,99.2,106.7c7.4,17.1,12.1,35.3,13.7,53.9c2.1,26.3-1.9,53.9-9.8,79.1"/>
<path class="st2" d="M778.7,355.6c33.9,18.3,65.7,47.5,85.3,80.7c13.6,23.1,22.9,48.9,26.4,75.5c3.4,26,0.4,54-10.1,78.1"/>
<path class="st2" d="M785.7,353.7c55.8,33.1,103.9,78.8,115.1,145.2c3.6,21.4,2.8,43.6-1.8,64.9c-2.3,10.6-6.1,20.8-9.7,31.1
	c-0.1,0.3-0.2,0.6-0.3,0.9"/>
<path class="st2" d="M788.9,352.4c17.8,11,37.5,22.1,54.5,34.4c25.5,18.5,45.5,44.5,57,73.8c16.4,41.9,14.1,99.9-6.3,140.4"/>
<path class="st2" d="M796.5,350.3c45.5,17.1,89.1,50,111.2,94.1c23.5,46.8,20.2,105.6-3.3,151.8c-1.4,2.8-3.3,6.1-4.8,8.8"/>
<path class="st2" d="M808.3,346.6c31.9,17,69.5,34,93.4,62.1c22.4,26.4,35.6,60.4,36,95.1c0,0.8,0,1.5,0,2.3
	c-0.1,36.1-11.7,73.1-30.1,104.1"/>
<path class="st2" d="M820.8,343.4c45.2,19.1,92.6,41.1,117.9,85.6c32.9,57.8,12.4,134.8-22.2,187.1"/>
<path class="st2" d="M835.4,340.2c36.4,12.4,76.2,27.7,103.1,56.3c26.2,27.9,37.6,67,35.2,104.8c-2.8,44.4-28.2,81.8-49.6,119.4"/>
<path class="st2" d="M842.7,338.3c49.6,8.1,105.9,30.6,134.1,74.8c40.9,64.2,7,141.4-34.1,195.5c-3.8,5-8.5,10.7-12.3,15.7"/>
<path class="st2" d="M859.8,334.8c27.7,3.8,55.3,11.2,80.5,23.5c22.7,11.1,44.3,27.1,58.3,48.4c43.8,66.4,3.5,145.5-38.5,198.2
	c-6.3,7.9-14,16.9-21.1,24.1"/>
<path class="st2" d="M881.1,331c55.9,9.5,125.3,30.2,146.9,87.8c28.3,75.8-28.6,154.9-74.9,207.4c-0.4,0.4-0.8,0.8-1.2,1.3
	c-1.6,1.7-4.1,4.3-5.7,6"/>
<path class="st2" d="M902.6,327.9c17.1,5.7,34.4,10.8,51.8,15.6c33.7,9.4,67.3,26.3,85.9,57.2c20.4,33.7,15.7,75.2,0.9,110
	c-20.1,47.2-50.8,90.2-88.9,124.6"/>
<path class="st2" d="M918.4,326.2c42.1,8.4,88.6,17.4,121,48c87,82.2-22.8,206.8-82.6,264.5"/>
<path class="st2" d="M940.8,324.5c38.5,5.4,79.2,17.4,109,43.7c35.4,31.2,39.6,82.9,23.4,125c-19.7,51.1-59.4,91.1-94.7,131.7
	c-0.2,0.2-0.4,0.5-0.6,0.7"/>
<path class="st2" d="M959.6,323.7c47,11.7,102.7,23.7,124.6,73.2c19.5,44.1,1.4,95.9-23.2,134c-0.3,0.4-0.6,0.9-0.9,1.3
	c-8.2,12.5-16,25.6-24.9,37.5"/>
<path class="st2" d="M974.3,324.2c36.9,6.4,76.3,18,101.8,47.7c33.4,38.9,27.8,95.2,2.3,136.5"/>
<path class="st2" d="M1032.5,334.1c23.4,9.3,44.4,25.8,58.5,47.1c9.8,14.9,14.7,32.6,15.3,50.3"/>
<path class="st2" d="M755.8,451.4c7.3-6.8,11.8-15.6,16.4-24.2c8.5-15.8,17.7-33.2,23.2-50.3"/>
<path class="st2" d="M759.5,457c7.4-7.4,12.3-16.6,17-25.8c5-9.9,9.6-19.9,13.9-30.1c2.9-7,6.1-14.7,8.3-21.9"/>
<path class="st2" d="M803.7,382.8c-0.1,0.3-7.2,20.5-7.2,20.5l-7.7,16l-8.6,17.4l-10.1,17.6l-7,8.1"/>
<path class="st2" d="M768.9,470.3c7.9-6.7,13.7-18.5,18.2-27.5c8.7-17.5,16.8-37,22.1-55.9"/>
<path class="st2" d="M817,393.6c-7,20.4-14.5,41.8-23.8,61.4c-4.2,8.8-10,18.2-16.6,25.5"/>
<path class="st2" d="M787.6,494c4.7-9.1,10.3-20.2,14.7-29.4c9.5-19.9,15.4-41.3,21.4-62.5c0.1-0.3,0.7-2,0.7-2"/>
<path class="st2" d="M832.8,410c-5.4,21.4-11.8,42.7-19.8,63.3c-4.2,10.8-10,23.4-15,33.9"/>
<path class="st2" d="M808.6,519.2c7.7-14.3,15.2-31.4,19.8-47c5-16.9,9.1-34.7,12.7-51.9"/>
<path class="st2" d="M848.1,431.3C844.9,453,840.7,476,834,497c-3.3,10.3-7,20.5-11.7,30.3c-1.3,2.7-3.8,7.9-1.3,2.8"/>
<path class="st2" d="M832.6,546.1c2.1-10.6,6.9-23.1,9.9-33.5c3-10.7,5.5-21.5,7.3-32.5c1.8-10.8,3-21.6,4-32.5
	c0.1-1.5,0.5-4,0.7-5.4"/>
<path class="st2" d="M859.3,450.8c-0.6,22.2-2.5,49.7-7.6,71.4c-2.4,10.1-6.2,19.9-10,29.5c-1,2.5-0.3,0.6-0.4,0.9"/>
<path class="st2" d="M850,563.4c7-21.3,12.1-46.1,13.6-68.5c0.6-9.2,1.7-22.4,1.5-31.7"/>
<path class="st2" d="M871.6,484c-0.7,13.9-2.1,31.5-4.3,45.3c-2.1,13.8-6.1,27.3-9.6,40.8"/>
<path class="st2" d="M862.7,574.8c6-21.4,11.5-49.1,12.7-71.4c0-0.2,0-0.4,0-0.7"/>
<polyline class="st2" points="867.9,580.9 870.3,569.8 873,551.8 875.3,530.1 877.4,515.5 "/>
<path class="st2" d="M770.7,361.7c-3.5-0.2-6.9-0.3-10.4-0.2"/>
<path class="st1" d="M567.5,454.6c16.5,19.2,36.8,34.4,56.6,50c45.5,35.8,93.4,67.4,144.5,94.8c74.6,40,156.1,71.7,239.7,86.1
	c51.9,8.9,111.7,14.8,161.2-7.8c33.6-15.4,61-47.8,61.5-86c0.7-52.5-36.4-94.6-73.1-127.8c-15.3-13.9-31.3-27-47.8-39.5"/>
<path class="st0" d="M417.8,579.3c18.9,49.5,49.2,96.6,84.1,136.2c24.5,27.8,50.3,50.1,61.1,59.4c8.1,6.9,30.9,26.3,63.9,48.8
	c70.3,48.1,133.2,74.1,147.2,80c52.8,22.2,108.5,37.7,165.1,46.5c58,9,117.6,10.9,175.5-0.2c52.1-9.9,103.8-30.3,144.1-65.5
	c38.9-34,65-80.5,74.2-131.2c10.4-57.2,1.8-116.3-17-170.9c-18.4-53.2-46.1-103-78.4-148.9c-32.7-46.4-71.7-88.4-114.4-125.8
	c-13.3-11.7-28.5-23.1-42.1-34.4"/>
<path class="st0" d="M468.1,675.1c-22.8,11-64.9,19.6-78.5-9.1c-14.9-31.4,7.7-62.5,26.9-86c26.4-32.3,58.2-59.7,91.2-85
	c33.9-26,70-49.1,107.4-70c37.7-21,76.8-39.5,117-54.9c40.9-15.6,82.9-28.6,126-36.9c43.2-8.4,87.8-13.6,131.8-9.2
	c67.3,6.7,92.5,35,99.8,43.2c7.5,8.4,12.4,16.4,15.4,22"/>
<path class="st4" d="M642.9,836.1c-17.8,11.3-39.9,19.6-59.4,27.3c-40.9,16.1-82.9,29.2-126.2,36.7c-43.8,7.6-88.6,10.4-132.8,4.5
	c-40.5-5.4-80.3-17.6-115.2-39.3c-34.1-21.2-61.5-51-77.3-88.1c-16.6-38.8-22.7-81.9-19.2-123.8c3.5-42.5,15.9-83.8,32-123.1
	c16.2-39.6,36.8-77.2,60.2-113.1c23.5-36,49.5-70.2,78.4-102.1c28.7-31.7,59.3-61.5,91.8-89.3c32.7-27.9,67-53.9,102.8-77.7
	c36-23.9,73.4-45.8,112.2-64.8C629,64.1,669.4,47.4,711,34.8c42.2-12.8,85.8-22,130-23.4c28.9-0.9,58.2,1,86.4,8
	c36.7,9.1,72.2,27.4,96.3,57.1c24.5,30.1,31.5,69.4,38.9,106.4c8.8,44.1,17.3,88.1,27,132c2.5,11.2,4.9,22.4,7.4,33.6
	c4.8,22,9.7,44.7,11.3,67.1c2.8,40.3-15.5,78.7-37.5,111.3c-23.9,35.4-52.7,65.9-85.1,93.7c-8.1,6.9-16.3,13.7-24.3,20.6"/>
<path class="st5" d="M133.3,780.1c-24-34.3-61.6-66.1-83-102.1C29.5,643,18.7,603,15,562.6c-5.2-57.1,5.9-114.8,28-167.5
	c21.2-50.7,52-97.6,87.5-139.4c6-7.1,12.2-14.1,18.6-20.9c28.7-30.9,60.6-58.7,94.6-83.6c34.7-25.4,72.3-46.7,111.5-64.4
	c39.7-17.9,80.6-33.3,123.5-41.6c44-8.6,88.6-12.3,133.3-15.7c44.2-3.4,119-6.9,163.4-10.7"/>
<path class="st0" d="M390.2,626.2c16.2,2.3,33.4,3,49.7,2.7"/>
<path class="st0" d="M713.2,379.7c16.2,38.7,40.2,73.7,66.1,106.5c26.4,33.4,55,65.7,86.6,94.3c29.7,27,63.5,48.2,100.5,63.7
	c13.6,5.7,27.4,11.2,41.6,15.3c3.1,0.9,6.2,1.7,9.4,1.6c19.1-0.7,12.5-29.2,8.2-40c-3.5-8.7-8.2-16.7-13.1-24.7"/>
<path class="st0" d="M873.2,585.1c5.8-21.2,7.9-43.3,6.3-65.2c-1.6-21.1-6.6-42-15-61.4c-0.1-0.2-0.2-0.4-0.2-0.6
	c-8.1-18.7-19-36.3-32.3-51.8c-16.5-19.3-35.2-30.3-47.2-37.9c-6.7-4.3-12.6-7.5-16.8-9.8"/>
<path class="st0" d="M771.7,407.8c-15.6-7-36.9-14.1-53.4-18.6"/>
<path class="st2" d="M669.9,30.2c-42.5,11.1-84,26.1-124.1,44c-74.3,33.2-143.7,77.1-206.4,128.8C214.7,305.8,94.7,454.2,84.6,622.1
	c-0.9,14.5-0.7,29,0.6,43.4c1.2,13.4,3.4,26.7,6.7,39.7c2.9,11.7,7,23.1,12.4,33.8l3.9,7.5"/>
<path class="st2" d="M93.6,726.2"/>
<path class="st1" d="M636.2,31.2C396.4,92.8,143.9,269.4,80.6,520.6C64.1,586.2,56,667.8,93.8,727.8l4.6,7.8"/>
<path class="st1" d="M615.1,32.7C517.6,57,427,98,344.3,154.9c-93.4,64.2-173.2,149.3-227,249.3C67.5,496.8,39,612.8,81.6,713.9l4,8
	"/>
<path class="st6" d="M586.8,35c-208.1,52.2-400.1,190.6-495,385.8c-24.2,49.9-39.2,106-40.3,161.7c-0.9,42.7,9,90.7,26.7,130.4"/>
<path class="st6" d="M496.8,44.7c-110.9,35.1-215.4,91.6-299.5,172.5C116.9,294.6,50.6,392.7,32.3,504.4
	c-9.4,57.2-0.7,116.1,18.2,170.4"/>
<path class="st6" d="M447.8,55.6C267.9,125.8,86.2,262.3,35.4,457.5c-9.4,36-14.1,72.8-11.5,110c1.9,28,7.1,55.8,14.7,82.8"/>
<path class="st6" d="M368.2,85.1C180.8,167.8-5.3,370.2,20.7,589.2"/>
<path class="st6" d="M686.9,28.2c-10.9,3.2-25.3,7.7-42.3,13.4c-112,37.6-216.1,97.3-305.9,174.1c-76,64.9-144.3,141.5-191.4,230.1
	c-26.3,49.5-46.6,102.9-53.7,158.7c-0.1,0.6-0.1,1.1-0.2,1.7c0,0.3-0.1,0.6-0.1,0.9c-5.7,46.7-1.8,97.6,18.4,141l2.5,5.5"/>
<path class="st6" d="M697.1,28.2C537.2,76.8,390.2,167.1,275.8,289C164.4,407.5,53.6,584.3,113.6,752.4"/>
<path class="st6" d="M708.4,27c-42,13.6-83.5,28.6-123.9,46.6c-74.7,33.3-144.4,77.7-207.4,129.8
	c-63.3,52.3-121.6,110.9-169.1,178.1c-28.1,39.8-52.6,82.3-71.9,127c-32.7,75.9-49.8,166.3-20.2,245.9l1.3,3.1"/>
<path class="st6" d="M717.6,26.9c-77.4,23.9-152,54.8-220.9,97.7c-0.4,0.2-0.7,0.5-1.1,0.7C368,205,254.1,310.8,177.2,441
	c0,0-64.7,112.1-71.1,219.9c-1.5,24.7,2.9,47.2,2.9,47.2c1.5,5.9,2.9,12.2,2.9,12.2c1.7,6.5,3.4,11.9,4.6,15.7"/>
<path class="st6" d="M630.2,60C482.5,121,349,219.8,248.7,344.3c-50.8,63-92.5,133.7-118.2,210.6c-4,11.8-5.8,25.9-9.1,37.9"/>
<path class="st6" d="M120.8,738.6c-23.4-115.7,26.8-229.3,87.7-325.4c138.1-217.9,379.4-375.1,637-400.4"/>
<path class="st6" d="M553,35.1c-78.8,27-159.7,51.4-231.3,95c-64.9,39.5-124,89.8-172.5,148.3c-67.1,80.8-115.5,184-114.4,291.3
	c0.5,46.2,14.3,90.8,34.4,132.1"/>
<path class="st6" d="M572.6,35C387.2,82.8,210.2,190.9,109.7,357.4c-52.8,87.4-92.2,197.3-55.6,296.8c7.4,20.2,11.4,35,19.1,53"/>
<path class="st6" d="M666.1,27.1c-204.8,56-393.5,178.6-509.2,359C99.5,475.7,59.1,581,83.4,688.6c2.8,12.3,6.2,24.7,11,36.4
	c2.8,6.8,5.6,12.2,7.7,16.1"/>
<path class="st1" d="M458.5,661.8c-11.9,3.6-24.2,5.5-36.6,5.6c-6.2,0-12.4-0.4-18.5-1.4c-5.6-0.9-11.5-1.6-14.9-6.7"/>
<path class="st1" d="M460.9,665.5c-11.2,4.3-23.2,6-35.2,6.2c-11.8,0.2-24.3-0.5-35-6.1"/>
<path class="st1" d="M463.7,668.7c-14.3,3.2-28.7,6.8-43.4,6.4c-4.8-0.1-9.5-0.7-14.2-1.7c-4.6-1-9-2.5-13.6-3.6"/>
<path class="st1" d="M464.7,670.4c-13.5,4.9-27.9,7.8-42.3,7.4c-9.3-0.3-17.9-2.8-26.9-5"/>
<path class="st1" d="M466.1,672.7c-13.8,4.4-28.2,7.4-42.8,7.3c-7.7,0-15.6-0.8-22.9-3.1"/>
<path class="st1" d="M460.7,676.4c-5.4,1.5-10.8,2.9-16.3,3.9c-11.6,2-23.3,1.6-34.9,0.8"/>
<path class="st1" d="M455.7,657.8c-10.1,1.9-20.5,3.2-30.8,3.5c-6.7,0.2-13.4,0.4-20.1,0c-6.1-0.4-12.7-0.9-17-5.9"/>
<path class="st1" d="M454,653.1c-14.7,2.3-29.4,3.6-44.3,2.9c-4.1-0.2-8.1-0.5-12.1-1.3c-3.8-0.7-8-1.6-10.9-4.2"/>
<path class="st1" d="M450.7,648.1c-14.8,1.5-30.1,3-44.9,1.8c-6.8-0.6-13.3-2.6-20.1-3.1"/>
<path class="st1" d="M386.1,642.6c12.6,2.5,25.5,3.1,38.4,2.8c7.4-0.1,14.8-0.3,22.1-1.3c0.6-0.1,1.2-0.2,1.8-0.3"/>
<path class="st1" d="M386.5,638c14.8,2.5,29.8,2.7,44.8,2.3c4.9-0.1,9.9-0.4,14.8-0.6"/>
<path class="st1" d="M443,636.5c-14.8-0.9-29.5,0.7-44.3-1c-3.8-0.4-7.8-0.9-11.5-2.1"/>
<path class="st1" d="M441.7,633.5c-4-0.3-8.2-0.1-12.2,0c-8.9,0.1-17.8,0-26.6-0.6c-4.9-0.4-10.7-0.2-15.2-2.1"/>
<path class="st6" d="M440.3,631.8c-14.9,0.7-30,0.5-44.8-2c-0.1,0-0.1,0-0.2,0c-2.1-0.4-4.1-0.8-6.1-1.2"/>
<path class="st1" d="M782.5,382.8c-5.7-4.3-12.6-5.8-19.4-7.2c-9.6-2-19.3-2.9-28.9-4.7"/>
<path class="st1" d="M787,374.5c-14.9-2.4-29.7-4.4-44.7-5.6c-0.9-0.1-1.8-0.1-2.7-0.2"/>
<path class="st1" d="M781.3,386c-14.4-3.9-28.7-7.9-43.4-10.2c-3.7-0.6-7.4-0.9-11-1.8"/>
<path class="st1" d="M778.3,392c-13.1-6.3-27.2-9.7-41.4-12.5c-5.2-1-10.5-1.7-15.5-3.8"/>
<path class="st1" d="M776.1,396.3c-14.2-5-28.5-9.3-42.8-13.6c-5.3-1.6-10.5-3.3-15.7-5"/>
<path class="st1" d="M773,400.4c-5.4-3.6-12.1-5.1-18.1-7.3c-6.9-2.5-13.8-5-20.8-7.1c-4.6-1.4-9.3-2.6-14.1-3.5
	c-1.5-0.3-3.1-0.6-4.6-0.8"/>
<path class="st1" d="M772.4,403.4c-6-3.6-12.6-5.9-19.1-8.4c-6.8-2.6-13.8-4.8-20.9-6.7c-5.2-1.4-10.4-2.7-15.7-3.2"/>
<path class="st1" d="M718,386.9c6.2,1.3,12.4,3,18.5,4.9c5.8,1.8,11.8,3.7,17,7"/>
<path class="st1" d="M782.1,368.7c-7.9-1-15.8-1.6-23.7-1.9c-4.3-0.1-9.3,0.7-13.5-0.7"/>
<path class="st1" d="M775.5,364.5c-7.2-0.7-14.5-0.8-21.8-0.7"/>
</svg>
