<?xml version="1.0" encoding="UTF-8"?>
<svg id="Layer_2" data-name="Layer 2" xmlns="http://www.w3.org/2000/svg" viewBox="0 0 1333.74 956.46">
  <defs>
    <style>
      .cls-1 {
        stroke-width: 4px;
      }

      .cls-1, .cls-2, .cls-3, .cls-4, .cls-5, .cls-6, .cls-7, .cls-8 {
        fill: none;
        stroke-miterlimit: 10;
      }

      .cls-1, .cls-4, .cls-5 {
        stroke: #000;
      }

      .cls-2, .cls-4, .cls-8 {
        stroke-width: 10px;
      }

      .cls-2, .cls-7 {
        stroke: #0a0a0a;
      }

      .cls-3, .cls-5, .cls-7 {
        stroke-width: 3px;
      }

      .cls-3, .cls-6 {
        stroke: #231f20;
      }

      .cls-6 {
        stroke-width: 2px;
      }

      .cls-8 {
        stroke: #121212;
      }
    </style>
  </defs>
  <g id="Layer_1-2" data-name="Layer 1">
    <path class="cls-4" d="M740.67,437.61c7.7-10.6,14.6-21.9,20.7-33.5,6.2-11.7,11.5-24,18-35.5"/>
    <path class="cls-5" d="M476.47,692.81c-24.1,11.6-54.2,17.7-80.7,11.7-29.4-6.6-43.4-31.2-42.2-60,1.4-34.5,20.4-65.6,40.6-92.7,27.4-36.7,63.2-67.5,99.5-95,13.4-10.2,27.1-19.9,40.9-29.5,34.1-23.6,69.9-44.6,106.7-63.6,73.9-38,152.8-69,235.2-81.8,70.8-11,152.8-9.5,206.1,45.3"/>
    <path class="cls-5" d="M484.17,704.01c-45.1,15-133.7,29.3-146.1-36.2-4.4-23.2,5-45.8,14.4-66.7,32.9-73.2,95.6-128.9,159.4-175.2,3.6-2.6,7.2-5.2,10.8-7.7,1.1-.8,2.2-1.5,3.2-2.3,69.7-49.1,145.4-89.3,225.7-118.1,78.7-28.2,164.9-50.1,248.3-30.3,29.4,7,59.6,21.1,79.1,45"/>
    <path class="cls-5" d="M471.97,686.11c-16.3,7-33.3,11.9-51.1,12.6-16.6,.7-35.2-2.9-47-15.5-11.5-12.3-14.7-29.8-11.8-46,2.7-15.3,9.2-30.2,16.8-43.7,17.4-30.7,41-58.6,66.4-82.9,29.3-28.1,62.2-52.5,96.1-74.7,5.6-3.6,11.2-7.2,16.9-10.7,67.1-41.6,136.8-77.7,212.2-102.1,70.5-22.8,146.5-41.6,220.9-30.3,34.2,5.2,68.8,19.2,92.7,44.9"/>
    <path class="cls-5" d="M466.57,680.81c-24.9,14.1-70.9,18.3-90.4-7-13.7-17.7-7.7-40.4,.5-59,10.8-24.6,27.9-46.6,45.5-66.6,36.1-41.1,78.8-74.4,124.1-104.7,40.3-27,82.9-50.5,126.6-71.5,51.7-24.7,105.9-44.1,161.6-57.6,55.4-13.5,114.5-20.8,170.9-9.3,29.5,6,61.5,16.5,80.4,41.6"/>
    <path class="cls-5" d="M495.27,714.51c-42.8,17.4-96.6,28.8-139.8,6.7-43.9-22.4-39.3-77.9-23.5-116.7,5.9-14.7,13.8-28.3,22.5-41.4,31-46.9,70-88.2,113.2-124.1,25.1-20.8,51.1-40.4,78-58.7,47-32,96.5-60.5,148.7-83.3,52.9-23.1,108.2-41.6,165.3-50.5,53.1-8.3,110.9-12.7,161.5,9.2,20.6,8.9,39.3,22.2,54.4,38.9"/>
    <path class="cls-1" d="M507.37,727.91c-50,21.3-121.5,36.6-170.4,4.8-56.1-36.4-40.2-108.9-13.5-158.8,38.3-71.8,98.9-129.2,162.6-178.6,65.6-50.9,137.5-93.3,213.6-126.6,74.7-32.7,160.5-59.6,242.9-53.2,30.5,2.4,60.7,9.9,87.6,24.5,15.7,8.5,30,19.7,41.3,33.6"/>
    <path class="cls-5" d="M521.67,741.61c-25.5,11.5-52.6,19.4-80.3,23.5-44.2,6.4-98.3,6-133.6-25.6-36.6-32.7-36.6-89.1-20.4-131.8,19.5-51.6,51.2-97.7,86.8-139.4,36.1-42.4,78.6-78.6,122.9-112.1,44.8-33.9,92.9-63.3,143.1-88.4s105.4-46.5,160.8-61c44.8-11.7,92.7-19.5,139.5-15.2,43.2,4,103.6,19.4,126.6,59.9"/>
    <path class="cls-5" d="M536.37,757.11c-51.7,20.9-108.6,35.1-164.8,31.1-46-3.2-92.8-31.1-109.3-75.6-8.6-23.3-10.4-49-6.4-73.4,8.7-53,37.3-100.8,67.4-144.3,31.9-45.8,71-86.1,113-122.7,36.7-31.9,75.9-60.9,117-86.8,48.4-30.5,99.3-56.3,152.2-77.9,53.4-21.8,110-37.6,167.6-43,53.2-5,111.1-2.8,156.3,29.1,12.5,8.8,23.6,19.5,32.7,31.8"/>
    <path class="cls-5" d="M552.37,771.11c-70.6,30.2-151.9,53.1-227.7,28.7-29.9-9.6-57.2-27.5-74.7-54-40.1-60.7-18.4-140.5,12.7-200,4-7.7,8.3-15.4,12.8-22.9,29.1-48.7,64.8-93.2,104.7-133.5,58-58.6,124.6-108.2,195.4-150.3,50.3-30,103.3-55.7,158.6-75.2,76.3-26.9,166.8-43.6,246-19,29.7,9.3,58.2,25.8,74.7,53.1"/>
    <path class="cls-5" d="M567.57,783.61c-69,36.1-152.1,56.7-229.6,40.5-62.2-13-120.9-60.6-130.7-126.1-8-53.8,6-107.9,29.5-156.1,24.1-49.7,57.3-94.6,93.6-136,35.5-40.5,74.9-77.5,117.3-110.7,66.8-52.3,139.8-98.8,217.3-133.3,77.6-34.5,164.4-57.8,249.8-52.1,49.8,3.3,101,17.8,132.2,59.7,1.5,2,3,4.1,4.3,6.2"/>
    <path class="cls-5" d="M583.07,796.01c-72.1,37.9-154,56.2-235.3,46.8-39.8-4.6-79-20.3-109.4-46.7-24.9-21.6-43.4-50.9-51.3-83.1-20-82,16-164.5,59.1-232.6,42.6-67.4,97-126.9,156.8-179.4,62.2-54.7,131.1-101.4,204.5-139.7,75.3-39.3,157.7-71.1,243-77.2,.4,0,.9-.1,1.3-.1,64-4.4,140.9,2.7,184.9,55.7,3.4,4.1,6.4,8.8,9.1,13.5"/>
    <path class="cls-5" d="M596.37,806.01c-47.3,27.3-100.1,45-154.2,52-54.4,7.1-112.6,4.6-164.3-15-24.6-9.3-47.7-23-66.4-41.6-13.7-13.6-24.8-29.6-32.8-47.2-22.9-50.3-17.5-112.7-2.4-164.4,15.7-53.9,42.2-104.2,74.3-150.1,32.2-46,69.9-88.2,109.9-127.4,40.7-39.9,84.7-75.9,131.6-108.2,47.5-32.6,97.2-62.3,149.7-86.2,52.9-24.1,108.6-42.5,166.2-51.2,56.5-8.5,117-7.7,170.2,15.3,23.4,10.2,44.9,24.8,61.4,44.4"/>
    <path class="cls-5" d="M608.47,814.51c-76.4,37.3-161,63.1-246.8,59.1-67-3.1-137.4-28.6-178.6-84-45.8-61.6-42.3-144.6-19.9-214.5,24.4-76.2,68.4-145.5,119.5-206.6,53.5-64.1,115.9-120.7,184.1-168.8,70.4-49.6,146.6-91.3,227.9-120.2,76.2-27.1,159.5-44.4,240-28.1,14.9,3,29.6,7.1,43.4,13.5,21.5,10,40.5,24.8,55,43.7"/>
    <path class="cls-5" d="M616.17,820.21c-72.6,39.4-154.9,63.5-237.8,63.6-69.8,.1-144.5-18.2-193.5-71-49.3-53.1-57.3-130.3-44.1-198.9,15.5-80.9,57.5-154.7,106.3-220,50-67,110-126.6,175.8-178,64.9-50.7,135.8-94.3,211.2-127.5,78-34.3,159.3-57.9,245.3-55.8,50.8,1.2,106.5,15.1,141.9,54.5"/>
    <path class="cls-5" d="M622.37,824.51c-37.8,20.3-78.3,36.1-119.7,47.2-42.9,11.5-87.2,18.3-131.7,18.5-42.9,.2-86.5-6.6-125.8-24.3-33.5-15.1-64.6-39.3-85.2-70-22.1-33-33.1-72.7-34.6-112.2-1.7-43.4,7.2-86.8,21.2-127.7,13.8-40.6,33.7-78.9,56.4-115.2,22.8-36.5,48.8-70.9,76.8-103.6,17-19.8,34.7-39,53.4-57.2,30.9-30.1,64-57.6,98.3-83.8s70.2-50.3,107.6-71.8c37.7-21.6,76.9-40.7,117.2-57s81.8-29.4,124.6-37.4c43.6-8.2,88.6-10.9,132.5-3.8,31.3,5,61.5,16.1,88.2,33.4"/>
    <path class="cls-5" d="M1314.47,773.01c-18.7,46-52.4,85.4-95.1,110.9-47.3,28.2-102,41.3-156.6,45.3-43.2,3.1-86.7,.4-129.4-6.8-56.1-9.4-110.7-26.4-163.2-48-52.8-21.7-103.7-48.6-150.8-80.9-.7-.5-1.5-1-2.2-1.5-44.4-30.7-85.5-66.4-120.9-107.2-.2-.2-.4-.4-.6-.7-14.9-17.3-28.6-35.5-41.1-54.6-13.2-20.1-23.3-41.9-35.9-62.3"/>
    <path class="cls-5" d="M1274.97,847.11c-27.8,28.6-62.2,50.1-99.2,64.7-33.1,13-68.1,20.6-103.4,23.8-43.2,3.9-86.9,2.2-129.7-4.1-42.4-6.3-83.9-16.7-124.4-30.4-40.3-13.6-79.5-30.4-117.1-50.1-31.4-16.5-61.7-35.2-90.6-55.8-34.8-24.9-67.8-52.6-97.3-83.7-38.2-40.2-70.2-86.7-95.9-135.8-.6-1.2-1.3-2.5-1.9-3.7"/>
    <path class="cls-1" d="M1169.17,923.01c-41.3,15-85.1,22.1-128.9,23-44.6,.9-89.1-4.3-132.7-13.5-43.2-9.1-85.6-21.8-126.6-37.9-39.9-15.6-78.6-34.5-115.4-56.3-36.1-21.4-70.7-45.5-102.8-72.5-21.6-18.1-42.3-37.7-61.4-58.6-.3-.3-.6-.6-.9-1-8.8-9.7-17.4-19.7-25.5-30-14-17.7-27.6-36.1-40.5-54.8"/>
    <path class="cls-5" d="M424.37,561.51c25.7,49.9,58.1,96.3,97.4,136.4l.6,.6c137.4,140,348.2,234.2,546.2,219.4,35.4-2.7,70.7-9.9,103.9-22.6,32.4-12.4,63-30.3,87.9-54.5,36.9-35.8,57.3-84.9,62-135.7,3-32.1-.7-64-7.6-95.5"/>
    <path class="cls-5" d="M508.67,875.41c-8.4,2.3-17.1,4.5-25.9,6.6-13.4,3.2-20.2,5-27.6,6.2-5.1,.9-12.8,1.7-27.9,3.3-14.3,1.5-21.4,2.3-27.2,2.6-8.2,.5-14.9,.5-28.3,.6-13.2,0-19.8,.1-26.8-.3-12.6-.7-22.6-2.2-27.4-2.9-2.9-.4-8.9-1.3-16.5-2.8-1.8-.4-6.1-1.2-10.5-2.2-4.1-1-10.7-2.6-24.8-7.3-12.5-4.2-18.8-6.3-24.8-8.9-10-4.4-17.2-8.6-22.8-11.9-6.2-3.7-13-7.7-21.2-14.1-8.9-6.9-15-13-19.3-17.4-4.5-4.6-10.7-10.9-17.6-20.1-6.5-8.8-10.5-15.9-14.5-23-4.3-7.8-8.4-15-12.3-25.2-4.5-11.6-6.5-20.8-8.3-29.1-3.1-14-4.2-25.4-4.8-31.4-1.1-13-.8-22.5-.5-33.4,.3-8.7,.6-20.3,2.6-35.7,2.3-17.8,5.5-31.8,7.5-39.5,4-15.5,8-26.4,13.2-40.1,2.2-5.9,8.4-22.2,18.1-43,9.4-20.2,17.5-35,22.6-44.1,5.4-9.8,14.2-25.6,27.2-45.3,11.9-18.1,21.6-30.7,33.1-45.7,9.9-12.9,20.7-27,36.1-44.6,13.5-15.4,23.8-25.8,40.7-42.9,17.3-17.5,28.3-28.6,44.4-43,18.4-16.4,32.9-27.8,47.9-39.5,11.5-9,27.7-21.6,49.9-37,19.4-13.4,34.1-22.5,52.2-33.7,20.9-12.9,32.8-20.3,50.5-29.9,7.3-3.9,26.4-14.1,52.1-25.7,22.9-10.3,40.7-16.9,51.2-20.8,13.1-4.9,28.4-10.6,49.2-16.8,12.2-3.6,27.2-8.1,47.7-12.2,3.7-.7,20.8-4.2,43.9-6.8,20.9-2.4,36.7-3,41.6-3.2,15-.5,24.8-.8,38.5,.5,12.8,1.2,22.3,3.3,32.7,5.5,11.7,2.5,20.7,4.5,32.1,9,7.9,3.1,14.2,6.3,18.5,8.6"/>
    <path class="cls-5" d="M428.47,555.51c14.7,24.9,28.9,50,46.5,73.1,17.5,23,37.4,44.2,58.2,64.3,20.5,19.9,42.2,38.6,65.2,55.6,23.2,17.2,47.3,33.2,72.3,47.9,25.2,14.8,51.1,28.5,77.6,40.9,26.3,12.3,53.3,23.2,80.9,32.6,27.8,9.5,56.2,17,85,22.7,29.4,5.9,59.1,9.7,89,11.5,29.6,1.8,59.3,1.6,88.8-1.8,28.8-3.4,57.3-10.2,84.3-20.7,24.5-9.5,48.2-22.4,68.3-39.6,20.5-17.4,37.4-39.1,49.7-63,13-25.4,19.8-53.5,21.9-81.9,2.1-29.4-1.1-59-7.8-87.6-6.5-27.9-16.3-55.1-28.9-80.8-12.6-25.6-26.2-50.8-42.4-74.3-16.3-23.7-34.4-46.1-53.5-67.6s-39.8-41.5-61.4-60.5c-13.1-11.5-26.8-22.3-40.7-32.9"/>
    <path class="cls-5" d="M1079.67,281.91c33.1,27.7,66.4,55.3,95.5,87.2,20.7,22.7,39.9,46.7,58.4,71.3"/>
    <path class="cls-5" d="M1081.57,302.91c15.2,14.6,34.8,28,50.4,42.1,15.9,14.3,31,29.5,45.4,45.4,28.4,31.4,54.6,65.3,76.2,101.7,21.2,35.8,38.4,74.5,48,115.1,9.7,41.1,9.3,85.2-2.6,125.9-36.8,126.2-170.3,158.7-287.1,153.7-122.1-5.3-240.5-49.4-344.5-112-67.9-40.9-131-91.1-180.9-153.1-18.8-23.3-37.7-49-49.8-76.6"/>
    <path class="cls-5" d="M446.67,537.41c27.4,46.4,63.7,86.8,103,123.4,108.8,101.2,241.8,167.8,387.6,196,56,10.8,115.3,16.5,171.8,6.6,40.9-7.2,81-22.4,114.4-47.3,31.9-23.8,56.7-56.5,68.7-94.6,9.5-30.1,11.1-62.4,6-93.5-8.9-54.5-32.1-106.5-62.1-152.6-31.1-47.8-70.4-88.6-112.4-126.8-13.2-12-26.6-23.6-40.4-34.9"/>
    <path class="cls-5" d="M1085.57,350.71c-11.5-14.6-28.5-24.9-45.7-31.5-53.2-20.3-111.8-16.2-166.9-6.6-56.3,9.8-111.2,26.6-163.8,48.7-52.9,22.3-103.6,49.9-151.3,81.7-.2,.2-.5,.3-.7,.5-14.9,10-29.5,20.5-43.6,31.6"/>
    <path class="cls-5" d="M458.27,527.41c81.7,126.2,209.4,213,347.5,267.8,121.1,48,287.2,84.6,405.3,8.9,110-70.4,89.7-210.6,29.3-307.4-29.8-47.7-65.7-91.2-107.1-129.3-15.1-13.9-30.7-27.1-46.8-39.7"/>
    <path class="cls-5" d="M470.47,514.81c86.1,122.9,219.6,211.7,359.3,262.6,57.1,20.8,116.7,34.9,177.1,41.4,3,.3,5.9,.6,8.9,.9,68.3,6.5,145.7-2.5,202.5-44,28-20.5,47.1-51.3,55.8-84.7,10.7-41.2,6.8-85.9-7.9-125.7-32.3-87.5-98.2-165.9-174.8-218.2"/>
    <path class="cls-5" d="M484.17,503.11c63.6,85.3,148.1,152.8,242.1,201.8,68.6,35.8,141,65.5,217.3,80.1,60.5,11.6,124.5,18.1,185.6,6.8,21.4-4,42.1-11.6,61-22.4,18.9-10.8,36-24.9,49.6-42,16.6-20.8,27.4-46.6,30.8-73.1,3.6-28.4-1.1-57.7-9.9-84.7-6.9-21.2-17-41.2-28.4-60.2-6.6-11.1-14.2-21.5-21.3-32.2-16-23.9-36.1-44.9-56.4-65.2-19.1-19.2-39.2-37.3-60.9-53.6"/>
    <path class="cls-5" d="M497.97,492.21c25.6,33,55.7,61.9,87.7,88.8,22.9,19.3,46.7,37.5,71.3,54.5,24.2,16.7,49.2,32.2,74.9,46.5,36.1,20,73.7,37.4,112.5,51.6,38.4,14,78.2,24.4,118.4,31.7,18.9,3.5,38,6.2,57.2,7.7,42.3,3.3,86.1,2.4,127.4-8.9,24.7-6.7,48.7-17.6,68.2-34.5,29.3-25.4,46.1-62,47.1-100.7,.6-24-4.2-48-12.7-70.5-11.7-31.1-29.7-59.4-49.7-85.8-1.7-2.3-3.5-4.6-5.3-6.8-25.2-31.9-55.7-58.8-87.4-84.1-.5-.4-1-.8-1.5-1.2-3.5-1.8-6.8-5.4-10-7.9"/>
    <path class="cls-5" d="M511.67,482.01c35.6,45.6,79.8,83.6,127.3,116.3,99,68.2,209.3,123.9,328.3,146,78.9,14.6,173.1,20.9,241.2-29.9,37.2-27.7,49.8-72.2,43.3-116.8-4-27.5-14-54.1-27-78.6-12.7-23.8-29.1-45.5-47.3-65.3-16.3-17.7-35-38.2-54.9-51.9-1-.7-3.2-2.1-5.9-4.6-1.4-1.3-4.5-3.7-6.3-5.1-14.5-11-9.1-7-10.1-7.7-1.8-1.4,.3,.4-2.8-1.4"/>
    <path class="cls-5" d="M524.37,470.91c50.6,60.8,115.8,108.7,183.7,148.5,71,41.5,147.5,76.6,227.7,95.8,41.7,10,84.2,18.1,127.2,19,28.9,.6,58.2-2.2,86.1-10.3,24.3-7,48.5-17.5,66.5-35.8,.2-.2,.4-.4,.5-.5,8.7-9,15.9-19.5,21.2-30.9,11.6-24.6,14-53.9,7.1-80.1-6.1-23-14.8-46.3-27.1-66.7-7.8-13-17-25.2-26.3-37.1-12.4-15.8-26-30.6-40.5-44.5-9.7-9.2-20-17.9-31.2-25.3-.4-.2-.7-.5-1.1-.7-5.6-3.7-11.4-7.1-17.4-10.1"/>
    <path class="cls-5" d="M533.67,465.91c27.3,31.1,59.2,57.9,92.5,82.5,35.1,25.9,71.8,49.5,109.6,71.4,91.5,53,196.9,89.7,302.3,100.1,53,5.2,113.8,3.2,158.5-29.6,1.7-1.3,3.4-2.6,5.1-3.9,10.3-8.4,19.6-18.4,26.7-29.7,6.4-10.3,10.1-21.8,11.8-33.8,5.6-40.9-6.7-82.1-29.2-116.2-14.2-21.6-31-41.4-49.1-59.8-17.9-18.2-38.2-36.1-60.6-48.6"/>
    <path class="cls-5" d="M543.07,461.81c58.7,60.1,128.1,108.7,201.4,149.3,.4,.2,.8,.4,1.2,.6,47.2,26,96.4,48.4,147.5,65.6,55.6,18.7,113.7,31.1,172.5,32.9,39.3,1.2,80.1-3.3,115.8-20.7,33.8-16.5,53-48,56.2-85.2,.3-3.6,.5-7.2,.5-10.8,.1-51.6-31.6-95.6-65.2-131.8-10.9-11.8-22-23.5-34-34.2-10.9-9.8-25.8-22.5-41-24.5"/>
    <path class="cls-5" d="M549.77,456.91c49.2,54.4,115.3,98.1,175.3,133.5,71.6,42.3,149.6,74.7,228.4,94.5,72.9,18.3,168.1,32.1,235.7-9.8,29.6-18.4,47.7-55.1,45.6-89.9-2.4-38.2-22.2-71.5-45.1-101.1-23.3-30.1-54.2-61.6-89.3-78.1"/>
    <path class="cls-5" d="M217.27,864.61c-42.4-24.1-74.5-65.1-90.3-111-10.9-31.8-14.7-65.9-12.5-99.4,2-29.4,7.8-58.4,16.8-86.5,36.3-112.8,106.5-210.7,190-293.5,84.8-84,183.2-155.4,292.4-204.1,51.4-23,105.2-41.1,160.6-51.3,35.7-6.5,71.5-9.2,107.7-8.7"/>
    <path class="cls-5" d="M552.63,454.61c52,51.4,111.2,93.1,173.7,130.7,.3,.2,.5,.3,.8,.5,24.8,14.9,51,27.7,77.3,39.6,68,30.7,139.3,56.8,213.7,66.1,61.6,7.7,144.8,9.4,190.7-40.7,17-18.6,22.7-45.1,21.2-69.6-2.4-39.4-25.9-74.3-50.4-103.7-22.4-26.8-48.9-47.5-78.4-66.1"/>
    <path class="cls-5" d="M575.26,440.78c28.25,30.12,59.46,57.42,92.62,82.02,97.13,72.07,210.34,122.66,328.38,148.67,64.01,14.11,168.13,29.6,206.35-41.18,23.75-43.99-.1-97.12-28.77-132.5-20.32-25.07-44.46-46.64-71.01-64.94"/>
    <path class="cls-5" d="M1102.47,426.6c16.67,13.77,34.13,26.67,49.81,41.59,15.07,14.34,28.53,30.51,39.7,48.06,14.26,22.39,24.02,48.09,25.62,74.73,.21,3.44,.28,6.89,.22,10.34"/>
    <path class="cls-5" d="M1100.96,438.26c1.12,1.03,2.83,2.58,4.97,4.41,27.16,23.31,54.25,47.71,74.42,77.55,20.58,30.45,36.75,71.83,17.95,106.97-32.58,60.89-122.52,56.21-179.74,45.85-55.94-10.13-110.55-26.97-162.79-49.33-48.93-20.94-95.76-46.7-139.95-76.35-40.39-27.1-78.58-57.45-114.22-90.53-6.99-6.48-13.87-13.08-20.64-19.79"/>
    <path class="cls-5" d="M1098.61,447.36c37.87,30.09,75.24,67.88,92.48,114.11,7,18.76,7.28,40.44,.18,59.37-7.06,18.81-21.83,32.9-39.63,41.68-17.94,8.85-38.1,12.8-57.95,14.13-26.79,1.8-54.09-1.49-80.43-6.39-28.97-5.4-57.69-13.18-85.61-22.62-6.88-2.33-13.73-4.77-20.53-7.34-27.71-10.44-54.84-22.62-81.37-35.76-1.21-.6-2.41-1.2-3.61-1.8-18.54-9.27-36.79-19.14-54.68-29.62-23.8-13.95-46.96-28.99-69.33-45.13-16.67-12.02-32.9-24.64-48.65-37.85-17.83-14.95-35.14-30.53-51.93-46.64-2.15-2.06-4.29-4.14-6.42-6.22-1.47-1.44-2.93-2.89-4.38-4.35"/>
    <path class="cls-5" d="M597.16,426.81c27.08,32.12,59.07,59.75,92.26,85.34,91.6,70.62,199.72,128.52,313.19,154.17,42.42,9.59,93.68,15.54,134.52-2.76,69.5-31.15,47.85-109.19,9.06-155-15.7-18.53-33.92-34.1-51.37-50.85"/>
    <path class="cls-5" d="M607.03,420.74c39.26,41.02,80.28,80.12,126.49,113.27,45.81,32.87,94.21,61.97,145.24,86.01,34.52,16.26,70.3,30.43,107.31,39.9,46.82,11.99,105.02,20.73,149.17-4.56,19.24-11.02,32.23-29.23,33.3-51.75,.11-2.31,.09-4.62-.03-6.93-2.88-53.01-42.56-90.74-78.31-125.33"/>
    <path class="cls-5" d="M619.78,414.49c38.87,55.84,94.88,97.01,150.71,134.52,68.2,45.82,141.41,89.21,221.85,109.28,35.1,8.76,72.97,14.27,108.47,4.62,21.07-5.73,39.93-18.22,48.32-39.07,6.57-16.34,5.75-34.19,.16-50.68-5.81-17.15-15.97-32.62-27.31-46.61s-24.03-26.16-36.94-38.43"/>
    <path class="cls-5" d="M634.13,407.36c9.52,18.19,23.5,33.14,37.92,47.52,30.55,30.49,63.07,58.98,97.52,84.99,34.19,25.8,70.08,49.63,107.82,69.93,37.77,20.31,77,38.53,119.09,47.74,36.15,7.91,86.53,12.39,118.27-10.78,52.09-38.03-1.03-109.94-33.61-140.44-1.63-1.53-3.28-3.03-4.94-4.52"/>
    <path class="cls-5" d="M646.4,400.46c44.34,65.46,103.73,118.85,168.13,164.06,2.62,1.84,5.22,3.71,7.86,5.53,64.69,44.7,137.53,86.41,217.6,92.23,17.45,1.27,35.88-1.09,51.52-9.31,21.81-11.47,30.16-35.31,24.67-58.69-4.44-18.89-15.64-35.77-26.64-51.46-6.56-9.36-13.1-19.4-22.62-26.05"/>
    <path class="cls-5" d="M657.76,395.62c49.88,69.78,110.67,127.5,179.31,178.55l1.05,.78,1.02,.75c44.03,32.64,92.85,60.58,146.08,74.9,33.45,9,82.9,21.17,106.59-13.46,26.08-38.12-14.82-75.44-33.5-105.21"/>
    <path class="cls-5" d="M670.27,390.05c26.27,51.85,69.34,93.37,111.45,132.46,40.69,37.77,86,70.69,134.68,97.42,35.21,19.33,75.88,41.53,117.34,38.36l.87-.07c16.27-1.39,33.65-8.11,42.96-22.22,19.82-30.04-10.25-68.92-29.4-90.96"/>
    <path class="cls-5" d="M681.3,384.6c22.6,49.37,61.34,90.47,99.69,128.08,39.13,38.38,81.84,73.53,129.77,100.28,19.45,10.85,39.28,21.14,59.95,29.49,19.55,7.9,42.59,17.54,63.95,14.76,21.87-2.84,38.65-20.41,34.48-43.18-3.53-19.3-15.55-36.88-27.34-52.11-1.31-1.7-2.65-3.38-4-5.05"/>
    <path class="cls-5" d="M689.22,380.37c37.62,69.86,89.19,131.91,150.26,182.49,29.88,24.75,62.01,47.1,96.71,64.58,26.79,13.49,59.9,31.29,91.05,26.96,23.32-3.24,31.47-23.11,25.12-44.05-4.77-15.74-13.46-30.04-22.74-43.48"/>
    <path class="cls-5" d="M696.49,378.09c11.85,26.17,28.04,49.95,45.01,73.02,16.82,22.87,33.98,46.03,54.07,66.11,38.77,38.75,82.6,75.91,129.78,104.03,24.45,14.57,50.79,24.82,78.81,30.13,9.66,1.83,18.92,.99,27.26-4.93,11.01-7.82,8.93-22.43,4.7-33.46-3.92-10.23-10.88-25.87-20.32-32.02"/>
    <path class="cls-5" d="M1013.71,584.53c4.31,3.52,6.65,8.92,9.08,13.78,2.84,5.68,5.58,11.44,7.5,17.5,2.12,6.7,3.27,13.93,2.21,20.94-.8,5.3-4.06,11.16-10.24,10.53"/>
    <path class="cls-7" d="M775.32,349.21c41.68,24.97,78.29,60.91,97.84,105.93,7.41,17.07,12.14,35.33,13.65,53.88,2.14,26.33-1.49,52.93-9.47,78.06"/>
    <path class="cls-7" d="M772.8,351.18c33.9,18.32,62.88,45.75,82.44,79,13.58,23.07,22.92,48.89,26.36,75.47,3.36,25.97,.79,53-9.78,77.12"/>
    <path class="cls-7" d="M778.4,348.46c55.84,33.11,102.49,77.81,113.67,144.19,3.61,21.41,2.84,43.57-1.76,64.86-2.3,10.64-6.15,20.84-9.66,31.11-.11,.31-.21,.62-.32,.94"/>
    <path class="cls-7" d="M781.71,346.99c17.79,10.96,35.99,21.33,52.93,33.6,25.53,18.49,45.48,44.46,56.96,73.8,16.4,41.93,14.78,98.86-5.59,139.33"/>
    <path class="cls-7" d="M789.07,344.88c45.53,17.09,87.83,49.22,109.97,93.31,23.52,46.83,20.17,105.58-3.32,151.79-1.4,2.76-2.89,5.48-4.45,8.15"/>
    <path class="cls-7" d="M801.96,341.39c31.94,16.99,67.18,33.06,91.08,61.14,22.44,26.36,35.61,60.4,36.04,95.08,0,.76,.01,1.51,.01,2.27-.07,36.12-10.77,71.84-29.15,102.82"/>
    <path class="cls-7" d="M813.61,337.92c45.22,19.06,91.03,40.37,116.3,84.87,32.85,57.84,13.29,133.82-21.31,186.18"/>
    <path class="cls-7" d="M828.34,334.53c36.41,12.42,74.53,27.12,101.45,55.78,26.19,27.88,37.6,67.03,35.18,104.77-2.85,44.43-27.12,81.03-48.61,118.59"/>
    <path class="cls-7" d="M835.84,333.24c49.64,8.07,103.98,29.54,132.14,73.7,40.9,64.15,6.98,141.35-34.06,195.53-3.77,4.97-7.57,9.91-11.29,14.92"/>
    <path class="cls-7" d="M850.86,329.43c27.73,3.82,55.5,10.39,80.75,22.75,22.69,11.1,44.3,27.13,58.31,48.38,43.77,66.39,3.52,145.5-38.53,198.17-6.29,7.88-12.61,15.8-19.68,22.99"/>
    <path class="cls-7" d="M871.81,325.6c55.89,9.52,125.9,29.39,147.44,87.02,28.32,75.76-28.58,154.92-74.93,207.37-.38,.43-.77,.84-1.16,1.26-1.56,1.68-3.13,3.35-4.71,5.01"/>
    <path class="cls-7" d="M893.6,322.74c17.1,5.74,34.69,9.69,52.03,14.55,33.71,9.45,67.27,26.33,85.95,57.2,20.39,33.71,15.68,75.2,.85,110.01-20.11,47.2-50.84,90.17-88.86,124.61"/>
    <path class="cls-7" d="M909.45,320.79c42.14,8.45,88.83,16.56,121.27,47.21,87.03,82.23-21.63,205.6-81.46,263.22"/>
    <path class="cls-7" d="M931.92,319.74c38.47,5.44,79.35,15.92,109.2,42.21,35.41,31.19,39.61,82.88,23.4,125.01-19.66,51.08-59.38,91.13-94.7,131.69l-.6,.69"/>
    <path class="cls-7" d="M950.45,319.59c47.04,11.67,103.14,21.65,125.02,71.09,19.51,44.08,1.41,95.9-23.23,134.02-.28,.44-.57,.88-.86,1.32-8.18,12.45-16.62,24.72-25.55,36.68"/>
    <path class="cls-7" d="M964.82,320.16c36.89,6.38,77.05,15.83,102.53,45.51,33.42,38.92,27.84,95.2,2.26,136.53"/>
    <path class="cls-7" d="M1022.54,329.34c23.44,9.26,45.69,24.33,59.73,45.62,9.83,14.9,14.72,32.57,15.26,50.33"/>
    <path class="cls-7" d="M747.09,445.21c7.26-6.79,11.76-15.57,16.4-24.21,8.49-15.8,17.27-31.84,22.74-48.98"/>
    <path class="cls-7" d="M750.75,450.78c7.42-7.37,12.3-16.61,16.98-25.84,4.99-9.86,9.65-19.88,13.95-30.06,2.94-6.95,5.67-14,7.91-21.21"/>
    <path class="cls-7" d="M794.27,378.64c-.14,.28-6.55,18.48-6.55,18.48l-7.66,16-8.59,17.41-10.14,17.62-5.28,6.14"/>
    <path class="cls-7" d="M761.72,462.74c7.9-6.65,12.15-17.13,16.65-26.2,8.67-17.47,16.38-35.85,21.73-54.72"/>
    <path class="cls-7" d="M807.78,388.46c-7.01,20.42-13.95,40.79-23.23,60.34-4.2,8.85-8.3,17.47-14.9,24.8"/>
    <path class="cls-7" d="M780.15,485.92c4.65-9.08,9.06-18.32,13.46-27.52,9.55-19.94,15.38-41.27,21.37-62.48,.09-.32,.18-.65,.27-.97"/>
    <path class="cls-7" d="M824.06,403.77c-5.4,21.41-11.8,42.69-19.75,63.3-4.18,10.85-9.02,21.4-13.97,31.91"/>
    <path class="cls-7" d="M800.85,510.88c7.71-14.26,14.13-29.25,18.76-44.79,5.03-16.88,8.74-34.04,12.3-51.27"/>
    <path class="cls-7" d="M839.13,426.39c-3.24,21.71-7.11,43.46-13.89,64.38-3.34,10.32-7.19,20.45-11.65,30.34-.42,.92-.84,1.84-1.27,2.76"/>
    <path class="cls-7" d="M824.68,537.39c2.14-10.57,6.14-20.63,9.07-30.98,3.03-10.69,5.46-21.55,7.29-32.5,1.8-10.76,2.99-21.62,4.02-32.47,.14-1.47,.28-2.94,.42-4.41"/>
    <path class="cls-7" d="M850.13,449.81c-.62,22.22-2.06,44.56-7.18,66.25-2.39,10.12-5.78,20.05-10.03,29.54-.13,.3-.27,.6-.41,.9"/>
    <path class="cls-7" d="M842.22,554.02c7.04-21.26,11.15-42.94,12.63-65.3,.61-9.25,.98-18.51,.82-27.78"/>
    <path class="cls-7" d="M861.99,481.5c-.67,13.92-1.31,27.88-3.43,41.67-2.13,13.82-6.07,27.29-9.61,40.8"/>
    <path class="cls-7" d="M854.59,567.21c5.98-21.45,9.81-43.45,10.99-65.69,.01-.22,.02-.45,.03-.67"/>
    <polyline class="cls-7" points="859.82 571.57 861.61 563.57 864.3 545.57 866.57 523.88 868.01 510.88"/>
    <path class="cls-7" d="M776.64,365.02c-8.8-3.23-17.84-5.77-27.03-7.59"/>
    <path class="cls-7" d="M778.04,370.35c-11.9-4.06-24.05-7.28-36.04-11.06"/>
    <path class="cls-7" d="M771.25,377.66c-13.15-4.05-26.22-8.36-39.43-12.22"/>
    <path class="cls-7" d="M770.4,381.38c-4.59-2.22-9.73-3.14-14.62-4.51-10.55-2.97-20.9-6.54-31.29-10.03"/>
    <path class="cls-7" d="M767.25,385.25c-14.01-4.64-28.34-8.23-42.35-12.87-2.7-.89-5.42-1.81-8.1-2.71"/>
    <path class="cls-7" d="M764.7,389.11c-14.3-4.57-28.64-9-43.07-13.11-3.78-1.08-7.57-2.14-11.36-3.18"/>
    <path class="cls-7" d="M763.12,392.83c-13.63-5.22-27.48-9.84-41.57-13.67-4.28-1.16-8.57-2.25-12.88-3.28"/>
    <path class="cls-7" d="M771.31,373.66c-5.65-2.06-10.48-3.76-14.25-5.06-6.61-2.28-9.49-3.18-12.69-4.05-3.3-.89-6.07-1.52-8-1.93"/>
    <path class="cls-7" d="M455.58,663.57c-14.49,8.4-30.91,11.13-47.45,11.58"/>
    <path class="cls-3" d="M444.8,652.46c-20.69,3.45-44.69,7.17-64.15-2.89"/>
    <path class="cls-3" d="M439.68,642.06c-14.84,1.12-29.89,1.73-44.72,.19-5.21-.54-10.37-1.51-15.42-2.9"/>
    <path class="cls-3" d="M442.63,648.05c-14.83,1.03-29.71,2.14-44.56,.8-6.33-.57-12.93-1.67-18.85-4.03"/>
    <path class="cls-3" d="M448.75,656.81c-14.42,2.64-29.37,3.52-44.01,3.06-7.52-.24-15.92-.98-22.17-5.59"/>
    <path class="cls-3" d="M450.82,660.76c-21.07,5.82-43.63,5.71-64.7-.03-.32-.09-.64-.18-.96-.27"/>
    <path class="cls-3" d="M452.05,663.01c-10.35,3.12-21.1,4.89-31.91,5.15-10.72,.25-21.52-1.24-32.06-3.15"/>
    <path class="cls-3" d="M441.65,669.24c-11.03,1.89-22.33,2.17-33.48,1.57-5.71-.31-11.38-1.04-17.07-1.56"/>
    <path class="cls-6" d="M436.89,637.47c-15.02,.51-30.04,.59-45.02-.76-4.38-.39-8.75-.87-13.1-1.54"/>
    <path class="cls-3" d="M378.81,631.13c14.76,2.51,29.73,3.46,44.69,3.01,3.7-.11,7.42-.23,11.1-.71"/>
    <path class="cls-3" d="M380.57,627.43c10.68,1.36,21.43,2.23,32.18,2.8,6.24,.33,12.54,.54,18.71-.44"/>
    <path class="cls-4" d="M558.77,448.41c16.5,19.2,36.8,34.4,56.6,50,45.5,35.8,93.4,67.4,144.5,94.8,74.6,40,156.1,71.7,239.7,86.1,51.9,8.9,111.7,14.8,161.2-7.8,33.6-15.4,61-47.8,61.5-86,.7-52.5-36.4-94.6-73.1-127.8-15.3-13.9-31.3-27-47.8-39.5"/>
    <path class="cls-4" d="M409.87,575.71c18.9,49.5,48.4,94,83.3,133.6,24.5,27.8,50.3,50.1,61.1,59.4,8.1,6.9,30.9,26.3,63.9,48.8,70.3,48.1,133.2,74.1,147.2,80,52.8,22.2,108.5,37.7,165.1,46.5,58,9,117.6,10.9,175.5-.2,52.1-9.9,103.8-30.3,144.1-65.5,38.9-34,65-80.5,74.2-131.2,10.4-57.2,1.8-116.3-17-170.9-18.4-53.2-46.1-103-78.4-148.9-32.7-46.4-71.7-88.4-114.4-125.8-13.3-11.7-27-22.9-40.6-34.2"/>
    <path class="cls-4" d="M459.37,668.91c-22.8,11-64.9,19.6-78.5-9.1-14.9-31.4,7.7-62.5,26.9-86,26.4-32.3,58.2-59.7,91.2-85,33.9-26,70-49.1,107.4-70,37.7-21,76.8-39.5,117-54.9,40.9-15.6,82.9-28.6,126-36.9,43.2-8.4,87.8-13.6,131.8-9.2,67.3,6.7,92.5,35,99.8,43.2,7.5,8.4,12.4,16.4,15.4,22"/>
    <path class="cls-8" d="M632.47,830.81c-17.8,11.3-38.2,18.7-57.7,26.4-40.9,16.1-82.9,29.2-126.2,36.7-43.8,7.6-88.6,10.4-132.8,4.5-40.5-5.4-80.3-17.6-115.2-39.3-34.1-21.2-61.5-51-77.3-88.1-16.6-38.8-22.7-81.9-19.2-123.8,3.5-42.5,15.9-83.8,32-123.1,16.2-39.6,36.8-77.2,60.2-113.1,23.5-36,49.5-70.2,78.4-102.1,28.7-31.7,59.3-61.5,91.8-89.3,32.7-27.9,67-53.9,102.8-77.7,36-23.9,73.4-45.8,112.2-64.8,38.8-19.2,79.2-35.9,120.8-48.5,42.2-12.8,85.8-22,130-23.4,28.9-.9,58.2,1,86.4,8,36.7,9.1,72.2,27.4,96.3,57.1,24.5,30.1,31.5,69.4,38.9,106.4,8.8,44.1,17.3,88.1,27,132,2.5,11.2,4.9,22.4,7.4,33.6,4.8,22,9.7,44.7,11.3,67.1,2.8,40.3-15.5,78.7-37.5,111.3-23.9,35.4-52.7,65.9-85.1,93.7-8.1,6.9-16.3,13.7-24.3,20.6"/>
    <path class="cls-2" d="M124.57,773.91c-24-34.3-61.6-66.1-83-102.1-20.8-35-31.6-75-35.3-115.4-5.2-57.1,5.9-114.8,28-167.5,21.2-50.7,52-97.6,87.5-139.4,6-7.1,12.2-14.1,18.6-20.9,28.7-30.9,60.6-58.7,94.6-83.6,34.7-25.4,72.3-46.7,111.5-64.4,39.7-17.9,80.6-33.3,123.5-41.6,44-8.6,88.6-12.3,133.3-15.7,44.2-3.4,119-6.9,163.4-10.7"/>
    <path class="cls-4" d="M381.47,620.01c16.2,2.3,32.5,3.2,48.8,2.9"/>
    <path class="cls-4" d="M705.17,374.31c16.2,38.7,40.2,73.7,66.1,106.5,26.4,33.4,55,65.7,86.6,94.3,29.7,27,63.5,48.2,100.5,63.7,13.6,5.7,27.4,11.2,41.6,15.3,3.1,.9,6.2,1.7,9.4,1.6,19.1-.7,12.5-29.2,8.2-40-3.5-8.7-8.2-16.7-13.1-24.7"/>
    <path class="cls-4" d="M864.47,578.91c5.8-21.2,7.9-43.3,6.3-65.2-1.6-21.1-6.6-42-15-61.4-.1-.2-.2-.4-.2-.6-8.1-18.7-19-36.3-32.3-51.8-16.55-19.29-35.23-30.33-47.2-37.9-6.75-4.27-12.59-7.54-16.83-9.82"/>
    <path class="cls-4" d="M760.57,400.81c-15.6-7-31.9-12.6-48.4-17.1"/>
    <path class="cls-7" d="M661.16,24.04c-42.53,11.06-84.02,26.09-124.13,44.01-74.28,33.18-143.66,77.12-206.4,128.84-124.64,102.75-244.68,251.15-254.81,418.98-.87,14.45-.72,28.97,.58,43.4,1.21,13.38,3.38,26.68,6.66,39.71,2.93,11.65,6.95,23.06,12.35,33.8"/>
    <path class="cls-7" d="M645.51,25.23c-42.41,11.48-84.27,25.36-124.55,42.96-107.43,46.94-204.82,116.42-285.47,201.4-80.71,85.03-151.76,195.07-165.22,314.4-5.25,46.56,1.42,91.35,14.57,136.03"/>
    <path class="cls-5" d="M627.45,24.98C409.66,80.93,204.05,225.92,103.76,430.76c-24.42,49.88-41.29,104.06-44.26,159.76-2.36,44.31,1.3,92.59,25.57,131.05"/>
    <path class="cls-5" d="M606.38,26.48c-97.49,24.35-188.11,65.28-270.86,122.2-93.41,64.25-173.2,149.25-227.02,249.34-49.77,92.55-78.26,208.6-35.66,309.7"/>
    <path class="cls-3" d="M578.08,28.79C369.98,81.02,177.94,219.35,83.09,414.62c-24.24,49.9-40.53,105.94-40.31,161.75,.17,42.61,9.69,84.75,23.96,124.74"/>
    <path class="cls-3" d="M549.08,31.71c-81.52,23.04-161.01,54.96-231.96,101.71C193.46,214.88,76.39,345.08,43.67,493.03c-14.41,65.17-17.71,141.4,18.86,200.27"/>
    <path class="cls-3" d="M520.32,34.19c-140.62,35.83-272.05,114.65-366.4,225.36C60.45,369.23-20.6,542.91,53.9,683.18"/>
    <path class="cls-3" d="M488.07,38.55c-110.86,35.07-215.42,91.6-299.55,172.55C108.2,288.38,41.9,386.48,23.61,498.22c-9.15,55.86-1.23,113.02,17.28,166.17"/>
    <path class="cls-3" d="M439.05,49.43C259.18,119.62,77.48,256.09,26.7,451.34c-9.35,35.96-14.08,72.81-11.51,109.97,1.93,28.02,7.08,55.78,14.71,82.8"/>
    <path class="cls-3" d="M359.43,78.88C172.06,161.6-14.03,364,11.97,583.04"/>
    <path class="cls-3" d="M678.17,22.03c-10.85,3.23-25.31,7.69-42.25,13.38-112.04,37.64-216.13,97.34-305.93,174.11-75.97,64.95-144.31,141.47-191.41,230.11-26.28,49.47-46.57,102.87-53.72,158.67-.07,.56-.14,1.12-.21,1.68l-.11,.87c-5.71,46.73-1.78,97.56,18.36,141"/>
    <path class="cls-3" d="M688.34,22.05c-159.88,48.53-306.83,138.84-421.27,260.71-111.36,118.59-222.22,295.34-162.25,463.49"/>
    <path class="cls-3" d="M699.69,20.81c-42.01,13.63-83.49,28.59-123.86,46.59-74.74,33.33-144.36,77.67-207.4,129.75-63.28,52.28-121.62,110.91-169.08,178.06-28.12,39.78-52.55,82.27-71.86,127.02-32.74,75.88-49.85,166.28-20.19,245.95"/>
    <path class="cls-3" d="M708.89,20.74c-77.4,23.95-152.03,54.8-220.94,97.69-.37,.23-.74,.46-1.11,.69-127.57,79.65-241.44,185.52-318.32,315.68,0,0-64.73,112.09-71.14,219.87-1.47,24.69,2.94,47.17,2.94,47.17,1.08,5.5,2.21,9.85,2.85,12.23"/>
    <path class="cls-3" d="M621.51,53.84c-147.77,60.93-281.2,159.74-381.52,284.29-50.78,63.04-92.5,133.69-118.25,210.65-3.96,11.85-7.59,23.81-10.87,35.86"/>
    <path class="cls-3" d="M115.22,731.91c-23.37-115.72,23.71-228.86,84.59-324.91C337.93,189.1,579.17,34.47,836.86,9.14"/>
  </g>
</svg>