<?xml version="1.0" encoding="UTF-8"?>
<svg id="Layer_2" data-name="Layer 2" xmlns="http://www.w3.org/2000/svg" viewBox="0 0 1008.58 908.64">
  <defs>
    <style>
      .cls-1 {
        fill: none;
        stroke: #121212;
        stroke-miterlimit: 10;
        stroke-width: 12px;
      }
    </style>
  </defs>
  <g id="Layer_1-2" data-name="Layer 1">
    <path class="cls-1" d="M534.72,831.85c-7.48,4.73-15.69,7.93-23.55,11.91-7.86,3.98-16.01,6.87-24.18,10.09-7.69,3.03-15.27,6.35-23.07,9.08-9.02,3.16-17.73,7.12-26.8,10.14-27.53,9.15-55.81,16.89-84.48,21.47-29.46,4.71-59.2,8.45-89.09,8.09-29.29-.36-58.62-3.8-86.98-11.25-27.13-7.13-53.44-17.77-76.92-33.23-22.3-14.68-42.83-32.58-57.32-55.21-7.28-11.36-13.22-23.52-18.51-35.91-4.26-9.97-8.81-19.95-11.7-30.43-3.06-11.07-4.08-22.34-4.95-33.75-2.22-29.34-1.48-59.02,3.88-88,1.64-8.87,3.7-17.63,5.93-26.36,.93-3.65,5.16-19.96,12.83-41.33,9.76-27.2,21.86-53.61,35.37-79.15,13.48-25.48,28.93-50.11,45.24-73.86,16.55-24.08,34.3-47.37,53.31-69.56,18.91-22.08,39.38-42.86,60.14-63.18,20.23-19.8,41.56-38.79,63.75-56.54,21.26-17.01,42.76-33.76,65.11-49.33,.25-.17,.5-.35,.75-.52,22.73-15.81,46.32-30.46,70.14-44.58,25.14-14.91,51.11-28.39,77.64-40.61,26.82-12.4,54.3-23.48,82.15-33.35,27.43-9.72,55.7-16.67,84.25-22.19,26.06-5.04,52.63-8.3,79.21-8.27h.45c24.57,.04,49.64,2.34,73.52,8.28,26.26,6.53,52.49,17.87,73.99,34.48,9.02,6.97,16.98,14.95,23.9,24,3.26,4.26,9.46,12.87,15.31,24.92,7.36,15.16,11.27,31.16,14.99,47.49,6.65,29.14,12.25,58.43,16.94,87.95,1.53,9.64,4.08,19.07,6.43,28.54,4.54,18.31,8.24,36.84,12.24,55.27,1.78,8.19,3.02,16.51,4.83,24.69,1.48,6.69,3.53,13.24,5.19,19.89,1.45,5.81,1.38,11.83,2.12,17.74,1.27,10.06,3.81,19.91,5.17,29.96,1.43,10.58,.17,21.27-1.48,31.74-1.73,10.92-5.56,21.38-9.77,31.56-4.41,10.66-9.26,21.15-14.95,31.19-6.2,10.94-13.66,21.16-20.97,31.36-4.38,6.11-8.5,12.41-13.07,18.38-17.17,22.44-38.86,41.09-59.87,59.79-8.82,7.85-17.89,15.44-27.06,22.87"/>
  </g>
</svg>